<?xml version="1.0" encoding="utf-8" standalone="no"?>
<!DOCTYPE svg PUBLIC "-//W3C//DTD SVG 1.1//EN"
  "http://www.w3.org/Graphics/SVG/1.1/DTD/svg11.dtd">
<svg xmlns:xlink="http://www.w3.org/1999/xlink" width="438.6925pt" height="321.591375pt" viewBox="0 0 438.6925 321.591375" xmlns="http://www.w3.org/2000/svg" version="1.1">
 <metadata>
  <rdf:RDF xmlns:dc="http://purl.org/dc/elements/1.1/" xmlns:cc="http://creativecommons.org/ns#" xmlns:rdf="http://www.w3.org/1999/02/22-rdf-syntax-ns#">
   <cc:Work>
    <dc:type rdf:resource="http://purl.org/dc/dcmitype/StillImage"/>
    <dc:date>2026-02-08T00:38:00.767790</dc:date>
    <dc:format>image/svg+xml</dc:format>
    <dc:creator>
     <cc:Agent>
      <dc:title>Matplotlib v3.10.8, https://matplotlib.org/</dc:title>
     </cc:Agent>
    </dc:creator>
   </cc:Work>
  </rdf:RDF>
 </metadata>
 <defs>
  <style type="text/css">*{stroke-linejoin: round; stroke-linecap: butt}</style>
 </defs>
 <g id="figure_1">
  <g id="patch_1">
   <path d="M 0 321.591375 
L 438.6925 321.591375 
L 438.6925 0 
L 0 0 
L 0 321.591375 
z
" style="fill: none"/>
  </g>
  <g id="axes_1">
   <g id="patch_2">
    <path d="M 40.8925 301.032 
L 431.4925 301.032 
L 431.4925 7.2 
L 40.8925 7.2 
L 40.8925 301.032 
z
" style="fill: none"/>
   </g>
   <g id="patch_3">
    <path d="M 58.647045 301.032 
L 76.626332 301.032 
L 76.626332 300.803796 
L 58.647045 300.803796 
z
" clip-path="url(#p97dd1458b8)" style="fill: #bb0383; opacity: 0.8"/>
   </g>
   <g id="patch_4">
    <path d="M 81.121154 301.032 
L 99.10044 301.032 
L 99.10044 298.941031 
L 81.121154 298.941031 
z
" clip-path="url(#p97dd1458b8)" style="fill: #bb0383; opacity: 0.8"/>
   </g>
   <g id="patch_5">
    <path d="M 103.595262 301.032 
L 121.574548 301.032 
L 121.574548 147.159684 
L 103.595262 147.159684 
z
" clip-path="url(#p97dd1458b8)" style="fill: #bb0383; opacity: 0.8"/>
   </g>
   <g id="patch_6">
    <path d="M 126.06937 301.032 
L 144.048657 301.032 
L 144.048657 97.714928 
L 126.06937 97.714928 
z
" clip-path="url(#p97dd1458b8)" style="fill: #bb0383; opacity: 0.8"/>
   </g>
   <g id="patch_7">
    <path d="M 148.543478 301.032 
L 166.522765 301.032 
L 166.522765 300.838955 
L 148.543478 300.838955 
z
" clip-path="url(#p97dd1458b8)" style="fill: #83bb03; opacity: 0.8"/>
   </g>
   <g id="patch_8">
    <path d="M 171.017586 301.032 
L 188.996873 301.032 
L 188.996873 298.614856 
L 171.017586 298.614856 
z
" clip-path="url(#p97dd1458b8)" style="fill: #83bb03; opacity: 0.8"/>
   </g>
   <g id="patch_9">
    <path d="M 193.491694 301.032 
L 211.470981 301.032 
L 211.470981 139.479752 
L 193.491694 139.479752 
z
" clip-path="url(#p97dd1458b8)" style="fill: #83bb03; opacity: 0.8"/>
   </g>
   <g id="patch_10">
    <path d="M 215.965803 301.032 
L 233.945089 301.032 
L 233.945089 24.107754 
L 215.965803 24.107754 
z
" clip-path="url(#p97dd1458b8)" style="fill: #83bb03; opacity: 0.8"/>
   </g>
   <g id="patch_11">
    <path d="M 238.439911 301.032 
L 256.419197 301.032 
L 256.419197 301.001654 
L 238.439911 301.001654 
z
" clip-path="url(#p97dd1458b8)" style="fill: #ab7e4c; opacity: 0.8"/>
   </g>
   <g id="patch_12">
    <path d="M 260.914019 301.032 
L 278.893306 301.032 
L 278.893306 300.690203 
L 260.914019 300.690203 
z
" clip-path="url(#p97dd1458b8)" style="fill: #ab7e4c; opacity: 0.8"/>
   </g>
   <g id="patch_13">
    <path d="M 283.388127 301.032 
L 301.367414 301.032 
L 301.367414 239.050554 
L 283.388127 239.050554 
z
" clip-path="url(#p97dd1458b8)" style="fill: #ab7e4c; opacity: 0.8"/>
   </g>
   <g id="patch_14">
    <path d="M 305.862235 301.032 
L 323.841522 301.032 
L 323.841522 200.463944 
L 305.862235 200.463944 
z
" clip-path="url(#p97dd1458b8)" style="fill: #ab7e4c; opacity: 0.8"/>
   </g>
   <g id="patch_15">
    <path d="M 328.336343 301.032 
L 346.31563 301.032 
L 346.31563 301.005285 
L 328.336343 301.005285 
z
" clip-path="url(#p97dd1458b8)" style="fill: #0383bb; opacity: 0.8"/>
   </g>
   <g id="patch_16">
    <path d="M 350.810452 301.032 
L 368.789738 301.032 
L 368.789738 300.818617 
L 350.810452 300.818617 
z
" clip-path="url(#p97dd1458b8)" style="fill: #0383bb; opacity: 0.8"/>
   </g>
   <g id="patch_17">
    <path d="M 373.28456 301.032 
L 391.263846 301.032 
L 391.263846 244.919484 
L 373.28456 244.919484 
z
" clip-path="url(#p97dd1458b8)" style="fill: #0383bb; opacity: 0.8"/>
   </g>
   <g id="patch_18">
    <path d="M 395.758668 301.032 
L 413.737955 301.032 
L 413.737955 192.741624 
L 395.758668 192.741624 
z
" clip-path="url(#p97dd1458b8)" style="fill: #0383bb; opacity: 0.8"/>
   </g>
   <g id="matplotlib.axis_1">
    <g id="xtick_1">
     <g id="line2d_1">
      <defs>
       <path id="mdb76e4cffb" d="M 0 0 
L 0 3.5 
" style="stroke: #000000; stroke-width: 0.8"/>
      </defs>
      <g>
       <use xlink:href="#mdb76e4cffb" x="67.636689" y="301.032" style="stroke: #000000; stroke-width: 0.8"/>
      </g>
     </g>
    </g>
    <g id="xtick_2">
     <g id="line2d_2">
      <g>
       <use xlink:href="#mdb76e4cffb" x="90.110797" y="301.032" style="stroke: #000000; stroke-width: 0.8"/>
      </g>
     </g>
    </g>
    <g id="xtick_3">
     <g id="line2d_3">
      <g>
       <use xlink:href="#mdb76e4cffb" x="112.584905" y="301.032" style="stroke: #000000; stroke-width: 0.8"/>
      </g>
     </g>
    </g>
    <g id="xtick_4">
     <g id="line2d_4">
      <g>
       <use xlink:href="#mdb76e4cffb" x="135.059013" y="301.032" style="stroke: #000000; stroke-width: 0.8"/>
      </g>
     </g>
    </g>
    <g id="xtick_5">
     <g id="line2d_5">
      <g>
       <use xlink:href="#mdb76e4cffb" x="157.533121" y="301.032" style="stroke: #000000; stroke-width: 0.8"/>
      </g>
     </g>
    </g>
    <g id="xtick_6">
     <g id="line2d_6">
      <g>
       <use xlink:href="#mdb76e4cffb" x="180.00723" y="301.032" style="stroke: #000000; stroke-width: 0.8"/>
      </g>
     </g>
    </g>
    <g id="xtick_7">
     <g id="line2d_7">
      <g>
       <use xlink:href="#mdb76e4cffb" x="202.481338" y="301.032" style="stroke: #000000; stroke-width: 0.8"/>
      </g>
     </g>
    </g>
    <g id="xtick_8">
     <g id="line2d_8">
      <g>
       <use xlink:href="#mdb76e4cffb" x="224.955446" y="301.032" style="stroke: #000000; stroke-width: 0.8"/>
      </g>
     </g>
    </g>
    <g id="xtick_9">
     <g id="line2d_9">
      <g>
       <use xlink:href="#mdb76e4cffb" x="247.429554" y="301.032" style="stroke: #000000; stroke-width: 0.8"/>
      </g>
     </g>
    </g>
    <g id="xtick_10">
     <g id="line2d_10">
      <g>
       <use xlink:href="#mdb76e4cffb" x="269.903662" y="301.032" style="stroke: #000000; stroke-width: 0.8"/>
      </g>
     </g>
    </g>
    <g id="xtick_11">
     <g id="line2d_11">
      <g>
       <use xlink:href="#mdb76e4cffb" x="292.37777" y="301.032" style="stroke: #000000; stroke-width: 0.8"/>
      </g>
     </g>
    </g>
    <g id="xtick_12">
     <g id="line2d_12">
      <g>
       <use xlink:href="#mdb76e4cffb" x="314.851879" y="301.032" style="stroke: #000000; stroke-width: 0.8"/>
      </g>
     </g>
    </g>
    <g id="xtick_13">
     <g id="line2d_13">
      <g>
       <use xlink:href="#mdb76e4cffb" x="337.325987" y="301.032" style="stroke: #000000; stroke-width: 0.8"/>
      </g>
     </g>
    </g>
    <g id="xtick_14">
     <g id="line2d_14">
      <g>
       <use xlink:href="#mdb76e4cffb" x="359.800095" y="301.032" style="stroke: #000000; stroke-width: 0.8"/>
      </g>
     </g>
    </g>
    <g id="xtick_15">
     <g id="line2d_15">
      <g>
       <use xlink:href="#mdb76e4cffb" x="382.274203" y="301.032" style="stroke: #000000; stroke-width: 0.8"/>
      </g>
     </g>
    </g>
    <g id="xtick_16">
     <g id="line2d_16">
      <g>
       <use xlink:href="#mdb76e4cffb" x="404.748311" y="301.032" style="stroke: #000000; stroke-width: 0.8"/>
      </g>
     </g>
    </g>
   </g>
   <g id="matplotlib.axis_2">
    <g id="ytick_1">
     <g id="line2d_17">
      <defs>
       <path id="m0d851c0542" d="M 0 0 
L -3.5 0 
" style="stroke: #000000; stroke-width: 0.8"/>
      </defs>
      <g>
       <use xlink:href="#m0d851c0542" x="40.8925" y="301.032" style="stroke: #000000; stroke-width: 0.8"/>
      </g>
     </g>
     <g id="text_1">
      <!-- 0 -->
      <g transform="translate(20.54625 309.621375) scale(0.24 -0.24)">
       <defs>
        <path id="ArialMT-30" d="M 266 2259 
Q 266 3072 433 3567 
Q 600 4063 929 4331 
Q 1259 4600 1759 4600 
Q 2128 4600 2406 4451 
Q 2684 4303 2865 4023 
Q 3047 3744 3150 3342 
Q 3253 2941 3253 2259 
Q 3253 1453 3087 958 
Q 2922 463 2592 192 
Q 2263 -78 1759 -78 
Q 1097 -78 719 397 
Q 266 969 266 2259 
z
M 844 2259 
Q 844 1131 1108 757 
Q 1372 384 1759 384 
Q 2147 384 2411 759 
Q 2675 1134 2675 2259 
Q 2675 3391 2411 3762 
Q 2147 4134 1753 4134 
Q 1366 4134 1134 3806 
Q 844 3388 844 2259 
z
" transform="scale(0.015625)"/>
       </defs>
       <use xlink:href="#ArialMT-30"/>
      </g>
     </g>
    </g>
    <g id="ytick_2">
     <g id="line2d_18">
      <g>
       <use xlink:href="#m0d851c0542" x="40.8925" y="236.835099" style="stroke: #000000; stroke-width: 0.8"/>
      </g>
     </g>
     <g id="text_2">
      <!-- 10 -->
      <g transform="translate(7.2 245.424474) scale(0.24 -0.24)">
       <defs>
        <path id="ArialMT-31" d="M 2384 0 
L 1822 0 
L 1822 3584 
Q 1619 3391 1289 3197 
Q 959 3003 697 2906 
L 697 3450 
Q 1169 3672 1522 3987 
Q 1875 4303 2022 4600 
L 2384 4600 
L 2384 0 
z
" transform="scale(0.015625)"/>
       </defs>
       <use xlink:href="#ArialMT-31"/>
       <use xlink:href="#ArialMT-30" transform="translate(55.615234 0)"/>
      </g>
     </g>
    </g>
    <g id="ytick_3">
     <g id="line2d_19">
      <g>
       <use xlink:href="#m0d851c0542" x="40.8925" y="172.638197" style="stroke: #000000; stroke-width: 0.8"/>
      </g>
     </g>
     <g id="text_3">
      <!-- 20 -->
      <g transform="translate(7.2 181.227572) scale(0.24 -0.24)">
       <defs>
        <path id="ArialMT-32" d="M 3222 541 
L 3222 0 
L 194 0 
Q 188 203 259 391 
Q 375 700 629 1000 
Q 884 1300 1366 1694 
Q 2113 2306 2375 2664 
Q 2638 3022 2638 3341 
Q 2638 3675 2398 3904 
Q 2159 4134 1775 4134 
Q 1369 4134 1125 3890 
Q 881 3647 878 3216 
L 300 3275 
Q 359 3922 746 4261 
Q 1134 4600 1788 4600 
Q 2447 4600 2831 4234 
Q 3216 3869 3216 3328 
Q 3216 3053 3103 2787 
Q 2991 2522 2730 2228 
Q 2469 1934 1863 1422 
Q 1356 997 1212 845 
Q 1069 694 975 541 
L 3222 541 
z
" transform="scale(0.015625)"/>
       </defs>
       <use xlink:href="#ArialMT-32"/>
       <use xlink:href="#ArialMT-30" transform="translate(55.615234 0)"/>
      </g>
     </g>
    </g>
    <g id="ytick_4">
     <g id="line2d_20">
      <g>
       <use xlink:href="#m0d851c0542" x="40.8925" y="108.441296" style="stroke: #000000; stroke-width: 0.8"/>
      </g>
     </g>
     <g id="text_4">
      <!-- 30 -->
      <g transform="translate(7.2 117.030671) scale(0.24 -0.24)">
       <defs>
        <path id="ArialMT-33" d="M 269 1209 
L 831 1284 
Q 928 806 1161 595 
Q 1394 384 1728 384 
Q 2125 384 2398 659 
Q 2672 934 2672 1341 
Q 2672 1728 2419 1979 
Q 2166 2231 1775 2231 
Q 1616 2231 1378 2169 
L 1441 2663 
Q 1497 2656 1531 2656 
Q 1891 2656 2178 2843 
Q 2466 3031 2466 3422 
Q 2466 3731 2256 3934 
Q 2047 4138 1716 4138 
Q 1388 4138 1169 3931 
Q 950 3725 888 3313 
L 325 3413 
Q 428 3978 793 4289 
Q 1159 4600 1703 4600 
Q 2078 4600 2393 4439 
Q 2709 4278 2876 4000 
Q 3044 3722 3044 3409 
Q 3044 3113 2884 2869 
Q 2725 2625 2413 2481 
Q 2819 2388 3044 2092 
Q 3269 1797 3269 1353 
Q 3269 753 2831 336 
Q 2394 -81 1725 -81 
Q 1122 -81 723 278 
Q 325 638 269 1209 
z
" transform="scale(0.015625)"/>
       </defs>
       <use xlink:href="#ArialMT-33"/>
       <use xlink:href="#ArialMT-30" transform="translate(55.615234 0)"/>
      </g>
     </g>
    </g>
    <g id="ytick_5">
     <g id="line2d_21">
      <g>
       <use xlink:href="#m0d851c0542" x="40.8925" y="44.244395" style="stroke: #000000; stroke-width: 0.8"/>
      </g>
     </g>
     <g id="text_5">
      <!-- 40 -->
      <g transform="translate(7.2 52.83377) scale(0.24 -0.24)">
       <defs>
        <path id="ArialMT-34" d="M 2069 0 
L 2069 1097 
L 81 1097 
L 81 1613 
L 2172 4581 
L 2631 4581 
L 2631 1613 
L 3250 1613 
L 3250 1097 
L 2631 1097 
L 2631 0 
L 2069 0 
z
M 2069 1613 
L 2069 3678 
L 634 1613 
L 2069 1613 
z
" transform="scale(0.015625)"/>
       </defs>
       <use xlink:href="#ArialMT-34"/>
       <use xlink:href="#ArialMT-30" transform="translate(55.615234 0)"/>
      </g>
     </g>
    </g>
   </g>
   <g id="LineCollection_1">
    <path d="M 67.636689 300.803796 
L 67.636689 296.171932 
" clip-path="url(#p97dd1458b8)" style="fill: none; stroke: #000000; stroke-width: 1.5"/>
    <path d="M 90.110797 298.941031 
L 90.110797 289.156106 
" clip-path="url(#p97dd1458b8)" style="fill: none; stroke: #000000; stroke-width: 1.5"/>
    <path d="M 112.584905 147.159684 
L 112.584905 145.714734 
" clip-path="url(#p97dd1458b8)" style="fill: none; stroke: #000000; stroke-width: 1.5"/>
    <path d="M 135.059013 97.714928 
L 135.059013 96.0685 
" clip-path="url(#p97dd1458b8)" style="fill: none; stroke: #000000; stroke-width: 1.5"/>
    <path d="M 157.533121 300.838955 
L 157.533121 294.987241 
" clip-path="url(#p97dd1458b8)" style="fill: none; stroke: #000000; stroke-width: 1.5"/>
    <path d="M 180.00723 298.614856 
L 180.00723 289.415957 
" clip-path="url(#p97dd1458b8)" style="fill: none; stroke: #000000; stroke-width: 1.5"/>
    <path d="M 202.481338 139.479752 
L 202.481338 138.448526 
" clip-path="url(#p97dd1458b8)" style="fill: none; stroke: #000000; stroke-width: 1.5"/>
    <path d="M 224.955446 24.107754 
L 224.955446 21.192 
" clip-path="url(#p97dd1458b8)" style="fill: none; stroke: #000000; stroke-width: 1.5"/>
    <path d="M 247.429554 301.001654 
L 247.429554 292.696359 
" clip-path="url(#p97dd1458b8)" style="fill: none; stroke: #000000; stroke-width: 1.5"/>
    <path d="M 269.903662 300.690203 
L 269.903662 288.287493 
" clip-path="url(#p97dd1458b8)" style="fill: none; stroke: #000000; stroke-width: 1.5"/>
    <path d="M 292.37777 239.050554 
L 292.37777 236.616564 
" clip-path="url(#p97dd1458b8)" style="fill: none; stroke: #000000; stroke-width: 1.5"/>
    <path d="M 314.851879 200.463944 
L 314.851879 197.994157 
" clip-path="url(#p97dd1458b8)" style="fill: none; stroke: #000000; stroke-width: 1.5"/>
    <path d="M 337.325987 301.005285 
L 337.325987 298.378709 
" clip-path="url(#p97dd1458b8)" style="fill: none; stroke: #000000; stroke-width: 1.5"/>
    <path d="M 359.800095 300.818617 
L 359.800095 289.416843 
" clip-path="url(#p97dd1458b8)" style="fill: none; stroke: #000000; stroke-width: 1.5"/>
    <path d="M 382.274203 244.919484 
L 382.274203 242.638527 
" clip-path="url(#p97dd1458b8)" style="fill: none; stroke: #000000; stroke-width: 1.5"/>
    <path d="M 404.748311 192.741624 
L 404.748311 191.203783 
" clip-path="url(#p97dd1458b8)" style="fill: none; stroke: #000000; stroke-width: 1.5"/>
   </g>
   <g id="patch_19">
    <path d="M 40.8925 301.032 
L 40.8925 7.2 
" style="fill: none; stroke: #000000; stroke-width: 0.8; stroke-linejoin: miter; stroke-linecap: square"/>
   </g>
   <g id="patch_20">
    <path d="M 431.4925 301.032 
L 431.4925 7.2 
" style="fill: none"/>
   </g>
   <g id="patch_21">
    <path d="M 40.8925 301.032 
L 431.4925 301.032 
" style="fill: none; stroke: #000000; stroke-width: 0.8; stroke-linejoin: miter; stroke-linecap: square"/>
   </g>
   <g id="patch_22">
    <path d="M 40.8925 7.2 
L 431.4925 7.2 
" style="fill: none"/>
   </g>
  </g>
 </g>
 <defs>
  <clipPath id="p97dd1458b8">
   <rect x="40.8925" y="7.2" width="390.6" height="293.832"/>
  </clipPath>
 </defs>
</svg>
