<?xml version="1.0" encoding="utf-8" standalone="no"?>
<!DOCTYPE svg PUBLIC "-//W3C//DTD SVG 1.1//EN"
  "http://www.w3.org/Graphics/SVG/1.1/DTD/svg11.dtd">
<svg xmlns:xlink="http://www.w3.org/1999/xlink" width="484.93625pt" height="363.1295pt" viewBox="0 0 484.93625 363.1295" xmlns="http://www.w3.org/2000/svg" version="1.1">
 <metadata>
  <rdf:RDF xmlns:dc="http://purl.org/dc/elements/1.1/" xmlns:cc="http://creativecommons.org/ns#" xmlns:rdf="http://www.w3.org/1999/02/22-rdf-syntax-ns#">
   <cc:Work>
    <dc:type rdf:resource="http://purl.org/dc/dcmitype/StillImage"/>
    <dc:date>2025-12-22T14:42:27.357045</dc:date>
    <dc:format>image/svg+xml</dc:format>
    <dc:creator>
     <cc:Agent>
      <dc:title>Matplotlib v3.10.7, https://matplotlib.org/</dc:title>
     </cc:Agent>
    </dc:creator>
   </cc:Work>
  </rdf:RDF>
 </metadata>
 <defs>
  <style type="text/css">*{stroke-linejoin: round; stroke-linecap: butt}</style>
 </defs>
 <g id="figure_1">
  <g id="patch_1">
   <path d="M 0 363.1295 
L 484.93625 363.1295 
L 484.93625 0 
L 0 0 
L 0 363.1295 
z
" style="fill: none"/>
  </g>
  <g id="axes_1">
   <g id="patch_2">
    <path d="M 87.13625 301.032 
L 477.73625 301.032 
L 477.73625 7.2 
L 87.13625 7.2 
L 87.13625 301.032 
z
" style="fill: none"/>
   </g>
   <g id="matplotlib.axis_1">
    <g id="xtick_1">
     <g id="line2d_1">
      <defs>
       <path id="m1ba6af2169" d="M 0 0 
L 0 3.5 
" style="stroke: #000000; stroke-width: 0.8"/>
      </defs>
      <g>
       <use xlink:href="#m1ba6af2169" x="104.890795" y="301.032" style="stroke: #000000; stroke-width: 0.8"/>
      </g>
     </g>
     <g id="text_1">
      <!-- 0 -->
      <g transform="translate(98.21767 325.21075) scale(0.24 -0.24)">
       <defs>
        <path id="ArialMT-30" d="M 266 2259 
Q 266 3072 433 3567 
Q 600 4063 929 4331 
Q 1259 4600 1759 4600 
Q 2128 4600 2406 4451 
Q 2684 4303 2865 4023 
Q 3047 3744 3150 3342 
Q 3253 2941 3253 2259 
Q 3253 1453 3087 958 
Q 2922 463 2592 192 
Q 2263 -78 1759 -78 
Q 1097 -78 719 397 
Q 266 969 266 2259 
z
M 844 2259 
Q 844 1131 1108 757 
Q 1372 384 1759 384 
Q 2147 384 2411 759 
Q 2675 1134 2675 2259 
Q 2675 3391 2411 3762 
Q 2147 4134 1753 4134 
Q 1366 4134 1134 3806 
Q 844 3388 844 2259 
z
" transform="scale(0.015625)"/>
       </defs>
       <use xlink:href="#ArialMT-30"/>
      </g>
     </g>
    </g>
    <g id="xtick_2">
     <g id="line2d_2">
      <g>
       <use xlink:href="#m1ba6af2169" x="190.111569" y="301.032" style="stroke: #000000; stroke-width: 0.8"/>
      </g>
     </g>
     <g id="text_2">
      <!-- 20 -->
      <g transform="translate(176.765319 325.21075) scale(0.24 -0.24)">
       <defs>
        <path id="ArialMT-32" d="M 3222 541 
L 3222 0 
L 194 0 
Q 188 203 259 391 
Q 375 700 629 1000 
Q 884 1300 1366 1694 
Q 2113 2306 2375 2664 
Q 2638 3022 2638 3341 
Q 2638 3675 2398 3904 
Q 2159 4134 1775 4134 
Q 1369 4134 1125 3890 
Q 881 3647 878 3216 
L 300 3275 
Q 359 3922 746 4261 
Q 1134 4600 1788 4600 
Q 2447 4600 2831 4234 
Q 3216 3869 3216 3328 
Q 3216 3053 3103 2787 
Q 2991 2522 2730 2228 
Q 2469 1934 1863 1422 
Q 1356 997 1212 845 
Q 1069 694 975 541 
L 3222 541 
z
" transform="scale(0.015625)"/>
       </defs>
       <use xlink:href="#ArialMT-32"/>
       <use xlink:href="#ArialMT-30" transform="translate(55.615234 0)"/>
      </g>
     </g>
    </g>
    <g id="xtick_3">
     <g id="line2d_3">
      <g>
       <use xlink:href="#m1ba6af2169" x="275.332342" y="301.032" style="stroke: #000000; stroke-width: 0.8"/>
      </g>
     </g>
     <g id="text_3">
      <!-- 40 -->
      <g transform="translate(261.986092 325.21075) scale(0.24 -0.24)">
       <defs>
        <path id="ArialMT-34" d="M 2069 0 
L 2069 1097 
L 81 1097 
L 81 1613 
L 2172 4581 
L 2631 4581 
L 2631 1613 
L 3250 1613 
L 3250 1097 
L 2631 1097 
L 2631 0 
L 2069 0 
z
M 2069 1613 
L 2069 3678 
L 634 1613 
L 2069 1613 
z
" transform="scale(0.015625)"/>
       </defs>
       <use xlink:href="#ArialMT-34"/>
       <use xlink:href="#ArialMT-30" transform="translate(55.615234 0)"/>
      </g>
     </g>
    </g>
    <g id="xtick_4">
     <g id="line2d_4">
      <g>
       <use xlink:href="#m1ba6af2169" x="360.553115" y="301.032" style="stroke: #000000; stroke-width: 0.8"/>
      </g>
     </g>
     <g id="text_4">
      <!-- 60 -->
      <g transform="translate(347.206865 325.21075) scale(0.24 -0.24)">
       <defs>
        <path id="ArialMT-36" d="M 3184 3459 
L 2625 3416 
Q 2550 3747 2413 3897 
Q 2184 4138 1850 4138 
Q 1581 4138 1378 3988 
Q 1113 3794 959 3422 
Q 806 3050 800 2363 
Q 1003 2672 1297 2822 
Q 1591 2972 1913 2972 
Q 2475 2972 2870 2558 
Q 3266 2144 3266 1488 
Q 3266 1056 3080 686 
Q 2894 316 2569 119 
Q 2244 -78 1831 -78 
Q 1128 -78 684 439 
Q 241 956 241 2144 
Q 241 3472 731 4075 
Q 1159 4600 1884 4600 
Q 2425 4600 2770 4297 
Q 3116 3994 3184 3459 
z
M 888 1484 
Q 888 1194 1011 928 
Q 1134 663 1356 523 
Q 1578 384 1822 384 
Q 2178 384 2434 671 
Q 2691 959 2691 1453 
Q 2691 1928 2437 2201 
Q 2184 2475 1800 2475 
Q 1419 2475 1153 2201 
Q 888 1928 888 1484 
z
" transform="scale(0.015625)"/>
       </defs>
       <use xlink:href="#ArialMT-36"/>
       <use xlink:href="#ArialMT-30" transform="translate(55.615234 0)"/>
      </g>
     </g>
    </g>
    <g id="xtick_5">
     <g id="line2d_5">
      <g>
       <use xlink:href="#m1ba6af2169" x="445.773888" y="301.032" style="stroke: #000000; stroke-width: 0.8"/>
      </g>
     </g>
     <g id="text_5">
      <!-- 80 -->
      <g transform="translate(432.427638 325.21075) scale(0.24 -0.24)">
       <defs>
        <path id="ArialMT-38" d="M 1131 2484 
Q 781 2613 612 2850 
Q 444 3088 444 3419 
Q 444 3919 803 4259 
Q 1163 4600 1759 4600 
Q 2359 4600 2725 4251 
Q 3091 3903 3091 3403 
Q 3091 3084 2923 2848 
Q 2756 2613 2416 2484 
Q 2838 2347 3058 2040 
Q 3278 1734 3278 1309 
Q 3278 722 2862 322 
Q 2447 -78 1769 -78 
Q 1091 -78 675 323 
Q 259 725 259 1325 
Q 259 1772 486 2073 
Q 713 2375 1131 2484 
z
M 1019 3438 
Q 1019 3113 1228 2906 
Q 1438 2700 1772 2700 
Q 2097 2700 2305 2904 
Q 2513 3109 2513 3406 
Q 2513 3716 2298 3927 
Q 2084 4138 1766 4138 
Q 1444 4138 1231 3931 
Q 1019 3725 1019 3438 
z
M 838 1322 
Q 838 1081 952 856 
Q 1066 631 1291 507 
Q 1516 384 1775 384 
Q 2178 384 2440 643 
Q 2703 903 2703 1303 
Q 2703 1709 2433 1975 
Q 2163 2241 1756 2241 
Q 1359 2241 1098 1978 
Q 838 1716 838 1322 
z
" transform="scale(0.015625)"/>
       </defs>
       <use xlink:href="#ArialMT-38"/>
       <use xlink:href="#ArialMT-30" transform="translate(55.615234 0)"/>
      </g>
     </g>
    </g>
    <g id="text_6">
     <!-- Distance from center -->
     <g transform="translate(171.73625 351.1595) scale(0.24 -0.24)">
      <defs>
       <path id="ArialMT-44" d="M 494 0 
L 494 4581 
L 2072 4581 
Q 2606 4581 2888 4516 
Q 3281 4425 3559 4188 
Q 3922 3881 4101 3404 
Q 4281 2928 4281 2316 
Q 4281 1794 4159 1391 
Q 4038 988 3847 723 
Q 3656 459 3429 307 
Q 3203 156 2883 78 
Q 2563 0 2147 0 
L 494 0 
z
M 1100 541 
L 2078 541 
Q 2531 541 2789 625 
Q 3047 709 3200 863 
Q 3416 1078 3536 1442 
Q 3656 1806 3656 2325 
Q 3656 3044 3420 3430 
Q 3184 3816 2847 3947 
Q 2603 4041 2063 4041 
L 1100 4041 
L 1100 541 
z
" transform="scale(0.015625)"/>
       <path id="ArialMT-69" d="M 425 3934 
L 425 4581 
L 988 4581 
L 988 3934 
L 425 3934 
z
M 425 0 
L 425 3319 
L 988 3319 
L 988 0 
L 425 0 
z
" transform="scale(0.015625)"/>
       <path id="ArialMT-73" d="M 197 991 
L 753 1078 
Q 800 744 1014 566 
Q 1228 388 1613 388 
Q 2000 388 2187 545 
Q 2375 703 2375 916 
Q 2375 1106 2209 1216 
Q 2094 1291 1634 1406 
Q 1016 1563 777 1677 
Q 538 1791 414 1992 
Q 291 2194 291 2438 
Q 291 2659 392 2848 
Q 494 3038 669 3163 
Q 800 3259 1026 3326 
Q 1253 3394 1513 3394 
Q 1903 3394 2198 3281 
Q 2494 3169 2634 2976 
Q 2775 2784 2828 2463 
L 2278 2388 
Q 2241 2644 2061 2787 
Q 1881 2931 1553 2931 
Q 1166 2931 1000 2803 
Q 834 2675 834 2503 
Q 834 2394 903 2306 
Q 972 2216 1119 2156 
Q 1203 2125 1616 2013 
Q 2213 1853 2448 1751 
Q 2684 1650 2818 1456 
Q 2953 1263 2953 975 
Q 2953 694 2789 445 
Q 2625 197 2315 61 
Q 2006 -75 1616 -75 
Q 969 -75 630 194 
Q 291 463 197 991 
z
" transform="scale(0.015625)"/>
       <path id="ArialMT-74" d="M 1650 503 
L 1731 6 
Q 1494 -44 1306 -44 
Q 1000 -44 831 53 
Q 663 150 594 308 
Q 525 466 525 972 
L 525 2881 
L 113 2881 
L 113 3319 
L 525 3319 
L 525 4141 
L 1084 4478 
L 1084 3319 
L 1650 3319 
L 1650 2881 
L 1084 2881 
L 1084 941 
Q 1084 700 1114 631 
Q 1144 563 1211 522 
Q 1278 481 1403 481 
Q 1497 481 1650 503 
z
" transform="scale(0.015625)"/>
       <path id="ArialMT-61" d="M 2588 409 
Q 2275 144 1986 34 
Q 1697 -75 1366 -75 
Q 819 -75 525 192 
Q 231 459 231 875 
Q 231 1119 342 1320 
Q 453 1522 633 1644 
Q 813 1766 1038 1828 
Q 1203 1872 1538 1913 
Q 2219 1994 2541 2106 
Q 2544 2222 2544 2253 
Q 2544 2597 2384 2738 
Q 2169 2928 1744 2928 
Q 1347 2928 1158 2789 
Q 969 2650 878 2297 
L 328 2372 
Q 403 2725 575 2942 
Q 747 3159 1072 3276 
Q 1397 3394 1825 3394 
Q 2250 3394 2515 3294 
Q 2781 3194 2906 3042 
Q 3031 2891 3081 2659 
Q 3109 2516 3109 2141 
L 3109 1391 
Q 3109 606 3145 398 
Q 3181 191 3288 0 
L 2700 0 
Q 2613 175 2588 409 
z
M 2541 1666 
Q 2234 1541 1622 1453 
Q 1275 1403 1131 1340 
Q 988 1278 909 1158 
Q 831 1038 831 891 
Q 831 666 1001 516 
Q 1172 366 1500 366 
Q 1825 366 2078 508 
Q 2331 650 2450 897 
Q 2541 1088 2541 1459 
L 2541 1666 
z
" transform="scale(0.015625)"/>
       <path id="ArialMT-6e" d="M 422 0 
L 422 3319 
L 928 3319 
L 928 2847 
Q 1294 3394 1984 3394 
Q 2284 3394 2536 3286 
Q 2788 3178 2913 3003 
Q 3038 2828 3088 2588 
Q 3119 2431 3119 2041 
L 3119 0 
L 2556 0 
L 2556 2019 
Q 2556 2363 2490 2533 
Q 2425 2703 2258 2804 
Q 2091 2906 1866 2906 
Q 1506 2906 1245 2678 
Q 984 2450 984 1813 
L 984 0 
L 422 0 
z
" transform="scale(0.015625)"/>
       <path id="ArialMT-63" d="M 2588 1216 
L 3141 1144 
Q 3050 572 2676 248 
Q 2303 -75 1759 -75 
Q 1078 -75 664 370 
Q 250 816 250 1647 
Q 250 2184 428 2587 
Q 606 2991 970 3192 
Q 1334 3394 1763 3394 
Q 2303 3394 2647 3120 
Q 2991 2847 3088 2344 
L 2541 2259 
Q 2463 2594 2264 2762 
Q 2066 2931 1784 2931 
Q 1359 2931 1093 2626 
Q 828 2322 828 1663 
Q 828 994 1084 691 
Q 1341 388 1753 388 
Q 2084 388 2306 591 
Q 2528 794 2588 1216 
z
" transform="scale(0.015625)"/>
       <path id="ArialMT-65" d="M 2694 1069 
L 3275 997 
Q 3138 488 2766 206 
Q 2394 -75 1816 -75 
Q 1088 -75 661 373 
Q 234 822 234 1631 
Q 234 2469 665 2931 
Q 1097 3394 1784 3394 
Q 2450 3394 2872 2941 
Q 3294 2488 3294 1666 
Q 3294 1616 3291 1516 
L 816 1516 
Q 847 969 1125 678 
Q 1403 388 1819 388 
Q 2128 388 2347 550 
Q 2566 713 2694 1069 
z
M 847 1978 
L 2700 1978 
Q 2663 2397 2488 2606 
Q 2219 2931 1791 2931 
Q 1403 2931 1139 2672 
Q 875 2413 847 1978 
z
" transform="scale(0.015625)"/>
       <path id="ArialMT-20" transform="scale(0.015625)"/>
       <path id="ArialMT-66" d="M 556 0 
L 556 2881 
L 59 2881 
L 59 3319 
L 556 3319 
L 556 3672 
Q 556 4006 616 4169 
Q 697 4388 901 4523 
Q 1106 4659 1475 4659 
Q 1713 4659 2000 4603 
L 1916 4113 
Q 1741 4144 1584 4144 
Q 1328 4144 1222 4034 
Q 1116 3925 1116 3625 
L 1116 3319 
L 1763 3319 
L 1763 2881 
L 1116 2881 
L 1116 0 
L 556 0 
z
" transform="scale(0.015625)"/>
       <path id="ArialMT-72" d="M 416 0 
L 416 3319 
L 922 3319 
L 922 2816 
Q 1116 3169 1280 3281 
Q 1444 3394 1641 3394 
Q 1925 3394 2219 3213 
L 2025 2691 
Q 1819 2813 1613 2813 
Q 1428 2813 1281 2702 
Q 1134 2591 1072 2394 
Q 978 2094 978 1738 
L 978 0 
L 416 0 
z
" transform="scale(0.015625)"/>
       <path id="ArialMT-6f" d="M 213 1659 
Q 213 2581 725 3025 
Q 1153 3394 1769 3394 
Q 2453 3394 2887 2945 
Q 3322 2497 3322 1706 
Q 3322 1066 3130 698 
Q 2938 331 2570 128 
Q 2203 -75 1769 -75 
Q 1072 -75 642 372 
Q 213 819 213 1659 
z
M 791 1659 
Q 791 1022 1069 705 
Q 1347 388 1769 388 
Q 2188 388 2466 706 
Q 2744 1025 2744 1678 
Q 2744 2294 2464 2611 
Q 2184 2928 1769 2928 
Q 1347 2928 1069 2612 
Q 791 2297 791 1659 
z
" transform="scale(0.015625)"/>
       <path id="ArialMT-6d" d="M 422 0 
L 422 3319 
L 925 3319 
L 925 2853 
Q 1081 3097 1340 3245 
Q 1600 3394 1931 3394 
Q 2300 3394 2536 3241 
Q 2772 3088 2869 2813 
Q 3263 3394 3894 3394 
Q 4388 3394 4653 3120 
Q 4919 2847 4919 2278 
L 4919 0 
L 4359 0 
L 4359 2091 
Q 4359 2428 4304 2576 
Q 4250 2725 4106 2815 
Q 3963 2906 3769 2906 
Q 3419 2906 3187 2673 
Q 2956 2441 2956 1928 
L 2956 0 
L 2394 0 
L 2394 2156 
Q 2394 2531 2256 2718 
Q 2119 2906 1806 2906 
Q 1569 2906 1367 2781 
Q 1166 2656 1075 2415 
Q 984 2175 984 1722 
L 984 0 
L 422 0 
z
" transform="scale(0.015625)"/>
      </defs>
      <use xlink:href="#ArialMT-44"/>
      <use xlink:href="#ArialMT-69" transform="translate(72.216797 0)"/>
      <use xlink:href="#ArialMT-73" transform="translate(94.433594 0)"/>
      <use xlink:href="#ArialMT-74" transform="translate(144.433594 0)"/>
      <use xlink:href="#ArialMT-61" transform="translate(172.216797 0)"/>
      <use xlink:href="#ArialMT-6e" transform="translate(227.832031 0)"/>
      <use xlink:href="#ArialMT-63" transform="translate(283.447266 0)"/>
      <use xlink:href="#ArialMT-65" transform="translate(333.447266 0)"/>
      <use xlink:href="#ArialMT-20" transform="translate(389.0625 0)"/>
      <use xlink:href="#ArialMT-66" transform="translate(416.845703 0)"/>
      <use xlink:href="#ArialMT-72" transform="translate(444.628906 0)"/>
      <use xlink:href="#ArialMT-6f" transform="translate(477.929688 0)"/>
      <use xlink:href="#ArialMT-6d" transform="translate(533.544922 0)"/>
      <use xlink:href="#ArialMT-20" transform="translate(616.845703 0)"/>
      <use xlink:href="#ArialMT-63" transform="translate(644.628906 0)"/>
      <use xlink:href="#ArialMT-65" transform="translate(694.628906 0)"/>
      <use xlink:href="#ArialMT-6e" transform="translate(750.244141 0)"/>
      <use xlink:href="#ArialMT-74" transform="translate(805.859375 0)"/>
      <use xlink:href="#ArialMT-65" transform="translate(833.642578 0)"/>
      <use xlink:href="#ArialMT-72" transform="translate(889.257812 0)"/>
     </g>
    </g>
   </g>
   <g id="matplotlib.axis_2">
    <g id="ytick_1">
     <g id="line2d_6">
      <defs>
       <path id="m65c8fa2a42" d="M 0 0 
L -3.5 0 
" style="stroke: #000000; stroke-width: 0.8"/>
      </defs>
      <g>
       <use xlink:href="#m65c8fa2a42" x="87.13625" y="258.41902" style="stroke: #000000; stroke-width: 0.8"/>
      </g>
     </g>
     <g id="text_7">
      <!-- 0.02 -->
      <g transform="translate(33.43 267.008395) scale(0.24 -0.24)">
       <defs>
        <path id="ArialMT-2e" d="M 581 0 
L 581 641 
L 1222 641 
L 1222 0 
L 581 0 
z
" transform="scale(0.015625)"/>
       </defs>
       <use xlink:href="#ArialMT-30"/>
       <use xlink:href="#ArialMT-2e" transform="translate(55.615234 0)"/>
       <use xlink:href="#ArialMT-30" transform="translate(83.398438 0)"/>
       <use xlink:href="#ArialMT-32" transform="translate(139.013672 0)"/>
      </g>
     </g>
    </g>
    <g id="ytick_2">
     <g id="line2d_7">
      <g>
       <use xlink:href="#m65c8fa2a42" x="87.13625" y="206.254528" style="stroke: #000000; stroke-width: 0.8"/>
      </g>
     </g>
     <g id="text_8">
      <!-- 0.04 -->
      <g transform="translate(33.43 214.843903) scale(0.24 -0.24)">
       <use xlink:href="#ArialMT-30"/>
       <use xlink:href="#ArialMT-2e" transform="translate(55.615234 0)"/>
       <use xlink:href="#ArialMT-30" transform="translate(83.398438 0)"/>
       <use xlink:href="#ArialMT-34" transform="translate(139.013672 0)"/>
      </g>
     </g>
    </g>
    <g id="ytick_3">
     <g id="line2d_8">
      <g>
       <use xlink:href="#m65c8fa2a42" x="87.13625" y="154.090036" style="stroke: #000000; stroke-width: 0.8"/>
      </g>
     </g>
     <g id="text_9">
      <!-- 0.06 -->
      <g transform="translate(33.43 162.679411) scale(0.24 -0.24)">
       <use xlink:href="#ArialMT-30"/>
       <use xlink:href="#ArialMT-2e" transform="translate(55.615234 0)"/>
       <use xlink:href="#ArialMT-30" transform="translate(83.398438 0)"/>
       <use xlink:href="#ArialMT-36" transform="translate(139.013672 0)"/>
      </g>
     </g>
    </g>
    <g id="ytick_4">
     <g id="line2d_9">
      <g>
       <use xlink:href="#m65c8fa2a42" x="87.13625" y="101.925544" style="stroke: #000000; stroke-width: 0.8"/>
      </g>
     </g>
     <g id="text_10">
      <!-- 0.08 -->
      <g transform="translate(33.43 110.514919) scale(0.24 -0.24)">
       <use xlink:href="#ArialMT-30"/>
       <use xlink:href="#ArialMT-2e" transform="translate(55.615234 0)"/>
       <use xlink:href="#ArialMT-30" transform="translate(83.398438 0)"/>
       <use xlink:href="#ArialMT-38" transform="translate(139.013672 0)"/>
      </g>
     </g>
    </g>
    <g id="ytick_5">
     <g id="line2d_10">
      <g>
       <use xlink:href="#m65c8fa2a42" x="87.13625" y="49.761052" style="stroke: #000000; stroke-width: 0.8"/>
      </g>
     </g>
     <g id="text_11">
      <!-- 0.10 -->
      <g transform="translate(33.43 58.350427) scale(0.24 -0.24)">
       <defs>
        <path id="ArialMT-31" d="M 2384 0 
L 1822 0 
L 1822 3584 
Q 1619 3391 1289 3197 
Q 959 3003 697 2906 
L 697 3450 
Q 1169 3672 1522 3987 
Q 1875 4303 2022 4600 
L 2384 4600 
L 2384 0 
z
" transform="scale(0.015625)"/>
       </defs>
       <use xlink:href="#ArialMT-30"/>
       <use xlink:href="#ArialMT-2e" transform="translate(55.615234 0)"/>
       <use xlink:href="#ArialMT-31" transform="translate(83.398438 0)"/>
       <use xlink:href="#ArialMT-30" transform="translate(139.013672 0)"/>
      </g>
     </g>
    </g>
    <g id="text_12">
     <!-- Mean Magnitude -->
     <g transform="translate(24.37875 243.499125) rotate(-90) scale(0.24 -0.24)">
      <defs>
       <path id="ArialMT-4d" d="M 475 0 
L 475 4581 
L 1388 4581 
L 2472 1338 
Q 2622 884 2691 659 
Q 2769 909 2934 1394 
L 4031 4581 
L 4847 4581 
L 4847 0 
L 4263 0 
L 4263 3834 
L 2931 0 
L 2384 0 
L 1059 3900 
L 1059 0 
L 475 0 
z
" transform="scale(0.015625)"/>
       <path id="ArialMT-67" d="M 319 -275 
L 866 -356 
Q 900 -609 1056 -725 
Q 1266 -881 1628 -881 
Q 2019 -881 2231 -725 
Q 2444 -569 2519 -288 
Q 2563 -116 2559 434 
Q 2191 0 1641 0 
Q 956 0 581 494 
Q 206 988 206 1678 
Q 206 2153 378 2554 
Q 550 2956 876 3175 
Q 1203 3394 1644 3394 
Q 2231 3394 2613 2919 
L 2613 3319 
L 3131 3319 
L 3131 450 
Q 3131 -325 2973 -648 
Q 2816 -972 2473 -1159 
Q 2131 -1347 1631 -1347 
Q 1038 -1347 672 -1080 
Q 306 -813 319 -275 
z
M 784 1719 
Q 784 1066 1043 766 
Q 1303 466 1694 466 
Q 2081 466 2343 764 
Q 2606 1063 2606 1700 
Q 2606 2309 2336 2618 
Q 2066 2928 1684 2928 
Q 1309 2928 1046 2623 
Q 784 2319 784 1719 
z
" transform="scale(0.015625)"/>
       <path id="ArialMT-75" d="M 2597 0 
L 2597 488 
Q 2209 -75 1544 -75 
Q 1250 -75 995 37 
Q 741 150 617 320 
Q 494 491 444 738 
Q 409 903 409 1263 
L 409 3319 
L 972 3319 
L 972 1478 
Q 972 1038 1006 884 
Q 1059 663 1231 536 
Q 1403 409 1656 409 
Q 1909 409 2131 539 
Q 2353 669 2445 892 
Q 2538 1116 2538 1541 
L 2538 3319 
L 3100 3319 
L 3100 0 
L 2597 0 
z
" transform="scale(0.015625)"/>
       <path id="ArialMT-64" d="M 2575 0 
L 2575 419 
Q 2259 -75 1647 -75 
Q 1250 -75 917 144 
Q 584 363 401 755 
Q 219 1147 219 1656 
Q 219 2153 384 2558 
Q 550 2963 881 3178 
Q 1213 3394 1622 3394 
Q 1922 3394 2156 3267 
Q 2391 3141 2538 2938 
L 2538 4581 
L 3097 4581 
L 3097 0 
L 2575 0 
z
M 797 1656 
Q 797 1019 1065 703 
Q 1334 388 1700 388 
Q 2069 388 2326 689 
Q 2584 991 2584 1609 
Q 2584 2291 2321 2609 
Q 2059 2928 1675 2928 
Q 1300 2928 1048 2622 
Q 797 2316 797 1656 
z
" transform="scale(0.015625)"/>
      </defs>
      <use xlink:href="#ArialMT-4d"/>
      <use xlink:href="#ArialMT-65" transform="translate(83.300781 0)"/>
      <use xlink:href="#ArialMT-61" transform="translate(138.916016 0)"/>
      <use xlink:href="#ArialMT-6e" transform="translate(194.53125 0)"/>
      <use xlink:href="#ArialMT-20" transform="translate(250.146484 0)"/>
      <use xlink:href="#ArialMT-4d" transform="translate(277.929688 0)"/>
      <use xlink:href="#ArialMT-61" transform="translate(361.230469 0)"/>
      <use xlink:href="#ArialMT-67" transform="translate(416.845703 0)"/>
      <use xlink:href="#ArialMT-6e" transform="translate(472.460938 0)"/>
      <use xlink:href="#ArialMT-69" transform="translate(528.076172 0)"/>
      <use xlink:href="#ArialMT-74" transform="translate(550.292969 0)"/>
      <use xlink:href="#ArialMT-75" transform="translate(578.076172 0)"/>
      <use xlink:href="#ArialMT-64" transform="translate(633.691406 0)"/>
      <use xlink:href="#ArialMT-65" transform="translate(689.306641 0)"/>
     </g>
    </g>
   </g>
   <g id="line2d_11">
    <path d="M 104.890795 197.116565 
L 149.277159 201.569464 
L 193.663523 149.107657 
L 238.049886 142.773697 
L 282.43625 140.892458 
L 326.822614 132.38085 
L 371.208977 132.959936 
L 415.595341 137.051406 
L 459.981705 137.597604 
" clip-path="url(#p15c8d1d1bf)" style="fill: none; stroke: #fde725; stroke-width: 1.5; stroke-linecap: square"/>
    <defs>
     <path id="m760f2e5492" d="M 0 3 
C 0.795609 3 1.55874 2.683901 2.12132 2.12132 
C 2.683901 1.55874 3 0.795609 3 0 
C 3 -0.795609 2.683901 -1.55874 2.12132 -2.12132 
C 1.55874 -2.683901 0.795609 -3 0 -3 
C -0.795609 -3 -1.55874 -2.683901 -2.12132 -2.12132 
C -2.683901 -1.55874 -3 -0.795609 -3 0 
C -3 0.795609 -2.683901 1.55874 -2.12132 2.12132 
C -1.55874 2.683901 -0.795609 3 0 3 
z
" style="stroke: #fde725"/>
    </defs>
    <g clip-path="url(#p15c8d1d1bf)">
     <use xlink:href="#m760f2e5492" x="104.890795" y="197.116565" style="fill: #fde725; stroke: #fde725"/>
     <use xlink:href="#m760f2e5492" x="149.277159" y="201.569464" style="fill: #fde725; stroke: #fde725"/>
     <use xlink:href="#m760f2e5492" x="193.663523" y="149.107657" style="fill: #fde725; stroke: #fde725"/>
     <use xlink:href="#m760f2e5492" x="238.049886" y="142.773697" style="fill: #fde725; stroke: #fde725"/>
     <use xlink:href="#m760f2e5492" x="282.43625" y="140.892458" style="fill: #fde725; stroke: #fde725"/>
     <use xlink:href="#m760f2e5492" x="326.822614" y="132.38085" style="fill: #fde725; stroke: #fde725"/>
     <use xlink:href="#m760f2e5492" x="371.208977" y="132.959936" style="fill: #fde725; stroke: #fde725"/>
     <use xlink:href="#m760f2e5492" x="415.595341" y="137.051406" style="fill: #fde725; stroke: #fde725"/>
     <use xlink:href="#m760f2e5492" x="459.981705" y="137.597604" style="fill: #fde725; stroke: #fde725"/>
    </g>
   </g>
   <g id="line2d_12">
    <path d="M 104.890795 227.235059 
L 149.277159 180.843613 
L 193.663523 153.797854 
L 238.049886 197.741958 
L 282.43625 218.808548 
L 326.822614 213.145663 
L 371.208977 206.867145 
L 415.595341 174.691323 
L 459.981705 180.165963 
" clip-path="url(#p15c8d1d1bf)" style="fill: none; stroke: #d8e219; stroke-width: 1.5; stroke-linecap: square"/>
    <defs>
     <path id="md405492a6e" d="M 0 3 
C 0.795609 3 1.55874 2.683901 2.12132 2.12132 
C 2.683901 1.55874 3 0.795609 3 0 
C 3 -0.795609 2.683901 -1.55874 2.12132 -2.12132 
C 1.55874 -2.683901 0.795609 -3 0 -3 
C -0.795609 -3 -1.55874 -2.683901 -2.12132 -2.12132 
C -2.683901 -1.55874 -3 -0.795609 -3 0 
C -3 0.795609 -2.683901 1.55874 -2.12132 2.12132 
C -1.55874 2.683901 -0.795609 3 0 3 
z
" style="stroke: #d8e219"/>
    </defs>
    <g clip-path="url(#p15c8d1d1bf)">
     <use xlink:href="#md405492a6e" x="104.890795" y="227.235059" style="fill: #d8e219; stroke: #d8e219"/>
     <use xlink:href="#md405492a6e" x="149.277159" y="180.843613" style="fill: #d8e219; stroke: #d8e219"/>
     <use xlink:href="#md405492a6e" x="193.663523" y="153.797854" style="fill: #d8e219; stroke: #d8e219"/>
     <use xlink:href="#md405492a6e" x="238.049886" y="197.741958" style="fill: #d8e219; stroke: #d8e219"/>
     <use xlink:href="#md405492a6e" x="282.43625" y="218.808548" style="fill: #d8e219; stroke: #d8e219"/>
     <use xlink:href="#md405492a6e" x="326.822614" y="213.145663" style="fill: #d8e219; stroke: #d8e219"/>
     <use xlink:href="#md405492a6e" x="371.208977" y="206.867145" style="fill: #d8e219; stroke: #d8e219"/>
     <use xlink:href="#md405492a6e" x="415.595341" y="174.691323" style="fill: #d8e219; stroke: #d8e219"/>
     <use xlink:href="#md405492a6e" x="459.981705" y="180.165963" style="fill: #d8e219; stroke: #d8e219"/>
    </g>
   </g>
   <g id="line2d_13">
    <path d="M 104.890795 269.380023 
L 149.277159 194.319976 
L 193.663523 230.512721 
L 238.049886 213.42105 
L 282.43625 159.884131 
L 326.822614 127.006046 
L 371.208977 115.57887 
L 415.595341 87.499937 
L 459.981705 20.556 
" clip-path="url(#p15c8d1d1bf)" style="fill: none; stroke: #b0dd2f; stroke-width: 1.5; stroke-linecap: square"/>
    <defs>
     <path id="mf18d9d245c" d="M 0 3 
C 0.795609 3 1.55874 2.683901 2.12132 2.12132 
C 2.683901 1.55874 3 0.795609 3 0 
C 3 -0.795609 2.683901 -1.55874 2.12132 -2.12132 
C 1.55874 -2.683901 0.795609 -3 0 -3 
C -0.795609 -3 -1.55874 -2.683901 -2.12132 -2.12132 
C -2.683901 -1.55874 -3 -0.795609 -3 0 
C -3 0.795609 -2.683901 1.55874 -2.12132 2.12132 
C -1.55874 2.683901 -0.795609 3 0 3 
z
" style="stroke: #b0dd2f"/>
    </defs>
    <g clip-path="url(#p15c8d1d1bf)">
     <use xlink:href="#mf18d9d245c" x="104.890795" y="269.380023" style="fill: #b0dd2f; stroke: #b0dd2f"/>
     <use xlink:href="#mf18d9d245c" x="149.277159" y="194.319976" style="fill: #b0dd2f; stroke: #b0dd2f"/>
     <use xlink:href="#mf18d9d245c" x="193.663523" y="230.512721" style="fill: #b0dd2f; stroke: #b0dd2f"/>
     <use xlink:href="#mf18d9d245c" x="238.049886" y="213.42105" style="fill: #b0dd2f; stroke: #b0dd2f"/>
     <use xlink:href="#mf18d9d245c" x="282.43625" y="159.884131" style="fill: #b0dd2f; stroke: #b0dd2f"/>
     <use xlink:href="#mf18d9d245c" x="326.822614" y="127.006046" style="fill: #b0dd2f; stroke: #b0dd2f"/>
     <use xlink:href="#mf18d9d245c" x="371.208977" y="115.57887" style="fill: #b0dd2f; stroke: #b0dd2f"/>
     <use xlink:href="#mf18d9d245c" x="415.595341" y="87.499937" style="fill: #b0dd2f; stroke: #b0dd2f"/>
     <use xlink:href="#mf18d9d245c" x="459.981705" y="20.556" style="fill: #b0dd2f; stroke: #b0dd2f"/>
    </g>
   </g>
   <g id="line2d_14">
    <path d="M 104.890795 287.676 
L 149.277159 265.973775 
L 193.663523 255.446955 
L 238.049886 234.318412 
L 282.43625 204.136304 
L 326.822614 172.061205 
L 371.208977 147.755937 
L 415.595341 116.456759 
L 459.981705 106.083522 
" clip-path="url(#p15c8d1d1bf)" style="fill: none; stroke: #89d548; stroke-width: 1.5; stroke-linecap: square"/>
    <defs>
     <path id="m99b47e1520" d="M 0 3 
C 0.795609 3 1.55874 2.683901 2.12132 2.12132 
C 2.683901 1.55874 3 0.795609 3 0 
C 3 -0.795609 2.683901 -1.55874 2.12132 -2.12132 
C 1.55874 -2.683901 0.795609 -3 0 -3 
C -0.795609 -3 -1.55874 -2.683901 -2.12132 -2.12132 
C -2.683901 -1.55874 -3 -0.795609 -3 0 
C -3 0.795609 -2.683901 1.55874 -2.12132 2.12132 
C -1.55874 2.683901 -0.795609 3 0 3 
z
" style="stroke: #89d548"/>
    </defs>
    <g clip-path="url(#p15c8d1d1bf)">
     <use xlink:href="#m99b47e1520" x="104.890795" y="287.676" style="fill: #89d548; stroke: #89d548"/>
     <use xlink:href="#m99b47e1520" x="149.277159" y="265.973775" style="fill: #89d548; stroke: #89d548"/>
     <use xlink:href="#m99b47e1520" x="193.663523" y="255.446955" style="fill: #89d548; stroke: #89d548"/>
     <use xlink:href="#m99b47e1520" x="238.049886" y="234.318412" style="fill: #89d548; stroke: #89d548"/>
     <use xlink:href="#m99b47e1520" x="282.43625" y="204.136304" style="fill: #89d548; stroke: #89d548"/>
     <use xlink:href="#m99b47e1520" x="326.822614" y="172.061205" style="fill: #89d548; stroke: #89d548"/>
     <use xlink:href="#m99b47e1520" x="371.208977" y="147.755937" style="fill: #89d548; stroke: #89d548"/>
     <use xlink:href="#m99b47e1520" x="415.595341" y="116.456759" style="fill: #89d548; stroke: #89d548"/>
     <use xlink:href="#m99b47e1520" x="459.981705" y="106.083522" style="fill: #89d548; stroke: #89d548"/>
    </g>
   </g>
   <g id="line2d_15">
    <path d="M 104.890795 263.04463 
L 149.277159 204.730687 
L 193.663523 227.742342 
L 238.049886 253.81418 
L 282.43625 264.898557 
L 326.822614 264.402758 
L 371.208977 256.281929 
L 415.595341 236.746519 
L 459.981705 216.837984 
" clip-path="url(#p15c8d1d1bf)" style="fill: none; stroke: #65cb5e; stroke-width: 1.5; stroke-linecap: square"/>
    <defs>
     <path id="mce2fcb3fb1" d="M 0 3 
C 0.795609 3 1.55874 2.683901 2.12132 2.12132 
C 2.683901 1.55874 3 0.795609 3 0 
C 3 -0.795609 2.683901 -1.55874 2.12132 -2.12132 
C 1.55874 -2.683901 0.795609 -3 0 -3 
C -0.795609 -3 -1.55874 -2.683901 -2.12132 -2.12132 
C -2.683901 -1.55874 -3 -0.795609 -3 0 
C -3 0.795609 -2.683901 1.55874 -2.12132 2.12132 
C -1.55874 2.683901 -0.795609 3 0 3 
z
" style="stroke: #65cb5e"/>
    </defs>
    <g clip-path="url(#p15c8d1d1bf)">
     <use xlink:href="#mce2fcb3fb1" x="104.890795" y="263.04463" style="fill: #65cb5e; stroke: #65cb5e"/>
     <use xlink:href="#mce2fcb3fb1" x="149.277159" y="204.730687" style="fill: #65cb5e; stroke: #65cb5e"/>
     <use xlink:href="#mce2fcb3fb1" x="193.663523" y="227.742342" style="fill: #65cb5e; stroke: #65cb5e"/>
     <use xlink:href="#mce2fcb3fb1" x="238.049886" y="253.81418" style="fill: #65cb5e; stroke: #65cb5e"/>
     <use xlink:href="#mce2fcb3fb1" x="282.43625" y="264.898557" style="fill: #65cb5e; stroke: #65cb5e"/>
     <use xlink:href="#mce2fcb3fb1" x="326.822614" y="264.402758" style="fill: #65cb5e; stroke: #65cb5e"/>
     <use xlink:href="#mce2fcb3fb1" x="371.208977" y="256.281929" style="fill: #65cb5e; stroke: #65cb5e"/>
     <use xlink:href="#mce2fcb3fb1" x="415.595341" y="236.746519" style="fill: #65cb5e; stroke: #65cb5e"/>
     <use xlink:href="#mce2fcb3fb1" x="459.981705" y="216.837984" style="fill: #65cb5e; stroke: #65cb5e"/>
    </g>
   </g>
   <g id="line2d_16">
    <path d="M 104.890795 242.251852 
L 149.277159 196.576562 
L 193.663523 230.479238 
L 238.049886 248.443094 
L 282.43625 247.561932 
L 326.822614 246.832012 
L 371.208977 255.009116 
L 415.595341 268.117619 
L 459.981705 272.052719 
" clip-path="url(#p15c8d1d1bf)" style="fill: none; stroke: #46c06f; stroke-width: 1.5; stroke-linecap: square"/>
    <defs>
     <path id="mcddd54a2b5" d="M 0 3 
C 0.795609 3 1.55874 2.683901 2.12132 2.12132 
C 2.683901 1.55874 3 0.795609 3 0 
C 3 -0.795609 2.683901 -1.55874 2.12132 -2.12132 
C 1.55874 -2.683901 0.795609 -3 0 -3 
C -0.795609 -3 -1.55874 -2.683901 -2.12132 -2.12132 
C -2.683901 -1.55874 -3 -0.795609 -3 0 
C -3 0.795609 -2.683901 1.55874 -2.12132 2.12132 
C -1.55874 2.683901 -0.795609 3 0 3 
z
" style="stroke: #46c06f"/>
    </defs>
    <g clip-path="url(#p15c8d1d1bf)">
     <use xlink:href="#mcddd54a2b5" x="104.890795" y="242.251852" style="fill: #46c06f; stroke: #46c06f"/>
     <use xlink:href="#mcddd54a2b5" x="149.277159" y="196.576562" style="fill: #46c06f; stroke: #46c06f"/>
     <use xlink:href="#mcddd54a2b5" x="193.663523" y="230.479238" style="fill: #46c06f; stroke: #46c06f"/>
     <use xlink:href="#mcddd54a2b5" x="238.049886" y="248.443094" style="fill: #46c06f; stroke: #46c06f"/>
     <use xlink:href="#mcddd54a2b5" x="282.43625" y="247.561932" style="fill: #46c06f; stroke: #46c06f"/>
     <use xlink:href="#mcddd54a2b5" x="326.822614" y="246.832012" style="fill: #46c06f; stroke: #46c06f"/>
     <use xlink:href="#mcddd54a2b5" x="371.208977" y="255.009116" style="fill: #46c06f; stroke: #46c06f"/>
     <use xlink:href="#mcddd54a2b5" x="415.595341" y="268.117619" style="fill: #46c06f; stroke: #46c06f"/>
     <use xlink:href="#mcddd54a2b5" x="459.981705" y="272.052719" style="fill: #46c06f; stroke: #46c06f"/>
    </g>
   </g>
   <g id="line2d_17">
    <path d="M 104.890795 223.405225 
L 149.277159 210.948973 
L 193.663523 208.768177 
L 238.049886 225.258553 
L 282.43625 246.131771 
L 326.822614 258.136545 
L 371.208977 255.743661 
L 415.595341 249.634429 
L 459.981705 256.804627 
" clip-path="url(#p15c8d1d1bf)" style="fill: none; stroke: #2eb37c; stroke-width: 1.5; stroke-linecap: square"/>
    <defs>
     <path id="m13fdf4a4c3" d="M 0 3 
C 0.795609 3 1.55874 2.683901 2.12132 2.12132 
C 2.683901 1.55874 3 0.795609 3 0 
C 3 -0.795609 2.683901 -1.55874 2.12132 -2.12132 
C 1.55874 -2.683901 0.795609 -3 0 -3 
C -0.795609 -3 -1.55874 -2.683901 -2.12132 -2.12132 
C -2.683901 -1.55874 -3 -0.795609 -3 0 
C -3 0.795609 -2.683901 1.55874 -2.12132 2.12132 
C -1.55874 2.683901 -0.795609 3 0 3 
z
" style="stroke: #2eb37c"/>
    </defs>
    <g clip-path="url(#p15c8d1d1bf)">
     <use xlink:href="#m13fdf4a4c3" x="104.890795" y="223.405225" style="fill: #2eb37c; stroke: #2eb37c"/>
     <use xlink:href="#m13fdf4a4c3" x="149.277159" y="210.948973" style="fill: #2eb37c; stroke: #2eb37c"/>
     <use xlink:href="#m13fdf4a4c3" x="193.663523" y="208.768177" style="fill: #2eb37c; stroke: #2eb37c"/>
     <use xlink:href="#m13fdf4a4c3" x="238.049886" y="225.258553" style="fill: #2eb37c; stroke: #2eb37c"/>
     <use xlink:href="#m13fdf4a4c3" x="282.43625" y="246.131771" style="fill: #2eb37c; stroke: #2eb37c"/>
     <use xlink:href="#m13fdf4a4c3" x="326.822614" y="258.136545" style="fill: #2eb37c; stroke: #2eb37c"/>
     <use xlink:href="#m13fdf4a4c3" x="371.208977" y="255.743661" style="fill: #2eb37c; stroke: #2eb37c"/>
     <use xlink:href="#m13fdf4a4c3" x="415.595341" y="249.634429" style="fill: #2eb37c; stroke: #2eb37c"/>
     <use xlink:href="#m13fdf4a4c3" x="459.981705" y="256.804627" style="fill: #2eb37c; stroke: #2eb37c"/>
    </g>
   </g>
   <g id="line2d_18">
    <path d="M 104.890795 214.494888 
L 149.277159 194.815367 
L 193.663523 212.865782 
L 238.049886 229.120115 
L 282.43625 245.234553 
L 326.822614 261.997641 
L 371.208977 265.493627 
L 415.595341 274.359483 
L 459.981705 278.356396 
" clip-path="url(#p15c8d1d1bf)" style="fill: none; stroke: #21a585; stroke-width: 1.5; stroke-linecap: square"/>
    <defs>
     <path id="m17aa8b639e" d="M 0 3 
C 0.795609 3 1.55874 2.683901 2.12132 2.12132 
C 2.683901 1.55874 3 0.795609 3 0 
C 3 -0.795609 2.683901 -1.55874 2.12132 -2.12132 
C 1.55874 -2.683901 0.795609 -3 0 -3 
C -0.795609 -3 -1.55874 -2.683901 -2.12132 -2.12132 
C -2.683901 -1.55874 -3 -0.795609 -3 0 
C -3 0.795609 -2.683901 1.55874 -2.12132 2.12132 
C -1.55874 2.683901 -0.795609 3 0 3 
z
" style="stroke: #21a585"/>
    </defs>
    <g clip-path="url(#p15c8d1d1bf)">
     <use xlink:href="#m17aa8b639e" x="104.890795" y="214.494888" style="fill: #21a585; stroke: #21a585"/>
     <use xlink:href="#m17aa8b639e" x="149.277159" y="194.815367" style="fill: #21a585; stroke: #21a585"/>
     <use xlink:href="#m17aa8b639e" x="193.663523" y="212.865782" style="fill: #21a585; stroke: #21a585"/>
     <use xlink:href="#m17aa8b639e" x="238.049886" y="229.120115" style="fill: #21a585; stroke: #21a585"/>
     <use xlink:href="#m17aa8b639e" x="282.43625" y="245.234553" style="fill: #21a585; stroke: #21a585"/>
     <use xlink:href="#m17aa8b639e" x="326.822614" y="261.997641" style="fill: #21a585; stroke: #21a585"/>
     <use xlink:href="#m17aa8b639e" x="371.208977" y="265.493627" style="fill: #21a585; stroke: #21a585"/>
     <use xlink:href="#m17aa8b639e" x="415.595341" y="274.359483" style="fill: #21a585; stroke: #21a585"/>
     <use xlink:href="#m17aa8b639e" x="459.981705" y="278.356396" style="fill: #21a585; stroke: #21a585"/>
    </g>
   </g>
   <g id="line2d_19">
    <path d="M 104.890795 222.89578 
L 149.277159 203.000398 
L 193.663523 206.329541 
L 238.049886 216.421448 
L 282.43625 236.404565 
L 326.822614 260.216948 
L 371.208977 274.349254 
L 415.595341 282.82381 
L 459.981705 287.561967 
" clip-path="url(#p15c8d1d1bf)" style="fill: none; stroke: #1f978b; stroke-width: 1.5; stroke-linecap: square"/>
    <defs>
     <path id="ma86a1e98b5" d="M 0 3 
C 0.795609 3 1.55874 2.683901 2.12132 2.12132 
C 2.683901 1.55874 3 0.795609 3 0 
C 3 -0.795609 2.683901 -1.55874 2.12132 -2.12132 
C 1.55874 -2.683901 0.795609 -3 0 -3 
C -0.795609 -3 -1.55874 -2.683901 -2.12132 -2.12132 
C -2.683901 -1.55874 -3 -0.795609 -3 0 
C -3 0.795609 -2.683901 1.55874 -2.12132 2.12132 
C -1.55874 2.683901 -0.795609 3 0 3 
z
" style="stroke: #1f978b"/>
    </defs>
    <g clip-path="url(#p15c8d1d1bf)">
     <use xlink:href="#ma86a1e98b5" x="104.890795" y="222.89578" style="fill: #1f978b; stroke: #1f978b"/>
     <use xlink:href="#ma86a1e98b5" x="149.277159" y="203.000398" style="fill: #1f978b; stroke: #1f978b"/>
     <use xlink:href="#ma86a1e98b5" x="193.663523" y="206.329541" style="fill: #1f978b; stroke: #1f978b"/>
     <use xlink:href="#ma86a1e98b5" x="238.049886" y="216.421448" style="fill: #1f978b; stroke: #1f978b"/>
     <use xlink:href="#ma86a1e98b5" x="282.43625" y="236.404565" style="fill: #1f978b; stroke: #1f978b"/>
     <use xlink:href="#ma86a1e98b5" x="326.822614" y="260.216948" style="fill: #1f978b; stroke: #1f978b"/>
     <use xlink:href="#ma86a1e98b5" x="371.208977" y="274.349254" style="fill: #1f978b; stroke: #1f978b"/>
     <use xlink:href="#ma86a1e98b5" x="415.595341" y="282.82381" style="fill: #1f978b; stroke: #1f978b"/>
     <use xlink:href="#ma86a1e98b5" x="459.981705" y="287.561967" style="fill: #1f978b; stroke: #1f978b"/>
    </g>
   </g>
   <g id="line2d_20">
    <path d="M 104.890795 216.140416 
L 149.277159 189.872138 
L 193.663523 184.195561 
L 238.049886 190.237292 
L 282.43625 213.972406 
L 326.822614 235.758405 
L 371.208977 252.722511 
L 415.595341 267.119729 
L 459.981705 278.738592 
" clip-path="url(#p15c8d1d1bf)" style="fill: none; stroke: #23898e; stroke-width: 1.5; stroke-linecap: square"/>
    <defs>
     <path id="mfc5f7e4ab5" d="M 0 3 
C 0.795609 3 1.55874 2.683901 2.12132 2.12132 
C 2.683901 1.55874 3 0.795609 3 0 
C 3 -0.795609 2.683901 -1.55874 2.12132 -2.12132 
C 1.55874 -2.683901 0.795609 -3 0 -3 
C -0.795609 -3 -1.55874 -2.683901 -2.12132 -2.12132 
C -2.683901 -1.55874 -3 -0.795609 -3 0 
C -3 0.795609 -2.683901 1.55874 -2.12132 2.12132 
C -1.55874 2.683901 -0.795609 3 0 3 
z
" style="stroke: #23898e"/>
    </defs>
    <g clip-path="url(#p15c8d1d1bf)">
     <use xlink:href="#mfc5f7e4ab5" x="104.890795" y="216.140416" style="fill: #23898e; stroke: #23898e"/>
     <use xlink:href="#mfc5f7e4ab5" x="149.277159" y="189.872138" style="fill: #23898e; stroke: #23898e"/>
     <use xlink:href="#mfc5f7e4ab5" x="193.663523" y="184.195561" style="fill: #23898e; stroke: #23898e"/>
     <use xlink:href="#mfc5f7e4ab5" x="238.049886" y="190.237292" style="fill: #23898e; stroke: #23898e"/>
     <use xlink:href="#mfc5f7e4ab5" x="282.43625" y="213.972406" style="fill: #23898e; stroke: #23898e"/>
     <use xlink:href="#mfc5f7e4ab5" x="326.822614" y="235.758405" style="fill: #23898e; stroke: #23898e"/>
     <use xlink:href="#mfc5f7e4ab5" x="371.208977" y="252.722511" style="fill: #23898e; stroke: #23898e"/>
     <use xlink:href="#mfc5f7e4ab5" x="415.595341" y="267.119729" style="fill: #23898e; stroke: #23898e"/>
     <use xlink:href="#mfc5f7e4ab5" x="459.981705" y="278.738592" style="fill: #23898e; stroke: #23898e"/>
    </g>
   </g>
   <g id="line2d_21">
    <path d="M 104.890795 217.196883 
L 149.277159 209.355976 
L 193.663523 180.203389 
L 238.049886 197.63296 
L 282.43625 215.334962 
L 326.822614 238.291134 
L 371.208977 254.665145 
L 415.595341 263.444062 
L 459.981705 272.277043 
" clip-path="url(#p15c8d1d1bf)" style="fill: none; stroke: #297b8e; stroke-width: 1.5; stroke-linecap: square"/>
    <defs>
     <path id="m76402c4716" d="M 0 3 
C 0.795609 3 1.55874 2.683901 2.12132 2.12132 
C 2.683901 1.55874 3 0.795609 3 0 
C 3 -0.795609 2.683901 -1.55874 2.12132 -2.12132 
C 1.55874 -2.683901 0.795609 -3 0 -3 
C -0.795609 -3 -1.55874 -2.683901 -2.12132 -2.12132 
C -2.683901 -1.55874 -3 -0.795609 -3 0 
C -3 0.795609 -2.683901 1.55874 -2.12132 2.12132 
C -1.55874 2.683901 -0.795609 3 0 3 
z
" style="stroke: #297b8e"/>
    </defs>
    <g clip-path="url(#p15c8d1d1bf)">
     <use xlink:href="#m76402c4716" x="104.890795" y="217.196883" style="fill: #297b8e; stroke: #297b8e"/>
     <use xlink:href="#m76402c4716" x="149.277159" y="209.355976" style="fill: #297b8e; stroke: #297b8e"/>
     <use xlink:href="#m76402c4716" x="193.663523" y="180.203389" style="fill: #297b8e; stroke: #297b8e"/>
     <use xlink:href="#m76402c4716" x="238.049886" y="197.63296" style="fill: #297b8e; stroke: #297b8e"/>
     <use xlink:href="#m76402c4716" x="282.43625" y="215.334962" style="fill: #297b8e; stroke: #297b8e"/>
     <use xlink:href="#m76402c4716" x="326.822614" y="238.291134" style="fill: #297b8e; stroke: #297b8e"/>
     <use xlink:href="#m76402c4716" x="371.208977" y="254.665145" style="fill: #297b8e; stroke: #297b8e"/>
     <use xlink:href="#m76402c4716" x="415.595341" y="263.444062" style="fill: #297b8e; stroke: #297b8e"/>
     <use xlink:href="#m76402c4716" x="459.981705" y="272.277043" style="fill: #297b8e; stroke: #297b8e"/>
    </g>
   </g>
   <g id="line2d_22">
    <path d="M 104.890795 255.568616 
L 149.277159 217.991289 
L 193.663523 162.424346 
L 238.049886 156.32846 
L 282.43625 183.487203 
L 326.822614 210.460741 
L 371.208977 236.994852 
L 415.595341 255.587011 
L 459.981705 269.511834 
" clip-path="url(#p15c8d1d1bf)" style="fill: none; stroke: #2e6d8e; stroke-width: 1.5; stroke-linecap: square"/>
    <defs>
     <path id="m561c27c22b" d="M 0 3 
C 0.795609 3 1.55874 2.683901 2.12132 2.12132 
C 2.683901 1.55874 3 0.795609 3 0 
C 3 -0.795609 2.683901 -1.55874 2.12132 -2.12132 
C 1.55874 -2.683901 0.795609 -3 0 -3 
C -0.795609 -3 -1.55874 -2.683901 -2.12132 -2.12132 
C -2.683901 -1.55874 -3 -0.795609 -3 0 
C -3 0.795609 -2.683901 1.55874 -2.12132 2.12132 
C -1.55874 2.683901 -0.795609 3 0 3 
z
" style="stroke: #2e6d8e"/>
    </defs>
    <g clip-path="url(#p15c8d1d1bf)">
     <use xlink:href="#m561c27c22b" x="104.890795" y="255.568616" style="fill: #2e6d8e; stroke: #2e6d8e"/>
     <use xlink:href="#m561c27c22b" x="149.277159" y="217.991289" style="fill: #2e6d8e; stroke: #2e6d8e"/>
     <use xlink:href="#m561c27c22b" x="193.663523" y="162.424346" style="fill: #2e6d8e; stroke: #2e6d8e"/>
     <use xlink:href="#m561c27c22b" x="238.049886" y="156.32846" style="fill: #2e6d8e; stroke: #2e6d8e"/>
     <use xlink:href="#m561c27c22b" x="282.43625" y="183.487203" style="fill: #2e6d8e; stroke: #2e6d8e"/>
     <use xlink:href="#m561c27c22b" x="326.822614" y="210.460741" style="fill: #2e6d8e; stroke: #2e6d8e"/>
     <use xlink:href="#m561c27c22b" x="371.208977" y="236.994852" style="fill: #2e6d8e; stroke: #2e6d8e"/>
     <use xlink:href="#m561c27c22b" x="415.595341" y="255.587011" style="fill: #2e6d8e; stroke: #2e6d8e"/>
     <use xlink:href="#m561c27c22b" x="459.981705" y="269.511834" style="fill: #2e6d8e; stroke: #2e6d8e"/>
    </g>
   </g>
   <g id="line2d_23">
    <path d="M 104.890795 220.7267 
L 149.277159 190.304745 
L 193.663523 135.413491 
L 238.049886 111.636902 
L 282.43625 130.726398 
L 326.822614 168.840305 
L 371.208977 193.353133 
L 415.595341 216.582359 
L 459.981705 241.386657 
" clip-path="url(#p15c8d1d1bf)" style="fill: none; stroke: #355e8d; stroke-width: 1.5; stroke-linecap: square"/>
    <defs>
     <path id="m504acc1edc" d="M 0 3 
C 0.795609 3 1.55874 2.683901 2.12132 2.12132 
C 2.683901 1.55874 3 0.795609 3 0 
C 3 -0.795609 2.683901 -1.55874 2.12132 -2.12132 
C 1.55874 -2.683901 0.795609 -3 0 -3 
C -0.795609 -3 -1.55874 -2.683901 -2.12132 -2.12132 
C -2.683901 -1.55874 -3 -0.795609 -3 0 
C -3 0.795609 -2.683901 1.55874 -2.12132 2.12132 
C -1.55874 2.683901 -0.795609 3 0 3 
z
" style="stroke: #355e8d"/>
    </defs>
    <g clip-path="url(#p15c8d1d1bf)">
     <use xlink:href="#m504acc1edc" x="104.890795" y="220.7267" style="fill: #355e8d; stroke: #355e8d"/>
     <use xlink:href="#m504acc1edc" x="149.277159" y="190.304745" style="fill: #355e8d; stroke: #355e8d"/>
     <use xlink:href="#m504acc1edc" x="193.663523" y="135.413491" style="fill: #355e8d; stroke: #355e8d"/>
     <use xlink:href="#m504acc1edc" x="238.049886" y="111.636902" style="fill: #355e8d; stroke: #355e8d"/>
     <use xlink:href="#m504acc1edc" x="282.43625" y="130.726398" style="fill: #355e8d; stroke: #355e8d"/>
     <use xlink:href="#m504acc1edc" x="326.822614" y="168.840305" style="fill: #355e8d; stroke: #355e8d"/>
     <use xlink:href="#m504acc1edc" x="371.208977" y="193.353133" style="fill: #355e8d; stroke: #355e8d"/>
     <use xlink:href="#m504acc1edc" x="415.595341" y="216.582359" style="fill: #355e8d; stroke: #355e8d"/>
     <use xlink:href="#m504acc1edc" x="459.981705" y="241.386657" style="fill: #355e8d; stroke: #355e8d"/>
    </g>
   </g>
   <g id="line2d_24">
    <path d="M 104.890795 186.1358 
L 149.277159 148.864296 
L 193.663523 84.141844 
L 238.049886 67.436048 
L 282.43625 95.349715 
L 326.822614 110.378652 
L 371.208977 130.025393 
L 415.595341 146.557896 
L 459.981705 156.433291 
" clip-path="url(#p15c8d1d1bf)" style="fill: none; stroke: #3d4e8a; stroke-width: 1.5; stroke-linecap: square"/>
    <defs>
     <path id="mc257ce52b1" d="M 0 3 
C 0.795609 3 1.55874 2.683901 2.12132 2.12132 
C 2.683901 1.55874 3 0.795609 3 0 
C 3 -0.795609 2.683901 -1.55874 2.12132 -2.12132 
C 1.55874 -2.683901 0.795609 -3 0 -3 
C -0.795609 -3 -1.55874 -2.683901 -2.12132 -2.12132 
C -2.683901 -1.55874 -3 -0.795609 -3 0 
C -3 0.795609 -2.683901 1.55874 -2.12132 2.12132 
C -1.55874 2.683901 -0.795609 3 0 3 
z
" style="stroke: #3d4e8a"/>
    </defs>
    <g clip-path="url(#p15c8d1d1bf)">
     <use xlink:href="#mc257ce52b1" x="104.890795" y="186.1358" style="fill: #3d4e8a; stroke: #3d4e8a"/>
     <use xlink:href="#mc257ce52b1" x="149.277159" y="148.864296" style="fill: #3d4e8a; stroke: #3d4e8a"/>
     <use xlink:href="#mc257ce52b1" x="193.663523" y="84.141844" style="fill: #3d4e8a; stroke: #3d4e8a"/>
     <use xlink:href="#mc257ce52b1" x="238.049886" y="67.436048" style="fill: #3d4e8a; stroke: #3d4e8a"/>
     <use xlink:href="#mc257ce52b1" x="282.43625" y="95.349715" style="fill: #3d4e8a; stroke: #3d4e8a"/>
     <use xlink:href="#mc257ce52b1" x="326.822614" y="110.378652" style="fill: #3d4e8a; stroke: #3d4e8a"/>
     <use xlink:href="#mc257ce52b1" x="371.208977" y="130.025393" style="fill: #3d4e8a; stroke: #3d4e8a"/>
     <use xlink:href="#mc257ce52b1" x="415.595341" y="146.557896" style="fill: #3d4e8a; stroke: #3d4e8a"/>
     <use xlink:href="#mc257ce52b1" x="459.981705" y="156.433291" style="fill: #3d4e8a; stroke: #3d4e8a"/>
    </g>
   </g>
   <g id="line2d_25">
    <path d="M 104.890795 111.483057 
L 149.277159 115.067448 
L 193.663523 66.183624 
L 238.049886 60.39319 
L 282.43625 86.475244 
L 326.822614 92.168534 
L 371.208977 121.121299 
L 415.595341 144.488156 
L 459.981705 157.080525 
" clip-path="url(#p15c8d1d1bf)" style="fill: none; stroke: #433d84; stroke-width: 1.5; stroke-linecap: square"/>
    <defs>
     <path id="mdac9f2e04e" d="M 0 3 
C 0.795609 3 1.55874 2.683901 2.12132 2.12132 
C 2.683901 1.55874 3 0.795609 3 0 
C 3 -0.795609 2.683901 -1.55874 2.12132 -2.12132 
C 1.55874 -2.683901 0.795609 -3 0 -3 
C -0.795609 -3 -1.55874 -2.683901 -2.12132 -2.12132 
C -2.683901 -1.55874 -3 -0.795609 -3 0 
C -3 0.795609 -2.683901 1.55874 -2.12132 2.12132 
C -1.55874 2.683901 -0.795609 3 0 3 
z
" style="stroke: #433d84"/>
    </defs>
    <g clip-path="url(#p15c8d1d1bf)">
     <use xlink:href="#mdac9f2e04e" x="104.890795" y="111.483057" style="fill: #433d84; stroke: #433d84"/>
     <use xlink:href="#mdac9f2e04e" x="149.277159" y="115.067448" style="fill: #433d84; stroke: #433d84"/>
     <use xlink:href="#mdac9f2e04e" x="193.663523" y="66.183624" style="fill: #433d84; stroke: #433d84"/>
     <use xlink:href="#mdac9f2e04e" x="238.049886" y="60.39319" style="fill: #433d84; stroke: #433d84"/>
     <use xlink:href="#mdac9f2e04e" x="282.43625" y="86.475244" style="fill: #433d84; stroke: #433d84"/>
     <use xlink:href="#mdac9f2e04e" x="326.822614" y="92.168534" style="fill: #433d84; stroke: #433d84"/>
     <use xlink:href="#mdac9f2e04e" x="371.208977" y="121.121299" style="fill: #433d84; stroke: #433d84"/>
     <use xlink:href="#mdac9f2e04e" x="415.595341" y="144.488156" style="fill: #433d84; stroke: #433d84"/>
     <use xlink:href="#mdac9f2e04e" x="459.981705" y="157.080525" style="fill: #433d84; stroke: #433d84"/>
    </g>
   </g>
   <g id="line2d_26">
    <path d="M 104.890795 149.673296 
L 149.277159 148.273324 
L 193.663523 113.900677 
L 238.049886 106.345686 
L 282.43625 120.490491 
L 326.822614 140.713421 
L 371.208977 169.79737 
L 415.595341 184.305976 
L 459.981705 196.362507 
" clip-path="url(#p15c8d1d1bf)" style="fill: none; stroke: #472a7a; stroke-width: 1.5; stroke-linecap: square"/>
    <defs>
     <path id="mb550f421e9" d="M 0 3 
C 0.795609 3 1.55874 2.683901 2.12132 2.12132 
C 2.683901 1.55874 3 0.795609 3 0 
C 3 -0.795609 2.683901 -1.55874 2.12132 -2.12132 
C 1.55874 -2.683901 0.795609 -3 0 -3 
C -0.795609 -3 -1.55874 -2.683901 -2.12132 -2.12132 
C -2.683901 -1.55874 -3 -0.795609 -3 0 
C -3 0.795609 -2.683901 1.55874 -2.12132 2.12132 
C -1.55874 2.683901 -0.795609 3 0 3 
z
" style="stroke: #472a7a"/>
    </defs>
    <g clip-path="url(#p15c8d1d1bf)">
     <use xlink:href="#mb550f421e9" x="104.890795" y="149.673296" style="fill: #472a7a; stroke: #472a7a"/>
     <use xlink:href="#mb550f421e9" x="149.277159" y="148.273324" style="fill: #472a7a; stroke: #472a7a"/>
     <use xlink:href="#mb550f421e9" x="193.663523" y="113.900677" style="fill: #472a7a; stroke: #472a7a"/>
     <use xlink:href="#mb550f421e9" x="238.049886" y="106.345686" style="fill: #472a7a; stroke: #472a7a"/>
     <use xlink:href="#mb550f421e9" x="282.43625" y="120.490491" style="fill: #472a7a; stroke: #472a7a"/>
     <use xlink:href="#mb550f421e9" x="326.822614" y="140.713421" style="fill: #472a7a; stroke: #472a7a"/>
     <use xlink:href="#mb550f421e9" x="371.208977" y="169.79737" style="fill: #472a7a; stroke: #472a7a"/>
     <use xlink:href="#mb550f421e9" x="415.595341" y="184.305976" style="fill: #472a7a; stroke: #472a7a"/>
     <use xlink:href="#mb550f421e9" x="459.981705" y="196.362507" style="fill: #472a7a; stroke: #472a7a"/>
    </g>
   </g>
   <g id="line2d_27">
    <path d="M 104.890795 211.026689 
L 149.277159 169.15853 
L 193.663523 139.737142 
L 238.049886 152.945376 
L 282.43625 172.410551 
L 326.822614 192.245739 
L 371.208977 208.041215 
L 415.595341 222.395292 
L 459.981705 234.534695 
" clip-path="url(#p15c8d1d1bf)" style="fill: none; stroke: #481769; stroke-width: 1.5; stroke-linecap: square"/>
    <defs>
     <path id="m2964deed8c" d="M 0 3 
C 0.795609 3 1.55874 2.683901 2.12132 2.12132 
C 2.683901 1.55874 3 0.795609 3 0 
C 3 -0.795609 2.683901 -1.55874 2.12132 -2.12132 
C 1.55874 -2.683901 0.795609 -3 0 -3 
C -0.795609 -3 -1.55874 -2.683901 -2.12132 -2.12132 
C -2.683901 -1.55874 -3 -0.795609 -3 0 
C -3 0.795609 -2.683901 1.55874 -2.12132 2.12132 
C -1.55874 2.683901 -0.795609 3 0 3 
z
" style="stroke: #481769"/>
    </defs>
    <g clip-path="url(#p15c8d1d1bf)">
     <use xlink:href="#m2964deed8c" x="104.890795" y="211.026689" style="fill: #481769; stroke: #481769"/>
     <use xlink:href="#m2964deed8c" x="149.277159" y="169.15853" style="fill: #481769; stroke: #481769"/>
     <use xlink:href="#m2964deed8c" x="193.663523" y="139.737142" style="fill: #481769; stroke: #481769"/>
     <use xlink:href="#m2964deed8c" x="238.049886" y="152.945376" style="fill: #481769; stroke: #481769"/>
     <use xlink:href="#m2964deed8c" x="282.43625" y="172.410551" style="fill: #481769; stroke: #481769"/>
     <use xlink:href="#m2964deed8c" x="326.822614" y="192.245739" style="fill: #481769; stroke: #481769"/>
     <use xlink:href="#m2964deed8c" x="371.208977" y="208.041215" style="fill: #481769; stroke: #481769"/>
     <use xlink:href="#m2964deed8c" x="415.595341" y="222.395292" style="fill: #481769; stroke: #481769"/>
     <use xlink:href="#m2964deed8c" x="459.981705" y="234.534695" style="fill: #481769; stroke: #481769"/>
    </g>
   </g>
   <g id="patch_3">
    <path d="M 87.13625 301.032 
L 87.13625 7.2 
" style="fill: none; stroke: #000000; stroke-width: 0.8; stroke-linejoin: miter; stroke-linecap: square"/>
   </g>
   <g id="patch_4">
    <path d="M 477.73625 301.032 
L 477.73625 7.2 
" style="fill: none"/>
   </g>
   <g id="patch_5">
    <path d="M 87.13625 301.032 
L 477.73625 301.032 
" style="fill: none; stroke: #000000; stroke-width: 0.8; stroke-linejoin: miter; stroke-linecap: square"/>
   </g>
   <g id="patch_6">
    <path d="M 87.13625 7.2 
L 477.73625 7.2 
" style="fill: none"/>
   </g>
  </g>
 </g>
 <defs>
  <clipPath id="p15c8d1d1bf">
   <rect x="87.13625" y="7.2" width="390.6" height="293.832"/>
  </clipPath>
 </defs>
</svg>
