<?xml version="1.0" encoding="utf-8" standalone="no"?>
<!DOCTYPE svg PUBLIC "-//W3C//DTD SVG 1.1//EN"
  "http://www.w3.org/Graphics/SVG/1.1/DTD/svg11.dtd">
<svg xmlns:xlink="http://www.w3.org/1999/xlink" width="308.232pt" height="308.232pt" viewBox="0 0 308.232 308.232" xmlns="http://www.w3.org/2000/svg" version="1.1">
 <metadata>
  <rdf:RDF xmlns:dc="http://purl.org/dc/elements/1.1/" xmlns:cc="http://creativecommons.org/ns#" xmlns:rdf="http://www.w3.org/1999/02/22-rdf-syntax-ns#">
   <cc:Work>
    <dc:type rdf:resource="http://purl.org/dc/dcmitype/StillImage"/>
    <dc:date>2026-03-04T20:14:13.381907</dc:date>
    <dc:format>image/svg+xml</dc:format>
    <dc:creator>
     <cc:Agent>
      <dc:title>Matplotlib v3.10.8, https://matplotlib.org/</dc:title>
     </cc:Agent>
    </dc:creator>
   </cc:Work>
  </rdf:RDF>
 </metadata>
 <defs>
  <style type="text/css">*{stroke-linejoin: round; stroke-linecap: butt}</style>
 </defs>
 <g id="figure_1">
  <g id="patch_1">
   <path d="M 0 308.232 
L 308.232 308.232 
L 308.232 0 
L 0 0 
z
" style="fill: #ffffff"/>
  </g>
  <g id="axes_1">
   <g id="patch_2">
    <path d="M 301.032 227.574 
C 301.032 188.624398 285.542828 151.230228 258.0013 123.6887 
C 230.459772 96.147172 193.065602 80.658 154.116 80.658 
C 115.166398 80.658 77.772228 96.147172 50.2307 123.6887 
C 22.689172 151.230228 7.2 188.624398 7.2 227.574 
L 154.116 227.574 
C 154.116 227.574 154.116 227.574 154.116 227.574 
C 154.116 227.574 154.116 227.574 154.116 227.574 
C 154.116 227.574 154.116 227.574 154.116 227.574 
C 154.116 227.574 154.116 227.574 154.116 227.574 
z
" style="fill: #ffffff"/>
   </g>
   <g id="patch_3">
    <path d="M 154.116 227.574 
C 154.116 227.574 154.116 227.574 154.116 227.574 
C 154.116 227.574 154.116 227.574 154.116 227.574 
L 154.116 213.177247 
C 154.534851 213.177247 154.953503 213.195526 155.37076 213.232031 
C 155.788017 213.268537 156.203482 213.323234 156.61597 213.395966 
z
" clip-path="url(#p58a9f754ee)" style="fill: #83bb03; opacity: 0.8; stroke: #000000; stroke-linejoin: miter"/>
   </g>
   <g id="patch_4">
    <path d="M 154.116 227.574 
C 154.116 227.574 154.116 227.574 154.116 227.574 
C 154.116 227.574 154.116 227.574 154.116 227.574 
L 157.092155 210.695388 
C 157.583211 210.781975 158.070256 210.88995 158.551897 211.019006 
C 159.033539 211.148061 159.509319 211.298074 159.97788 211.468616 
z
" clip-path="url(#p58a9f754ee)" style="fill: #83bb03; opacity: 0.8; stroke: #000000; stroke-linejoin: miter"/>
   </g>
   <g id="patch_5">
    <path d="M 154.116 227.574 
C 154.116 227.574 154.116 227.574 154.116 227.574 
C 154.116 227.574 154.116 227.574 154.116 227.574 
L 161.150256 208.24754 
C 161.712529 208.45219 162.265604 208.681281 162.807901 208.934158 
C 163.350198 209.187036 163.881201 209.463458 164.399395 209.762638 
z
" clip-path="url(#p58a9f754ee)" style="fill: #83bb03; opacity: 0.8; stroke: #000000; stroke-linejoin: miter"/>
   </g>
   <g id="patch_6">
    <path d="M 154.116 227.574 
C 154.116 227.574 154.116 227.574 154.116 227.574 
C 154.116 227.574 154.116 227.574 154.116 227.574 
L 170.569432 199.07582 
C 171.398542 199.554507 172.206367 200.069149 172.990601 200.618276 
C 173.774836 201.167403 174.534733 201.750492 175.268124 202.36588 
z
" clip-path="url(#p58a9f754ee)" style="fill: #83bb03; opacity: 0.8; stroke: #000000; stroke-linejoin: miter"/>
   </g>
   <g id="patch_7">
    <path d="M 154.116 227.574 
C 154.116 227.574 154.116 227.574 154.116 227.574 
C 154.116 227.574 154.116 227.574 154.116 227.574 
L 180.556155 196.06385 
C 181.472894 196.833085 182.355626 197.64196 183.201833 198.488167 
C 184.04804 199.334374 184.856915 200.217106 185.62615 201.133845 
z
" clip-path="url(#p58a9f754ee)" style="fill: #83bb03; opacity: 0.8; stroke: #000000; stroke-linejoin: miter"/>
   </g>
   <g id="patch_8">
    <path d="M 154.116 227.574 
C 154.116 227.574 154.116 227.574 154.116 227.574 
C 154.116 227.574 154.116 227.574 154.116 227.574 
L 205.582578 184.388413 
C 206.838995 185.885753 208.02947 187.43721 209.150604 189.038355 
C 210.271738 190.639501 211.322464 192.288811 212.299783 193.981577 
z
" clip-path="url(#p58a9f754ee)" style="fill: #83bb03; opacity: 0.8; stroke: #000000; stroke-linejoin: miter"/>
   </g>
   <g id="patch_9">
    <path d="M 154.116 227.574 
C 154.116 227.574 154.116 227.574 154.116 227.574 
C 154.116 227.574 154.116 227.574 154.116 227.574 
L 225.361449 186.440421 
C 226.558166 188.513196 227.663857 190.637208 228.675366 192.806397 
C 229.686875 194.975585 230.603239 197.187882 231.421842 199.436975 
z
" clip-path="url(#p58a9f754ee)" style="fill: #83bb03; opacity: 0.8; stroke: #000000; stroke-linejoin: miter"/>
   </g>
   <g id="patch_10">
    <path d="M 154.116 227.574 
C 154.116 227.574 154.116 227.574 154.116 227.574 
C 154.116 227.574 154.116 227.574 154.116 227.574 
L 241.729287 195.685371 
C 242.657037 198.234343 243.473107 200.822588 244.175169 203.442718 
C 244.877231 206.062849 245.464616 208.71237 245.935647 211.383719 
z
" clip-path="url(#p58a9f754ee)" style="fill: #83bb03; opacity: 0.8; stroke: #000000; stroke-linejoin: miter"/>
   </g>
   <g id="patch_11">
    <path d="M 154.116 227.574 
C 154.116 227.574 154.116 227.574 154.116 227.574 
C 154.116 227.574 154.116 227.574 154.116 227.574 
L 254.712525 209.836119 
C 255.228581 212.762817 255.616669 215.710643 255.875683 218.671181 
C 256.134696 221.63172 256.264388 224.602152 256.264388 227.574 
z
" clip-path="url(#p58a9f754ee)" style="fill: #83bb03; opacity: 0.8; stroke: #000000; stroke-linejoin: miter"/>
   </g>
   <g id="patch_12">
    <path d="M 154.116 227.574 
C 154.116 227.574 154.116 227.574 154.116 227.574 
C 154.116 227.574 154.116 227.574 154.116 227.574 
L 149.11606 199.217933 
C 149.941036 199.072467 150.771966 198.963073 151.606481 198.890063 
C 152.440995 198.817052 153.278298 198.780495 154.116 198.780495 
z
" clip-path="url(#p58a9f754ee)" style="fill: #0383bb; opacity: 0.8; stroke: #000000; stroke-linejoin: miter"/>
   </g>
   <g id="patch_13">
    <path d="M 154.116 227.574 
C 154.116 227.574 154.116 227.574 154.116 227.574 
C 154.116 227.574 154.116 227.574 154.116 227.574 
L 142.685333 196.168502 
C 143.599027 195.835945 144.526799 195.543419 145.466 195.291761 
C 146.405201 195.040103 147.354938 194.829551 148.312499 194.660708 
z
" clip-path="url(#p58a9f754ee)" style="fill: #0383bb; opacity: 0.8; stroke: #000000; stroke-linejoin: miter"/>
   </g>
   <g id="patch_14">
    <path d="M 154.116 227.574 
C 154.116 227.574 154.116 227.574 154.116 227.574 
C 154.116 227.574 154.116 227.574 154.116 227.574 
L 141.261757 205.309797 
C 141.909499 204.935823 142.573253 204.590295 143.251124 204.274198 
C 143.928995 203.958102 144.620338 203.671738 145.32318 203.415925 
z
" clip-path="url(#p58a9f754ee)" style="fill: #0383bb; opacity: 0.8; stroke: #000000; stroke-linejoin: miter"/>
   </g>
   <g id="patch_15">
    <path d="M 154.116 227.574 
C 154.116 227.574 154.116 227.574 154.116 227.574 
C 154.116 227.574 154.116 227.574 154.116 227.574 
L 133.955382 203.547511 
C 134.654395 202.960969 135.378672 202.405212 136.126146 201.881825 
C 136.873619 201.358439 137.643578 200.867921 138.433823 200.411673 
z
" clip-path="url(#p58a9f754ee)" style="fill: #0383bb; opacity: 0.8; stroke: #000000; stroke-linejoin: miter"/>
   </g>
   <g id="patch_16">
    <path d="M 154.116 227.574 
C 154.116 227.574 154.116 227.574 154.116 227.574 
C 154.116 227.574 154.116 227.574 154.116 227.574 
L 119.848712 198.820331 
C 120.685255 197.823378 121.564907 196.863407 122.485157 195.943157 
C 123.405407 195.022907 124.365378 194.143255 125.362331 193.306712 
z
" clip-path="url(#p58a9f754ee)" style="fill: #0383bb; opacity: 0.8; stroke: #000000; stroke-linejoin: miter"/>
   </g>
   <g id="patch_17">
    <path d="M 154.116 227.574 
C 154.116 227.574 154.116 227.574 154.116 227.574 
C 154.116 227.574 154.116 227.574 154.116 227.574 
L 107.361174 200.580089 
C 108.14652 199.21983 108.990853 197.894492 109.891765 196.607857 
C 110.792676 195.321222 111.749308 194.074516 112.758928 192.871297 
z
" clip-path="url(#p58a9f754ee)" style="fill: #0383bb; opacity: 0.8; stroke: #000000; stroke-linejoin: miter"/>
   </g>
   <g id="patch_18">
    <path d="M 154.116 227.574 
C 154.116 227.574 154.116 227.574 154.116 227.574 
C 154.116 227.574 154.116 227.574 154.116 227.574 
L 87.439712 203.305816 
C 88.145756 201.365973 88.93612 199.457867 89.808547 197.586942 
C 90.680973 195.716017 91.634632 193.884056 92.6668 192.096288 
z
" clip-path="url(#p58a9f754ee)" style="fill: #0383bb; opacity: 0.8; stroke: #000000; stroke-linejoin: miter"/>
   </g>
   <g id="patch_19">
    <path d="M 154.116 227.574 
C 154.116 227.574 154.116 227.574 154.116 227.574 
C 154.116 227.574 154.116 227.574 154.116 227.574 
L 80.69404 214.627727 
C 81.070691 212.49163 81.540383 210.372988 82.101775 208.277846 
C 82.663166 206.182705 83.315722 204.113061 84.057581 202.074821 
z
" clip-path="url(#p58a9f754ee)" style="fill: #0383bb; opacity: 0.8; stroke: #000000; stroke-linejoin: miter"/>
   </g>
   <g id="patch_20">
    <path d="M 154.116 227.574 
C 154.116 227.574 154.116 227.574 154.116 227.574 
C 154.116 227.574 154.116 227.574 154.116 227.574 
L 77.504709 227.574 
C 77.504709 225.345114 77.601978 223.11729 77.796238 220.896886 
C 77.990498 218.676482 78.281565 216.465613 78.668607 214.270589 
z
" clip-path="url(#p58a9f754ee)" style="fill: #0383bb; opacity: 0.8; stroke: #000000; stroke-linejoin: miter"/>
   </g>
   <g id="matplotlib.axis_1">
    <g id="xtick_1">
     <g id="line2d_1">
      <path d="M 154.116 227.574 
L 301.032 227.574 
" clip-path="url(#p58a9f754ee)" style="fill: none; stroke: #b0b0b0; stroke-width: 0.8; stroke-linecap: square"/>
     </g>
    </g>
    <g id="xtick_2">
     <g id="line2d_2">
      <path d="M 154.116 227.574 
L 292.171881 177.325769 
" clip-path="url(#p58a9f754ee)" style="fill: none; stroke: #b0b0b0; stroke-width: 0.8; stroke-linecap: square"/>
     </g>
    </g>
    <g id="xtick_3">
     <g id="line2d_3">
      <path d="M 154.116 227.574 
L 266.660185 133.138216 
" clip-path="url(#p58a9f754ee)" style="fill: none; stroke: #b0b0b0; stroke-width: 0.8; stroke-linecap: square"/>
     </g>
    </g>
    <g id="xtick_4">
     <g id="line2d_4">
      <path d="M 154.116 227.574 
L 227.574 100.341012 
" clip-path="url(#p58a9f754ee)" style="fill: none; stroke: #b0b0b0; stroke-width: 0.8; stroke-linecap: square"/>
     </g>
    </g>
    <g id="xtick_5">
     <g id="line2d_5">
      <path d="M 154.116 227.574 
L 179.627696 82.889984 
" clip-path="url(#p58a9f754ee)" style="fill: none; stroke: #b0b0b0; stroke-width: 0.8; stroke-linecap: square"/>
     </g>
    </g>
    <g id="xtick_6">
     <g id="line2d_6">
      <path d="M 154.116 227.574 
L 128.604304 82.889984 
" clip-path="url(#p58a9f754ee)" style="fill: none; stroke: #b0b0b0; stroke-width: 0.8; stroke-linecap: square"/>
     </g>
    </g>
    <g id="xtick_7">
     <g id="line2d_7">
      <path d="M 154.116 227.574 
L 80.658 100.341012 
" clip-path="url(#p58a9f754ee)" style="fill: none; stroke: #b0b0b0; stroke-width: 0.8; stroke-linecap: square"/>
     </g>
    </g>
    <g id="xtick_8">
     <g id="line2d_8">
      <path d="M 154.116 227.574 
L 41.571815 133.138216 
" clip-path="url(#p58a9f754ee)" style="fill: none; stroke: #b0b0b0; stroke-width: 0.8; stroke-linecap: square"/>
     </g>
    </g>
    <g id="xtick_9">
     <g id="line2d_9">
      <path d="M 154.116 227.574 
L 16.060119 177.325769 
" clip-path="url(#p58a9f754ee)" style="fill: none; stroke: #b0b0b0; stroke-width: 0.8; stroke-linecap: square"/>
     </g>
    </g>
    <g id="xtick_10">
     <g id="line2d_10">
      <path d="M 154.116 227.574 
L 7.2 227.574 
" clip-path="url(#p58a9f754ee)" style="fill: none; stroke: #b0b0b0; stroke-width: 0.8; stroke-linecap: square"/>
     </g>
    </g>
   </g>
   <g id="matplotlib.axis_2"/>
   <g id="LineCollection_1">
    <path d="M 154.843058 219.26369 
L 155.898461 207.200372 
" clip-path="url(#p58a9f754ee)" style="fill: none; stroke: #000000; stroke-width: 2"/>
    <path d="M 155.932088 220.796268 
L 161.171707 201.241743 
" clip-path="url(#p58a9f754ee)" style="fill: none; stroke: #000000; stroke-width: 2"/>
    <path d="M 157.891019 219.478445 
L 167.724782 198.389872 
" clip-path="url(#p58a9f754ee)" style="fill: none; stroke: #000000; stroke-width: 2"/>
    <path d="M 158.736684 220.974979 
L 187.244519 180.261572 
" clip-path="url(#p58a9f754ee)" style="fill: none; stroke: #000000; stroke-width: 2"/>
    <path d="M 176.590535 205.099465 
L 189.813131 191.876869 
" clip-path="url(#p58a9f754ee)" style="fill: none; stroke: #000000; stroke-width: 2"/>
    <path d="M 207.049373 190.509653 
L 211.251835 187.567058 
" clip-path="url(#p58a9f754ee)" style="fill: none; stroke: #000000; stroke-width: 2"/>
    <path d="M 211.123536 200.990949 
L 246.227196 184.621844 
" clip-path="url(#p58a9f754ee)" style="fill: none; stroke: #000000; stroke-width: 2"/>
    <path d="M 211.518581 212.193025 
L 276.831758 194.692412 
" clip-path="url(#p58a9f754ee)" style="fill: none; stroke: #000000; stroke-width: 2"/>
    <path d="M 222.071338 221.628678 
L 289.680027 215.713684 
" clip-path="url(#p58a9f754ee)" style="fill: none; stroke: #000000; stroke-width: 2"/>
   </g>
   <g id="line2d_11">
    <defs>
     <path id="m09d05d6304" d="M -2.988584 -0.261467 
L 2.988584 0.261467 
" style="stroke: #000000"/>
    </defs>
    <g clip-path="url(#p58a9f754ee)">
     <use xlink:href="#m09d05d6304" x="154.843058" y="219.26369" style="fill: #1f77b4; stroke: #000000"/>
    </g>
   </g>
   <g id="line2d_12">
    <defs>
     <path id="m8a42df6be2" d="M -2.897777 -0.776457 
L 2.897777 0.776457 
" style="stroke: #000000"/>
    </defs>
    <g clip-path="url(#p58a9f754ee)">
     <use xlink:href="#m8a42df6be2" x="155.932088" y="220.796268" style="fill: #1f77b4; stroke: #000000"/>
    </g>
   </g>
   <g id="line2d_13">
    <defs>
     <path id="m7381548f26" d="M -2.718923 -1.267855 
L 2.718923 1.267855 
" style="stroke: #000000"/>
    </defs>
    <g clip-path="url(#p58a9f754ee)">
     <use xlink:href="#m7381548f26" x="157.891019" y="219.478445" style="fill: #1f77b4; stroke: #000000"/>
    </g>
   </g>
   <g id="line2d_14">
    <defs>
     <path id="maf8f26791a" d="M -2.457456 -1.720729 
L 2.457456 1.720729 
" style="stroke: #000000"/>
    </defs>
    <g clip-path="url(#p58a9f754ee)">
     <use xlink:href="#maf8f26791a" x="158.736684" y="220.974979" style="fill: #1f77b4; stroke: #000000"/>
    </g>
   </g>
   <g id="line2d_15">
    <defs>
     <path id="m41aab6a86f" d="M -2.12132 -2.12132 
L 2.12132 2.12132 
" style="stroke: #000000"/>
    </defs>
    <g clip-path="url(#p58a9f754ee)">
     <use xlink:href="#m41aab6a86f" x="176.590535" y="205.099465" style="fill: #1f77b4; stroke: #000000"/>
    </g>
   </g>
   <g id="line2d_16">
    <defs>
     <path id="m5f072f39a9" d="M -1.720729 -2.457456 
L 1.720729 2.457456 
" style="stroke: #000000"/>
    </defs>
    <g clip-path="url(#p58a9f754ee)">
     <use xlink:href="#m5f072f39a9" x="207.049373" y="190.509653" style="fill: #1f77b4; stroke: #000000"/>
    </g>
   </g>
   <g id="line2d_17">
    <defs>
     <path id="ma957edd4b8" d="M -1.267855 -2.718923 
L 1.267855 2.718923 
" style="stroke: #000000"/>
    </defs>
    <g clip-path="url(#p58a9f754ee)">
     <use xlink:href="#ma957edd4b8" x="211.123536" y="200.990949" style="fill: #1f77b4; stroke: #000000"/>
    </g>
   </g>
   <g id="line2d_18">
    <defs>
     <path id="m5931ea3893" d="M -0.776457 -2.897777 
L 0.776457 2.897777 
" style="stroke: #000000"/>
    </defs>
    <g clip-path="url(#p58a9f754ee)">
     <use xlink:href="#m5931ea3893" x="211.518581" y="212.193025" style="fill: #1f77b4; stroke: #000000"/>
    </g>
   </g>
   <g id="line2d_19">
    <defs>
     <path id="m0d378182b9" d="M -0.261467 -2.988584 
L 0.261467 2.988584 
" style="stroke: #000000"/>
    </defs>
    <g clip-path="url(#p58a9f754ee)">
     <use xlink:href="#m0d378182b9" x="222.071338" y="221.628678" style="fill: #1f77b4; stroke: #000000"/>
    </g>
   </g>
   <g id="line2d_20">
    <g clip-path="url(#p58a9f754ee)">
     <use xlink:href="#m09d05d6304" x="155.898461" y="207.200372" style="fill: #1f77b4; stroke: #000000"/>
    </g>
   </g>
   <g id="line2d_21">
    <g clip-path="url(#p58a9f754ee)">
     <use xlink:href="#m8a42df6be2" x="161.171707" y="201.241743" style="fill: #1f77b4; stroke: #000000"/>
    </g>
   </g>
   <g id="line2d_22">
    <g clip-path="url(#p58a9f754ee)">
     <use xlink:href="#m7381548f26" x="167.724782" y="198.389872" style="fill: #1f77b4; stroke: #000000"/>
    </g>
   </g>
   <g id="line2d_23">
    <g clip-path="url(#p58a9f754ee)">
     <use xlink:href="#maf8f26791a" x="187.244519" y="180.261572" style="fill: #1f77b4; stroke: #000000"/>
    </g>
   </g>
   <g id="line2d_24">
    <g clip-path="url(#p58a9f754ee)">
     <use xlink:href="#m41aab6a86f" x="189.813131" y="191.876869" style="fill: #1f77b4; stroke: #000000"/>
    </g>
   </g>
   <g id="line2d_25">
    <g clip-path="url(#p58a9f754ee)">
     <use xlink:href="#m5f072f39a9" x="211.251835" y="187.567058" style="fill: #1f77b4; stroke: #000000"/>
    </g>
   </g>
   <g id="line2d_26">
    <g clip-path="url(#p58a9f754ee)">
     <use xlink:href="#ma957edd4b8" x="246.227196" y="184.621844" style="fill: #1f77b4; stroke: #000000"/>
    </g>
   </g>
   <g id="line2d_27">
    <g clip-path="url(#p58a9f754ee)">
     <use xlink:href="#m5931ea3893" x="276.831758" y="194.692412" style="fill: #1f77b4; stroke: #000000"/>
    </g>
   </g>
   <g id="line2d_28">
    <g clip-path="url(#p58a9f754ee)">
     <use xlink:href="#m0d378182b9" x="289.680027" y="215.713684" style="fill: #1f77b4; stroke: #000000"/>
    </g>
   </g>
   <g id="PathCollection_1">
    <defs>
     <path id="m0eca01f78a" d="M 0 1.118034 
C 0.296506 1.118034 0.580908 1.000231 0.790569 0.790569 
C 1.000231 0.580908 1.118034 0.296506 1.118034 0 
C 1.118034 -0.296506 1.000231 -0.580908 0.790569 -0.790569 
C 0.580908 -1.000231 0.296506 -1.118034 0 -1.118034 
C -0.296506 -1.118034 -0.580908 -1.000231 -0.790569 -0.790569 
C -1.000231 -0.580908 -1.118034 -0.296506 -1.118034 0 
C -1.118034 0.296506 -1.000231 0.580908 -0.790569 0.790569 
C -0.580908 1.000231 -0.296506 1.118034 0 1.118034 
z
" style="stroke: #000000; stroke-opacity: 0.7"/>
    </defs>
    <g clip-path="url(#p58a9f754ee)">
     <use xlink:href="#m0eca01f78a" x="155.918584" y="211.265428" style="fill-opacity: 0.7; stroke: #000000; stroke-opacity: 0.7"/>
    </g>
   </g>
   <g id="PathCollection_2">
    <g clip-path="url(#p58a9f754ee)">
     <use xlink:href="#m0eca01f78a" x="159.409776" y="209.403248" style="fill-opacity: 0.7; stroke: #000000; stroke-opacity: 0.7"/>
    </g>
   </g>
   <g id="PathCollection_3">
    <g clip-path="url(#p58a9f754ee)">
     <use xlink:href="#m0eca01f78a" x="159.126762" y="216.548025" style="fill-opacity: 0.7; stroke: #000000; stroke-opacity: 0.7"/>
    </g>
   </g>
   <g id="PathCollection_4">
    <g clip-path="url(#p58a9f754ee)">
     <use xlink:href="#m0eca01f78a" x="164.913913" y="212.473593" style="fill-opacity: 0.7; stroke: #000000; stroke-opacity: 0.7"/>
    </g>
   </g>
   <g id="PathCollection_5">
    <g clip-path="url(#p58a9f754ee)">
     <use xlink:href="#m0eca01f78a" x="180.421096" y="199.083176" style="fill-opacity: 0.7; stroke: #000000; stroke-opacity: 0.7"/>
    </g>
   </g>
   <g id="PathCollection_6">
    <g clip-path="url(#p58a9f754ee)">
     <use xlink:href="#m0eca01f78a" x="211.31066" y="186.608288" style="fill-opacity: 0.7; stroke: #000000; stroke-opacity: 0.7"/>
    </g>
   </g>
   <g id="PathCollection_7">
    <g clip-path="url(#p58a9f754ee)">
     <use xlink:href="#m0eca01f78a" x="246.144612" y="187.94091" style="fill-opacity: 0.7; stroke: #000000; stroke-opacity: 0.7"/>
    </g>
   </g>
   <g id="PathCollection_8">
    <g clip-path="url(#p58a9f754ee)">
     <use xlink:href="#m0eca01f78a" x="249.815102" y="202.208248" style="fill-opacity: 0.7; stroke: #000000; stroke-opacity: 0.7"/>
    </g>
   </g>
   <g id="PathCollection_9">
    <g clip-path="url(#p58a9f754ee)">
     <use xlink:href="#m0eca01f78a" x="262.956989" y="216.606573" style="fill-opacity: 0.7; stroke: #000000; stroke-opacity: 0.7"/>
    </g>
   </g>
   <g id="PathCollection_10">
    <g clip-path="url(#p58a9f754ee)">
     <use xlink:href="#m0eca01f78a" x="154.472359" y="221.577095" style="fill-opacity: 0.7; stroke: #000000; stroke-opacity: 0.7"/>
    </g>
   </g>
   <g id="PathCollection_11">
    <g clip-path="url(#p58a9f754ee)">
     <use xlink:href="#m0eca01f78a" x="155.235012" y="223.426032" style="fill-opacity: 0.7; stroke: #000000; stroke-opacity: 0.7"/>
    </g>
   </g>
   <g id="PathCollection_12">
    <g clip-path="url(#p58a9f754ee)">
     <use xlink:href="#m0eca01f78a" x="159.143608" y="216.588265" style="fill-opacity: 0.7; stroke: #000000; stroke-opacity: 0.7"/>
    </g>
   </g>
   <g id="PathCollection_13">
    <g clip-path="url(#p58a9f754ee)">
     <use xlink:href="#m0eca01f78a" x="161.349968" y="217.504364" style="fill-opacity: 0.7; stroke: #000000; stroke-opacity: 0.7"/>
    </g>
   </g>
   <g id="PathCollection_14">
    <g clip-path="url(#p58a9f754ee)">
     <use xlink:href="#m0eca01f78a" x="176.536768" y="205.92459" style="fill-opacity: 0.7; stroke: #000000; stroke-opacity: 0.7"/>
    </g>
   </g>
   <g id="PathCollection_15">
    <g clip-path="url(#p58a9f754ee)">
     <use xlink:href="#m0eca01f78a" x="207.931978" y="193.111683" style="fill-opacity: 0.7; stroke: #000000; stroke-opacity: 0.7"/>
    </g>
   </g>
   <g id="PathCollection_16">
    <g clip-path="url(#p58a9f754ee)">
     <use xlink:href="#m0eca01f78a" x="234.634125" y="186.782005" style="fill-opacity: 0.7; stroke: #000000; stroke-opacity: 0.7"/>
    </g>
   </g>
   <g id="PathCollection_17">
    <g clip-path="url(#p58a9f754ee)">
     <use xlink:href="#m0eca01f78a" x="281.515746" y="192.701813" style="fill-opacity: 0.7; stroke: #000000; stroke-opacity: 0.7"/>
    </g>
   </g>
   <g id="PathCollection_18">
    <g clip-path="url(#p58a9f754ee)">
     <use xlink:href="#m0eca01f78a" x="293.769223" y="218.937817" style="fill-opacity: 0.7; stroke: #000000; stroke-opacity: 0.7"/>
    </g>
   </g>
   <g id="PathCollection_19">
    <g clip-path="url(#p58a9f754ee)">
     <use xlink:href="#m0eca01f78a" x="156.330084" y="206.953757" style="fill-opacity: 0.7; stroke: #000000; stroke-opacity: 0.7"/>
    </g>
   </g>
   <g id="PathCollection_20">
    <g clip-path="url(#p58a9f754ee)">
     <use xlink:href="#m0eca01f78a" x="161.374948" y="200.232198" style="fill-opacity: 0.7; stroke: #000000; stroke-opacity: 0.7"/>
    </g>
   </g>
   <g id="PathCollection_21">
    <g clip-path="url(#p58a9f754ee)">
     <use xlink:href="#m0eca01f78a" x="168.830734" y="193.135867" style="fill-opacity: 0.7; stroke: #000000; stroke-opacity: 0.7"/>
    </g>
   </g>
   <g id="PathCollection_22">
    <g clip-path="url(#p58a9f754ee)">
     <use xlink:href="#m0eca01f78a" x="191.975301" y="171.591758" style="fill-opacity: 0.7; stroke: #000000; stroke-opacity: 0.7"/>
    </g>
   </g>
   <g id="PathCollection_23">
    <g clip-path="url(#p58a9f754ee)">
     <use xlink:href="#m0eca01f78a" x="191.255593" y="189.677551" style="fill-opacity: 0.7; stroke: #000000; stroke-opacity: 0.7"/>
    </g>
   </g>
   <g id="PathCollection_24">
    <g clip-path="url(#p58a9f754ee)">
     <use xlink:href="#m0eca01f78a" x="209.049757" y="186.770826" style="fill-opacity: 0.7; stroke: #000000; stroke-opacity: 0.7"/>
    </g>
   </g>
   <g id="PathCollection_25">
    <g clip-path="url(#p58a9f754ee)">
     <use xlink:href="#m0eca01f78a" x="205.424889" y="206.198832" style="fill-opacity: 0.7; stroke: #000000; stroke-opacity: 0.7"/>
    </g>
   </g>
   <g id="PathCollection_26">
    <g clip-path="url(#p58a9f754ee)">
     <use xlink:href="#m0eca01f78a" x="202.03376" y="214.153757" style="fill-opacity: 0.7; stroke: #000000; stroke-opacity: 0.7"/>
    </g>
   </g>
   <g id="PathCollection_27">
    <g clip-path="url(#p58a9f754ee)">
     <use xlink:href="#m0eca01f78a" x="212.178201" y="224.052429" style="fill-opacity: 0.7; stroke: #000000; stroke-opacity: 0.7"/>
    </g>
   </g>
   <g id="LineCollection_2">
    <path d="M 152.588281 210.112091 
L 150.62468 187.668034 
" clip-path="url(#p58a9f754ee)" style="fill: none; stroke: #000000; stroke-width: 2"/>
    <path d="M 147.640495 203.407086 
L 143.291505 187.176436 
" clip-path="url(#p58a9f754ee)" style="fill: none; stroke: #000000; stroke-width: 2"/>
    <path d="M 147.162479 212.662127 
L 139.339769 195.886269 
" clip-path="url(#p58a9f754ee)" style="fill: none; stroke: #000000; stroke-width: 2"/>
    <path d="M 142.973017 211.660172 
L 129.279274 192.103479 
" clip-path="url(#p58a9f754ee)" style="fill: none; stroke: #000000; stroke-width: 2"/>
    <path d="M 133.814406 207.272406 
L 111.155908 184.613908 
" clip-path="url(#p58a9f754ee)" style="fill: none; stroke: #000000; stroke-width: 2"/>
    <path d="M 113.126934 198.873147 
L 106.656595 194.342567 
" clip-path="url(#p58a9f754ee)" style="fill: none; stroke: #000000; stroke-width: 2"/>
    <path d="M 97.986744 201.400498 
L 81.630349 193.773386 
" clip-path="url(#p58a9f754ee)" style="fill: none; stroke: #000000; stroke-width: 2"/>
    <path d="M 101.432876 213.4576 
L 62.770673 203.098093 
" clip-path="url(#p58a9f754ee)" style="fill: none; stroke: #000000; stroke-width: 2"/>
    <path d="M 90.206181 221.982615 
L 65.386295 219.811157 
" clip-path="url(#p58a9f754ee)" style="fill: none; stroke: #000000; stroke-width: 2"/>
   </g>
   <g id="line2d_29">
    <defs>
     <path id="m0e8f8abd2d" d="M -2.988584 0.261467 
L 2.988584 -0.261467 
" style="stroke: #000000"/>
    </defs>
    <g clip-path="url(#p58a9f754ee)">
     <use xlink:href="#m0e8f8abd2d" x="152.588281" y="210.112091" style="fill: #1f77b4; stroke: #000000"/>
    </g>
   </g>
   <g id="line2d_30">
    <defs>
     <path id="m5a9722bccc" d="M -2.897777 0.776457 
L 2.897777 -0.776457 
" style="stroke: #000000"/>
    </defs>
    <g clip-path="url(#p58a9f754ee)">
     <use xlink:href="#m5a9722bccc" x="147.640495" y="203.407086" style="fill: #1f77b4; stroke: #000000"/>
    </g>
   </g>
   <g id="line2d_31">
    <defs>
     <path id="mfc684240b6" d="M -2.718923 1.267855 
L 2.718923 -1.267855 
" style="stroke: #000000"/>
    </defs>
    <g clip-path="url(#p58a9f754ee)">
     <use xlink:href="#mfc684240b6" x="147.162479" y="212.662127" style="fill: #1f77b4; stroke: #000000"/>
    </g>
   </g>
   <g id="line2d_32">
    <defs>
     <path id="m4a569046ca" d="M -2.457456 1.720729 
L 2.457456 -1.720729 
" style="stroke: #000000"/>
    </defs>
    <g clip-path="url(#p58a9f754ee)">
     <use xlink:href="#m4a569046ca" x="142.973017" y="211.660172" style="fill: #1f77b4; stroke: #000000"/>
    </g>
   </g>
   <g id="line2d_33">
    <defs>
     <path id="m29cc62fdc4" d="M -2.12132 2.12132 
L 2.12132 -2.12132 
" style="stroke: #000000"/>
    </defs>
    <g clip-path="url(#p58a9f754ee)">
     <use xlink:href="#m29cc62fdc4" x="133.814406" y="207.272406" style="fill: #1f77b4; stroke: #000000"/>
    </g>
   </g>
   <g id="line2d_34">
    <defs>
     <path id="m86a8185e78" d="M -1.720729 2.457456 
L 1.720729 -2.457456 
" style="stroke: #000000"/>
    </defs>
    <g clip-path="url(#p58a9f754ee)">
     <use xlink:href="#m86a8185e78" x="113.126934" y="198.873147" style="fill: #1f77b4; stroke: #000000"/>
    </g>
   </g>
   <g id="line2d_35">
    <defs>
     <path id="m2a784bc4e7" d="M -1.267855 2.718923 
L 1.267855 -2.718923 
" style="stroke: #000000"/>
    </defs>
    <g clip-path="url(#p58a9f754ee)">
     <use xlink:href="#m2a784bc4e7" x="97.986744" y="201.400498" style="fill: #1f77b4; stroke: #000000"/>
    </g>
   </g>
   <g id="line2d_36">
    <defs>
     <path id="m29615e26eb" d="M -0.776457 2.897777 
L 0.776457 -2.897777 
" style="stroke: #000000"/>
    </defs>
    <g clip-path="url(#p58a9f754ee)">
     <use xlink:href="#m29615e26eb" x="101.432876" y="213.4576" style="fill: #1f77b4; stroke: #000000"/>
    </g>
   </g>
   <g id="line2d_37">
    <defs>
     <path id="ma43f131c61" d="M -0.261467 2.988584 
L 0.261467 -2.988584 
" style="stroke: #000000"/>
    </defs>
    <g clip-path="url(#p58a9f754ee)">
     <use xlink:href="#ma43f131c61" x="90.206181" y="221.982615" style="fill: #1f77b4; stroke: #000000"/>
    </g>
   </g>
   <g id="line2d_38">
    <g clip-path="url(#p58a9f754ee)">
     <use xlink:href="#m0e8f8abd2d" x="150.62468" y="187.668034" style="fill: #1f77b4; stroke: #000000"/>
    </g>
   </g>
   <g id="line2d_39">
    <g clip-path="url(#p58a9f754ee)">
     <use xlink:href="#m5a9722bccc" x="143.291505" y="187.176436" style="fill: #1f77b4; stroke: #000000"/>
    </g>
   </g>
   <g id="line2d_40">
    <g clip-path="url(#p58a9f754ee)">
     <use xlink:href="#mfc684240b6" x="139.339769" y="195.886269" style="fill: #1f77b4; stroke: #000000"/>
    </g>
   </g>
   <g id="line2d_41">
    <g clip-path="url(#p58a9f754ee)">
     <use xlink:href="#m4a569046ca" x="129.279274" y="192.103479" style="fill: #1f77b4; stroke: #000000"/>
    </g>
   </g>
   <g id="line2d_42">
    <g clip-path="url(#p58a9f754ee)">
     <use xlink:href="#m29cc62fdc4" x="111.155908" y="184.613908" style="fill: #1f77b4; stroke: #000000"/>
    </g>
   </g>
   <g id="line2d_43">
    <g clip-path="url(#p58a9f754ee)">
     <use xlink:href="#m86a8185e78" x="106.656595" y="194.342567" style="fill: #1f77b4; stroke: #000000"/>
    </g>
   </g>
   <g id="line2d_44">
    <g clip-path="url(#p58a9f754ee)">
     <use xlink:href="#m2a784bc4e7" x="81.630349" y="193.773386" style="fill: #1f77b4; stroke: #000000"/>
    </g>
   </g>
   <g id="line2d_45">
    <g clip-path="url(#p58a9f754ee)">
     <use xlink:href="#m29615e26eb" x="62.770673" y="203.098093" style="fill: #1f77b4; stroke: #000000"/>
    </g>
   </g>
   <g id="line2d_46">
    <g clip-path="url(#p58a9f754ee)">
     <use xlink:href="#ma43f131c61" x="65.386295" y="219.811157" style="fill: #1f77b4; stroke: #000000"/>
    </g>
   </g>
   <g id="PathCollection_28">
    <g clip-path="url(#p58a9f754ee)">
     <use xlink:href="#m0eca01f78a" x="151.878948" y="207.093438" style="fill-opacity: 0.7; stroke: #000000; stroke-opacity: 0.7"/>
    </g>
   </g>
   <g id="PathCollection_29">
    <g clip-path="url(#p58a9f754ee)">
     <use xlink:href="#m0eca01f78a" x="141.576505" y="181.861883" style="fill-opacity: 0.7; stroke: #000000; stroke-opacity: 0.7"/>
    </g>
   </g>
   <g id="PathCollection_30">
    <g clip-path="url(#p58a9f754ee)">
     <use xlink:href="#m0eca01f78a" x="147.606179" y="212.321081" style="fill-opacity: 0.7; stroke: #000000; stroke-opacity: 0.7"/>
    </g>
   </g>
   <g id="PathCollection_31">
    <g clip-path="url(#p58a9f754ee)">
     <use xlink:href="#m0eca01f78a" x="141.828288" y="211.181729" style="fill-opacity: 0.7; stroke: #000000; stroke-opacity: 0.7"/>
    </g>
   </g>
   <g id="PathCollection_32">
    <g clip-path="url(#p58a9f754ee)">
     <use xlink:href="#m0eca01f78a" x="132.64766" y="205.69045" style="fill-opacity: 0.7; stroke: #000000; stroke-opacity: 0.7"/>
    </g>
   </g>
   <g id="PathCollection_33">
    <g clip-path="url(#p58a9f754ee)">
     <use xlink:href="#m0eca01f78a" x="116.437832" y="199.12445" style="fill-opacity: 0.7; stroke: #000000; stroke-opacity: 0.7"/>
    </g>
   </g>
   <g id="PathCollection_34">
    <g clip-path="url(#p58a9f754ee)">
     <use xlink:href="#m0eca01f78a" x="86.762661" y="195.665148" style="fill-opacity: 0.7; stroke: #000000; stroke-opacity: 0.7"/>
    </g>
   </g>
   <g id="PathCollection_35">
    <g clip-path="url(#p58a9f754ee)">
     <use xlink:href="#m0eca01f78a" x="61.669814" y="200.295989" style="fill-opacity: 0.7; stroke: #000000; stroke-opacity: 0.7"/>
    </g>
   </g>
   <g id="PathCollection_36">
    <g clip-path="url(#p58a9f754ee)">
     <use xlink:href="#m0eca01f78a" x="70.550341" y="217.895317" style="fill-opacity: 0.7; stroke: #000000; stroke-opacity: 0.7"/>
    </g>
   </g>
   <g id="PathCollection_37">
    <g clip-path="url(#p58a9f754ee)">
     <use xlink:href="#m0eca01f78a" x="151.154294" y="194.195005" style="fill-opacity: 0.7; stroke: #000000; stroke-opacity: 0.7"/>
    </g>
   </g>
   <g id="PathCollection_38">
    <g clip-path="url(#p58a9f754ee)">
     <use xlink:href="#m0eca01f78a" x="145.133241" y="197.648833" style="fill-opacity: 0.7; stroke: #000000; stroke-opacity: 0.7"/>
    </g>
   </g>
   <g id="PathCollection_39">
    <g clip-path="url(#p58a9f754ee)">
     <use xlink:href="#m0eca01f78a" x="144.611478" y="206.387941" style="fill-opacity: 0.7; stroke: #000000; stroke-opacity: 0.7"/>
    </g>
   </g>
   <g id="PathCollection_40">
    <g clip-path="url(#p58a9f754ee)">
     <use xlink:href="#m0eca01f78a" x="129.856811" y="194.965955" style="fill-opacity: 0.7; stroke: #000000; stroke-opacity: 0.7"/>
    </g>
   </g>
   <g id="PathCollection_41">
    <g clip-path="url(#p58a9f754ee)">
     <use xlink:href="#m0eca01f78a" x="126.381328" y="200.889079" style="fill-opacity: 0.7; stroke: #000000; stroke-opacity: 0.7"/>
    </g>
   </g>
   <g id="PathCollection_42">
    <g clip-path="url(#p58a9f754ee)">
     <use xlink:href="#m0eca01f78a" x="109.107122" y="195.896111" style="fill-opacity: 0.7; stroke: #000000; stroke-opacity: 0.7"/>
    </g>
   </g>
   <g id="PathCollection_43">
    <g clip-path="url(#p58a9f754ee)">
     <use xlink:href="#m0eca01f78a" x="96.971069" y="203.254572" style="fill-opacity: 0.7; stroke: #000000; stroke-opacity: 0.7"/>
    </g>
   </g>
   <g id="PathCollection_44">
    <g clip-path="url(#p58a9f754ee)">
     <use xlink:href="#m0eca01f78a" x="92.521943" y="211.091267" style="fill-opacity: 0.7; stroke: #000000; stroke-opacity: 0.7"/>
    </g>
   </g>
   <g id="PathCollection_45">
    <g clip-path="url(#p58a9f754ee)">
     <use xlink:href="#m0eca01f78a" x="80.578011" y="223.96951" style="fill-opacity: 0.7; stroke: #000000; stroke-opacity: 0.7"/>
    </g>
   </g>
   <g id="PathCollection_46">
    <g clip-path="url(#p58a9f754ee)">
     <use xlink:href="#m0eca01f78a" x="149.163653" y="183.012771" style="fill-opacity: 0.7; stroke: #000000; stroke-opacity: 0.7"/>
    </g>
   </g>
   <g id="PathCollection_47">
    <g clip-path="url(#p58a9f754ee)">
     <use xlink:href="#m0eca01f78a" x="145.746721" y="197.619065" style="fill-opacity: 0.7; stroke: #000000; stroke-opacity: 0.7"/>
    </g>
   </g>
   <g id="PathCollection_48">
    <g clip-path="url(#p58a9f754ee)">
     <use xlink:href="#m0eca01f78a" x="136.779585" y="190.170884" style="fill-opacity: 0.7; stroke: #000000; stroke-opacity: 0.7"/>
    </g>
   </g>
   <g id="PathCollection_49">
    <g clip-path="url(#p58a9f754ee)">
     <use xlink:href="#m0eca01f78a" x="128.077779" y="190.751638" style="fill-opacity: 0.7; stroke: #000000; stroke-opacity: 0.7"/>
    </g>
   </g>
   <g id="PathCollection_50">
    <g clip-path="url(#p58a9f754ee)">
     <use xlink:href="#m0eca01f78a" x="102.567486" y="176.867737" style="fill-opacity: 0.7; stroke: #000000; stroke-opacity: 0.7"/>
    </g>
   </g>
   <g id="PathCollection_51">
    <g clip-path="url(#p58a9f754ee)">
     <use xlink:href="#m0eca01f78a" x="109.001578" y="194.796902" style="fill-opacity: 0.7; stroke: #000000; stroke-opacity: 0.7"/>
    </g>
   </g>
   <g id="PathCollection_52">
    <g clip-path="url(#p58a9f754ee)">
     <use xlink:href="#m0eca01f78a" x="96.573761" y="199.196532" style="fill-opacity: 0.7; stroke: #000000; stroke-opacity: 0.7"/>
    </g>
   </g>
   <g id="PathCollection_53">
    <g clip-path="url(#p58a9f754ee)">
     <use xlink:href="#m0eca01f78a" x="108.452876" y="215.483509" style="fill-opacity: 0.7; stroke: #000000; stroke-opacity: 0.7"/>
    </g>
   </g>
   <g id="PathCollection_54">
    <g clip-path="url(#p58a9f754ee)">
     <use xlink:href="#m0eca01f78a" x="96.806694" y="221.50694" style="fill-opacity: 0.7; stroke: #000000; stroke-opacity: 0.7"/>
    </g>
   </g>
   <g id="PathCollection_55">
    <g clip-path="url(#p58a9f754ee)">
     <use xlink:href="#m0eca01f78a" x="152.208746" y="211.120017" style="fill-opacity: 0.7; stroke: #000000; stroke-opacity: 0.7"/>
    </g>
   </g>
   <g id="PathCollection_56">
    <g clip-path="url(#p58a9f754ee)">
     <use xlink:href="#m0eca01f78a" x="147.085448" y="203.479962" style="fill-opacity: 0.7; stroke: #000000; stroke-opacity: 0.7"/>
    </g>
   </g>
   <g id="PathCollection_57">
    <g clip-path="url(#p58a9f754ee)">
     <use xlink:href="#m0eca01f78a" x="144.846246" y="206.99632" style="fill-opacity: 0.7; stroke: #000000; stroke-opacity: 0.7"/>
    </g>
   </g>
   <g id="PathCollection_58">
    <g clip-path="url(#p58a9f754ee)">
     <use xlink:href="#m0eca01f78a" x="143.876596" y="212.544591" style="fill-opacity: 0.7; stroke: #000000; stroke-opacity: 0.7"/>
    </g>
   </g>
   <g id="PathCollection_59">
    <g clip-path="url(#p58a9f754ee)">
     <use xlink:href="#m0eca01f78a" x="127.923008" y="202.223122" style="fill-opacity: 0.7; stroke: #000000; stroke-opacity: 0.7"/>
    </g>
   </g>
   <g id="PathCollection_60">
    <g clip-path="url(#p58a9f754ee)">
     <use xlink:href="#m0eca01f78a" x="106.937429" y="195.410217" style="fill-opacity: 0.7; stroke: #000000; stroke-opacity: 0.7"/>
    </g>
   </g>
   <g id="PathCollection_61">
    <g clip-path="url(#p58a9f754ee)">
     <use xlink:href="#m0eca01f78a" x="77.328378" y="194.033514" style="fill-opacity: 0.7; stroke: #000000; stroke-opacity: 0.7"/>
    </g>
   </g>
   <g id="PathCollection_62">
    <g clip-path="url(#p58a9f754ee)">
     <use xlink:href="#m0eca01f78a" x="66.54981" y="205.84781" style="fill-opacity: 0.7; stroke: #000000; stroke-opacity: 0.7"/>
    </g>
   </g>
   <g id="PathCollection_63">
    <g clip-path="url(#p58a9f754ee)">
     <use xlink:href="#m0eca01f78a" x="64.76005" y="216.686148" style="fill-opacity: 0.7; stroke: #000000; stroke-opacity: 0.7"/>
    </g>
   </g>
   <g id="patch_21">
    <path d="M 301.032 227.574 
C 301.032 188.624398 285.542828 151.230228 258.0013 123.6887 
C 230.459772 96.147172 193.065602 80.658 154.116 80.658 
C 115.166398 80.658 77.772228 96.147172 50.2307 123.6887 
C 22.689172 151.230228 7.2 188.624398 7.2 227.574 
" style="fill: none; stroke: #000000; stroke-width: 0.8; stroke-linejoin: miter; stroke-linecap: square"/>
   </g>
   <g id="patch_22">
    <path d="M 154.116 227.574 
L 301.032 227.574 
" style="fill: none; stroke: #000000; stroke-width: 0.8; stroke-linejoin: miter; stroke-linecap: square"/>
   </g>
   <g id="patch_23">
    <path d="M 154.116 227.574 
L 7.2 227.574 
" style="fill: none; stroke: #000000; stroke-width: 0.8; stroke-linejoin: miter; stroke-linecap: square"/>
   </g>
   <g id="legend_1">
    <g id="patch_24">
     <path d="M 214.102313 44.55625 
L 294.032 44.55625 
Q 296.032 44.55625 296.032 42.55625 
L 296.032 14.2 
Q 296.032 12.2 294.032 12.2 
L 214.102313 12.2 
Q 212.102313 12.2 212.102313 14.2 
L 212.102313 42.55625 
Q 212.102313 44.55625 214.102313 44.55625 
z
" style="fill: #ffffff; opacity: 0.8; stroke: #cccccc; stroke-linejoin: miter"/>
    </g>
    <g id="patch_25">
     <path d="M 216.102313 23.798437 
L 236.102313 23.798437 
L 236.102313 16.798437 
L 216.102313 16.798437 
z
" style="fill: #83bb03; opacity: 0.8; stroke: #000000; stroke-linejoin: miter"/>
    </g>
    <g id="text_1">
     <!-- Control -->
     <g transform="translate(244.102313 23.798437) scale(0.1 -0.1)">
      <defs>
       <path id="DejaVuSans-43" d="M 4122 4306 
L 4122 3641 
Q 3803 3938 3442 4084 
Q 3081 4231 2675 4231 
Q 1875 4231 1450 3742 
Q 1025 3253 1025 2328 
Q 1025 1406 1450 917 
Q 1875 428 2675 428 
Q 3081 428 3442 575 
Q 3803 722 4122 1019 
L 4122 359 
Q 3791 134 3420 21 
Q 3050 -91 2638 -91 
Q 1578 -91 968 557 
Q 359 1206 359 2328 
Q 359 3453 968 4101 
Q 1578 4750 2638 4750 
Q 3056 4750 3426 4639 
Q 3797 4528 4122 4306 
z
" transform="scale(0.015625)"/>
       <path id="DejaVuSans-6f" d="M 1959 3097 
Q 1497 3097 1228 2736 
Q 959 2375 959 1747 
Q 959 1119 1226 758 
Q 1494 397 1959 397 
Q 2419 397 2687 759 
Q 2956 1122 2956 1747 
Q 2956 2369 2687 2733 
Q 2419 3097 1959 3097 
z
M 1959 3584 
Q 2709 3584 3137 3096 
Q 3566 2609 3566 1747 
Q 3566 888 3137 398 
Q 2709 -91 1959 -91 
Q 1206 -91 779 398 
Q 353 888 353 1747 
Q 353 2609 779 3096 
Q 1206 3584 1959 3584 
z
" transform="scale(0.015625)"/>
       <path id="DejaVuSans-6e" d="M 3513 2113 
L 3513 0 
L 2938 0 
L 2938 2094 
Q 2938 2591 2744 2837 
Q 2550 3084 2163 3084 
Q 1697 3084 1428 2787 
Q 1159 2491 1159 1978 
L 1159 0 
L 581 0 
L 581 3500 
L 1159 3500 
L 1159 2956 
Q 1366 3272 1645 3428 
Q 1925 3584 2291 3584 
Q 2894 3584 3203 3211 
Q 3513 2838 3513 2113 
z
" transform="scale(0.015625)"/>
       <path id="DejaVuSans-74" d="M 1172 4494 
L 1172 3500 
L 2356 3500 
L 2356 3053 
L 1172 3053 
L 1172 1153 
Q 1172 725 1289 603 
Q 1406 481 1766 481 
L 2356 481 
L 2356 0 
L 1766 0 
Q 1100 0 847 248 
Q 594 497 594 1153 
L 594 3053 
L 172 3053 
L 172 3500 
L 594 3500 
L 594 4494 
L 1172 4494 
z
" transform="scale(0.015625)"/>
       <path id="DejaVuSans-72" d="M 2631 2963 
Q 2534 3019 2420 3045 
Q 2306 3072 2169 3072 
Q 1681 3072 1420 2755 
Q 1159 2438 1159 1844 
L 1159 0 
L 581 0 
L 581 3500 
L 1159 3500 
L 1159 2956 
Q 1341 3275 1631 3429 
Q 1922 3584 2338 3584 
Q 2397 3584 2469 3576 
Q 2541 3569 2628 3553 
L 2631 2963 
z
" transform="scale(0.015625)"/>
       <path id="DejaVuSans-6c" d="M 603 4863 
L 1178 4863 
L 1178 0 
L 603 0 
L 603 4863 
z
" transform="scale(0.015625)"/>
      </defs>
      <use xlink:href="#DejaVuSans-43"/>
      <use xlink:href="#DejaVuSans-6f" transform="translate(69.824219 0)"/>
      <use xlink:href="#DejaVuSans-6e" transform="translate(131.005859 0)"/>
      <use xlink:href="#DejaVuSans-74" transform="translate(194.384766 0)"/>
      <use xlink:href="#DejaVuSans-72" transform="translate(233.59375 0)"/>
      <use xlink:href="#DejaVuSans-6f" transform="translate(272.457031 0)"/>
      <use xlink:href="#DejaVuSans-6c" transform="translate(333.638672 0)"/>
     </g>
    </g>
    <g id="patch_26">
     <path d="M 216.102313 38.476562 
L 236.102313 38.476562 
L 236.102313 31.476562 
L 216.102313 31.476562 
z
" style="fill: #0383bb; opacity: 0.8; stroke: #000000; stroke-linejoin: miter"/>
    </g>
    <g id="text_2">
     <!-- Morphant -->
     <g transform="translate(244.102313 38.476562) scale(0.1 -0.1)">
      <defs>
       <path id="DejaVuSans-4d" d="M 628 4666 
L 1569 4666 
L 2759 1491 
L 3956 4666 
L 4897 4666 
L 4897 0 
L 4281 0 
L 4281 4097 
L 3078 897 
L 2444 897 
L 1241 4097 
L 1241 0 
L 628 0 
L 628 4666 
z
" transform="scale(0.015625)"/>
       <path id="DejaVuSans-70" d="M 1159 525 
L 1159 -1331 
L 581 -1331 
L 581 3500 
L 1159 3500 
L 1159 2969 
Q 1341 3281 1617 3432 
Q 1894 3584 2278 3584 
Q 2916 3584 3314 3078 
Q 3713 2572 3713 1747 
Q 3713 922 3314 415 
Q 2916 -91 2278 -91 
Q 1894 -91 1617 61 
Q 1341 213 1159 525 
z
M 3116 1747 
Q 3116 2381 2855 2742 
Q 2594 3103 2138 3103 
Q 1681 3103 1420 2742 
Q 1159 2381 1159 1747 
Q 1159 1113 1420 752 
Q 1681 391 2138 391 
Q 2594 391 2855 752 
Q 3116 1113 3116 1747 
z
" transform="scale(0.015625)"/>
       <path id="DejaVuSans-68" d="M 3513 2113 
L 3513 0 
L 2938 0 
L 2938 2094 
Q 2938 2591 2744 2837 
Q 2550 3084 2163 3084 
Q 1697 3084 1428 2787 
Q 1159 2491 1159 1978 
L 1159 0 
L 581 0 
L 581 4863 
L 1159 4863 
L 1159 2956 
Q 1366 3272 1645 3428 
Q 1925 3584 2291 3584 
Q 2894 3584 3203 3211 
Q 3513 2838 3513 2113 
z
" transform="scale(0.015625)"/>
       <path id="DejaVuSans-61" d="M 2194 1759 
Q 1497 1759 1228 1600 
Q 959 1441 959 1056 
Q 959 750 1161 570 
Q 1363 391 1709 391 
Q 2188 391 2477 730 
Q 2766 1069 2766 1631 
L 2766 1759 
L 2194 1759 
z
M 3341 1997 
L 3341 0 
L 2766 0 
L 2766 531 
Q 2569 213 2275 61 
Q 1981 -91 1556 -91 
Q 1019 -91 701 211 
Q 384 513 384 1019 
Q 384 1609 779 1909 
Q 1175 2209 1959 2209 
L 2766 2209 
L 2766 2266 
Q 2766 2663 2505 2880 
Q 2244 3097 1772 3097 
Q 1472 3097 1187 3025 
Q 903 2953 641 2809 
L 641 3341 
Q 956 3463 1253 3523 
Q 1550 3584 1831 3584 
Q 2591 3584 2966 3190 
Q 3341 2797 3341 1997 
z
" transform="scale(0.015625)"/>
      </defs>
      <use xlink:href="#DejaVuSans-4d"/>
      <use xlink:href="#DejaVuSans-6f" transform="translate(86.279297 0)"/>
      <use xlink:href="#DejaVuSans-72" transform="translate(147.460938 0)"/>
      <use xlink:href="#DejaVuSans-70" transform="translate(188.574219 0)"/>
      <use xlink:href="#DejaVuSans-68" transform="translate(252.050781 0)"/>
      <use xlink:href="#DejaVuSans-61" transform="translate(315.429688 0)"/>
      <use xlink:href="#DejaVuSans-6e" transform="translate(376.708984 0)"/>
      <use xlink:href="#DejaVuSans-74" transform="translate(440.087891 0)"/>
     </g>
    </g>
   </g>
  </g>
 </g>
 <defs>
  <clipPath id="p58a9f754ee">
   <path d="M 301.032 227.574 
C 301.032 188.624398 285.542828 151.230228 258.0013 123.6887 
C 230.459772 96.147172 193.065602 80.658 154.116 80.658 
C 115.166398 80.658 77.772228 96.147172 50.2307 123.6887 
C 22.689172 151.230228 7.2 188.624398 7.2 227.574 
L 154.116 227.574 
C 154.116 227.574 154.116 227.574 154.116 227.574 
C 154.116 227.574 154.116 227.574 154.116 227.574 
C 154.116 227.574 154.116 227.574 154.116 227.574 
C 154.116 227.574 154.116 227.574 154.116 227.574 
z
"/>
  </clipPath>
 </defs>
</svg>
