<?xml version="1.0" encoding="utf-8" standalone="no"?>
<!DOCTYPE svg PUBLIC "-//W3C//DTD SVG 1.1//EN"
  "http://www.w3.org/Graphics/SVG/1.1/DTD/svg11.dtd">
<svg xmlns:xlink="http://www.w3.org/1999/xlink" width="425.34625pt" height="337.18075pt" viewBox="0 0 425.34625 337.18075" xmlns="http://www.w3.org/2000/svg" version="1.1">
 <metadata>
  <rdf:RDF xmlns:dc="http://purl.org/dc/elements/1.1/" xmlns:cc="http://creativecommons.org/ns#" xmlns:rdf="http://www.w3.org/1999/02/22-rdf-syntax-ns#">
   <cc:Work>
    <dc:type rdf:resource="http://purl.org/dc/dcmitype/StillImage"/>
    <dc:date>2026-02-07T21:00:01.320319</dc:date>
    <dc:format>image/svg+xml</dc:format>
    <dc:creator>
     <cc:Agent>
      <dc:title>Matplotlib v3.10.8, https://matplotlib.org/</dc:title>
     </cc:Agent>
    </dc:creator>
   </cc:Work>
  </rdf:RDF>
 </metadata>
 <defs>
  <style type="text/css">*{stroke-linejoin: round; stroke-linecap: butt}</style>
 </defs>
 <g id="figure_1">
  <g id="patch_1">
   <path d="M 0 337.18075 
L 425.34625 337.18075 
L 425.34625 -0 
L 0 -0 
L 0 337.18075 
z
" style="fill: none"/>
  </g>
  <g id="axes_1">
   <g id="patch_2">
    <path d="M 27.54625 301.032 
L 418.14625 301.032 
L 418.14625 7.2 
L 27.54625 7.2 
L 27.54625 301.032 
z
" style="fill: none"/>
   </g>
   <g id="PathCollection_1">
    <defs>
     <path id="m65daa22fe1" d="M 0 2 
C 0.530406 2 1.03916 1.789267 1.414214 1.414214 
C 1.789267 1.03916 2 0.530406 2 0 
C 2 -0.530406 1.789267 -1.03916 1.414214 -1.414214 
C 1.03916 -1.789267 0.530406 -2 0 -2 
C -0.530406 -2 -1.03916 -1.789267 -1.414214 -1.414214 
C -1.789267 -1.03916 -2 -0.530406 -2 0 
C -2 0.530406 -1.789267 1.03916 -1.414214 1.414214 
C -1.03916 1.789267 -0.530406 2 0 2 
z
" style="stroke: #83bb03"/>
    </defs>
    <g clip-path="url(#p1176e6b95c)">
     <use xlink:href="#m65daa22fe1" x="61.330891" y="274.38795" style="fill: #83bb03; stroke: #83bb03"/>
     <use xlink:href="#m65daa22fe1" x="62.628157" y="263.62916" style="fill: #83bb03; stroke: #83bb03"/>
     <use xlink:href="#m65daa22fe1" x="65.925614" y="275.520454" style="fill: #83bb03; stroke: #83bb03"/>
     <use xlink:href="#m65daa22fe1" x="93.865414" y="234.18405" style="fill: #83bb03; stroke: #83bb03"/>
     <use xlink:href="#m65daa22fe1" x="89.893607" y="243.244084" style="fill: #83bb03; stroke: #83bb03"/>
     <use xlink:href="#m65daa22fe1" x="73.549196" y="221.122501" style="fill: #83bb03; stroke: #83bb03"/>
     <use xlink:href="#m65daa22fe1" x="69.55453" y="273.028945" style="fill: #83bb03; stroke: #83bb03"/>
     <use xlink:href="#m65daa22fe1" x="57.987716" y="266.837922" style="fill: #83bb03; stroke: #83bb03"/>
     <use xlink:href="#m65daa22fe1" x="53.753028" y="275.067453" style="fill: #83bb03; stroke: #83bb03"/>
     <use xlink:href="#m65daa22fe1" x="77.006668" y="267.819426" style="fill: #83bb03; stroke: #83bb03"/>
     <use xlink:href="#m65daa22fe1" x="73.852082" y="260.722399" style="fill: #83bb03; stroke: #83bb03"/>
     <use xlink:href="#m65daa22fe1" x="54.650256" y="275.709205" style="fill: #83bb03; stroke: #83bb03"/>
     <use xlink:href="#m65daa22fe1" x="54.450237" y="276.539708" style="fill: #83bb03; stroke: #83bb03"/>
     <use xlink:href="#m65daa22fe1" x="62.176686" y="276.577458" style="fill: #83bb03; stroke: #83bb03"/>
     <use xlink:href="#m65daa22fe1" x="126.285639" y="237.01531" style="fill: #83bb03; stroke: #83bb03"/>
     <use xlink:href="#m65daa22fe1" x="60.199355" y="260.193897" style="fill: #83bb03; stroke: #83bb03"/>
     <use xlink:href="#m65daa22fe1" x="62.033815" y="255.777131" style="fill: #83bb03; stroke: #83bb03"/>
     <use xlink:href="#m65daa22fe1" x="61.456617" y="271.59444" style="fill: #83bb03; stroke: #83bb03"/>
     <use xlink:href="#m65daa22fe1" x="57.124777" y="271.896441" style="fill: #83bb03; stroke: #83bb03"/>
    </g>
   </g>
   <g id="PathCollection_2">
    <g clip-path="url(#p1176e6b95c)">
     <use xlink:href="#m65daa22fe1" x="53.450142" y="283.070483" style="fill: #83bb03; stroke: #83bb03"/>
     <use xlink:href="#m65daa22fe1" x="50.941332" y="278.540466" style="fill: #83bb03; stroke: #83bb03"/>
     <use xlink:href="#m65daa22fe1" x="49.901233" y="281.258476" style="fill: #83bb03; stroke: #83bb03"/>
     <use xlink:href="#m65daa22fe1" x="51.832845" y="281.409477" style="fill: #83bb03; stroke: #83bb03"/>
     <use xlink:href="#m65daa22fe1" x="58.713499" y="281.711478" style="fill: #83bb03; stroke: #83bb03"/>
     <use xlink:href="#m65daa22fe1" x="59.719309" y="278.313965" style="fill: #83bb03; stroke: #83bb03"/>
     <use xlink:href="#m65daa22fe1" x="73.034861" y="280.767724" style="fill: #83bb03; stroke: #83bb03"/>
     <use xlink:href="#m65daa22fe1" x="45.300795" y="286.203744" style="fill: #83bb03; stroke: #83bb03"/>
     <use xlink:href="#m65daa22fe1" x="81.42423" y="275.935706" style="fill: #83bb03; stroke: #83bb03"/>
     <use xlink:href="#m65daa22fe1" x="52.8558" y="285.259991" style="fill: #83bb03; stroke: #83bb03"/>
     <use xlink:href="#m65daa22fe1" x="56.233264" y="281.560477" style="fill: #83bb03; stroke: #83bb03"/>
     <use xlink:href="#m65daa22fe1" x="59.559294" y="279.974971" style="fill: #83bb03; stroke: #83bb03"/>
     <use xlink:href="#m65daa22fe1" x="58.313461" y="275.897956" style="fill: #83bb03; stroke: #83bb03"/>
     <use xlink:href="#m65daa22fe1" x="46.072297" y="287.676" style="fill: #83bb03; stroke: #83bb03"/>
     <use xlink:href="#m65daa22fe1" x="63.359656" y="283.561235" style="fill: #83bb03; stroke: #83bb03"/>
     <use xlink:href="#m65daa22fe1" x="49.472621" y="285.977244" style="fill: #83bb03; stroke: #83bb03"/>
     <use xlink:href="#m65daa22fe1" x="77.583865" y="278.917967" style="fill: #83bb03; stroke: #83bb03"/>
     <use xlink:href="#m65daa22fe1" x="98.854459" y="268.423428" style="fill: #83bb03; stroke: #83bb03"/>
     <use xlink:href="#m65daa22fe1" x="56.770458" y="283.636735" style="fill: #83bb03; stroke: #83bb03"/>
    </g>
   </g>
   <g id="PathCollection_3">
    <g clip-path="url(#p1176e6b95c)">
     <use xlink:href="#m65daa22fe1" x="124.742635" y="247.50985" style="fill: #83bb03; stroke: #83bb03"/>
     <use xlink:href="#m65daa22fe1" x="172.204292" y="228.106277" style="fill: #83bb03; stroke: #83bb03"/>
     <use xlink:href="#m65daa22fe1" x="109.964087" y="264.648414" style="fill: #83bb03; stroke: #83bb03"/>
     <use xlink:href="#m65daa22fe1" x="156.585663" y="227.993027" style="fill: #83bb03; stroke: #83bb03"/>
     <use xlink:href="#m65daa22fe1" x="227.489549" y="249.359607" style="fill: #83bb03; stroke: #83bb03"/>
     <use xlink:href="#m65daa22fe1" x="177.11333" y="228.93678" style="fill: #83bb03; stroke: #83bb03"/>
     <use xlink:href="#m65daa22fe1" x="166.563755" y="194.1689" style="fill: #83bb03; stroke: #83bb03"/>
     <use xlink:href="#m65daa22fe1" x="183.879687" y="179.786096" style="fill: #83bb03; stroke: #83bb03"/>
     <use xlink:href="#m65daa22fe1" x="203.258673" y="153.927249" style="fill: #83bb03; stroke: #83bb03"/>
     <use xlink:href="#m65daa22fe1" x="400.391705" y="172.84007" style="fill: #83bb03; stroke: #83bb03"/>
     <use xlink:href="#m65daa22fe1" x="319.166838" y="20.556" style="fill: #83bb03; stroke: #83bb03"/>
     <use xlink:href="#m65daa22fe1" x="246.977116" y="119.801122" style="fill: #83bb03; stroke: #83bb03"/>
     <use xlink:href="#m65daa22fe1" x="234.787386" y="198.812167" style="fill: #83bb03; stroke: #83bb03"/>
     <use xlink:href="#m65daa22fe1" x="293.227228" y="172.68907" style="fill: #83bb03; stroke: #83bb03"/>
     <use xlink:href="#m65daa22fe1" x="159.865975" y="219.348244" style="fill: #83bb03; stroke: #83bb03"/>
     <use xlink:href="#m65daa22fe1" x="135.309355" y="242.564581" style="fill: #83bb03; stroke: #83bb03"/>
     <use xlink:href="#m65daa22fe1" x="259.778333" y="211.043213" style="fill: #83bb03; stroke: #83bb03"/>
     <use xlink:href="#m65daa22fe1" x="193.497745" y="209.570958" style="fill: #83bb03; stroke: #83bb03"/>
     <use xlink:href="#m65daa22fe1" x="187.560037" y="213.987724" style="fill: #83bb03; stroke: #83bb03"/>
    </g>
   </g>
   <g id="PathCollection_4">
    <g clip-path="url(#p1176e6b95c)">
     <use xlink:href="#m65daa22fe1" x="79.458329" y="283.032733" style="fill: #83bb03; stroke: #83bb03"/>
     <use xlink:href="#m65daa22fe1" x="66.514241" y="278.464966" style="fill: #83bb03; stroke: #83bb03"/>
     <use xlink:href="#m65daa22fe1" x="50.598442" y="287.487249" style="fill: #83bb03; stroke: #83bb03"/>
     <use xlink:href="#m65daa22fe1" x="69.89742" y="275.784705" style="fill: #83bb03; stroke: #83bb03"/>
     <use xlink:href="#m65daa22fe1" x="68.057245" y="274.123699" style="fill: #83bb03; stroke: #83bb03"/>
     <use xlink:href="#m65daa22fe1" x="83.081531" y="277.521212" style="fill: #83bb03; stroke: #83bb03"/>
     <use xlink:href="#m65daa22fe1" x="105.712254" y="268.196927" style="fill: #83bb03; stroke: #83bb03"/>
     <use xlink:href="#m65daa22fe1" x="92.733877" y="272.651444" style="fill: #83bb03; stroke: #83bb03"/>
     <use xlink:href="#m65daa22fe1" x="55.336035" y="283.787735" style="fill: #83bb03; stroke: #83bb03"/>
     <use xlink:href="#m65daa22fe1" x="62.953903" y="281.484977" style="fill: #83bb03; stroke: #83bb03"/>
     <use xlink:href="#m65daa22fe1" x="73.720641" y="277.709963" style="fill: #83bb03; stroke: #83bb03"/>
     <use xlink:href="#m65daa22fe1" x="63.702545" y="278.276215" style="fill: #83bb03; stroke: #83bb03"/>
     <use xlink:href="#m65daa22fe1" x="57.273363" y="283.825486" style="fill: #83bb03; stroke: #83bb03"/>
     <use xlink:href="#m65daa22fe1" x="61.21088" y="284.051986" style="fill: #83bb03; stroke: #83bb03"/>
     <use xlink:href="#m65daa22fe1" x="65.365561" y="279.333219" style="fill: #83bb03; stroke: #83bb03"/>
     <use xlink:href="#m65daa22fe1" x="70.983238" y="277.634462" style="fill: #83bb03; stroke: #83bb03"/>
     <use xlink:href="#m65daa22fe1" x="51.861419" y="282.994982" style="fill: #83bb03; stroke: #83bb03"/>
     <use xlink:href="#m65daa22fe1" x="49.066868" y="285.448742" style="fill: #83bb03; stroke: #83bb03"/>
    </g>
   </g>
   <g id="PathCollection_5">
    <g clip-path="url(#p1176e6b95c)">
     <use xlink:href="#m65daa22fe1" x="85.161729" y="278.162964" style="fill: #83bb03; stroke: #83bb03"/>
     <use xlink:href="#m65daa22fe1" x="67.37718" y="277.747713" style="fill: #83bb03; stroke: #83bb03"/>
     <use xlink:href="#m65daa22fe1" x="79.149728" y="278.804717" style="fill: #83bb03; stroke: #83bb03"/>
     <use xlink:href="#m65daa22fe1" x="100.01457" y="272.424943" style="fill: #83bb03; stroke: #83bb03"/>
     <use xlink:href="#m65daa22fe1" x="122.628149" y="235.958306" style="fill: #83bb03; stroke: #83bb03"/>
     <use xlink:href="#m65daa22fe1" x="95.379843" y="276.841709" style="fill: #83bb03; stroke: #83bb03"/>
     <use xlink:href="#m65daa22fe1" x="125.799879" y="270.990438" style="fill: #83bb03; stroke: #83bb03"/>
     <use xlink:href="#m65daa22fe1" x="113.227255" y="274.652201" style="fill: #83bb03; stroke: #83bb03"/>
     <use xlink:href="#m65daa22fe1" x="196.800916" y="261.930404" style="fill: #83bb03; stroke: #83bb03"/>
     <use xlink:href="#m65daa22fe1" x="102.900558" y="274.2747" style="fill: #83bb03; stroke: #83bb03"/>
     <use xlink:href="#m65daa22fe1" x="98.888748" y="268.083677" style="fill: #83bb03; stroke: #83bb03"/>
     <use xlink:href="#m65daa22fe1" x="96.465661" y="282.126729" style="fill: #83bb03; stroke: #83bb03"/>
    </g>
   </g>
   <g id="matplotlib.axis_1">
    <g id="xtick_1">
     <g id="line2d_1">
      <defs>
       <path id="mdfbaa2982f" d="M 0 0 
L 0 3.5 
" style="stroke: #000000; stroke-width: 0.8"/>
      </defs>
      <g>
       <use xlink:href="#mdfbaa2982f" x="27.870567" y="301.032" style="stroke: #000000; stroke-width: 0.8"/>
      </g>
     </g>
     <g id="text_1">
      <!-- 0 -->
      <g transform="translate(21.197442 325.21075) scale(0.24 -0.24)">
       <defs>
        <path id="ArialMT-30" d="M 266 2259 
Q 266 3072 433 3567 
Q 600 4063 929 4331 
Q 1259 4600 1759 4600 
Q 2128 4600 2406 4451 
Q 2684 4303 2865 4023 
Q 3047 3744 3150 3342 
Q 3253 2941 3253 2259 
Q 3253 1453 3087 958 
Q 2922 463 2592 192 
Q 2263 -78 1759 -78 
Q 1097 -78 719 397 
Q 266 969 266 2259 
z
M 844 2259 
Q 844 1131 1108 757 
Q 1372 384 1759 384 
Q 2147 384 2411 759 
Q 2675 1134 2675 2259 
Q 2675 3391 2411 3762 
Q 2147 4134 1753 4134 
Q 1366 4134 1134 3806 
Q 844 3388 844 2259 
z
" transform="scale(0.015625)"/>
       </defs>
       <use xlink:href="#ArialMT-30"/>
      </g>
     </g>
    </g>
    <g id="xtick_2">
     <g id="line2d_2">
      <g>
       <use xlink:href="#mdfbaa2982f" x="142.16715" y="301.032" style="stroke: #000000; stroke-width: 0.8"/>
      </g>
     </g>
     <g id="text_2">
      <!-- 20 -->
      <g transform="translate(128.8209 325.21075) scale(0.24 -0.24)">
       <defs>
        <path id="ArialMT-32" d="M 3222 541 
L 3222 0 
L 194 0 
Q 188 203 259 391 
Q 375 700 629 1000 
Q 884 1300 1366 1694 
Q 2113 2306 2375 2664 
Q 2638 3022 2638 3341 
Q 2638 3675 2398 3904 
Q 2159 4134 1775 4134 
Q 1369 4134 1125 3890 
Q 881 3647 878 3216 
L 300 3275 
Q 359 3922 746 4261 
Q 1134 4600 1788 4600 
Q 2447 4600 2831 4234 
Q 3216 3869 3216 3328 
Q 3216 3053 3103 2787 
Q 2991 2522 2730 2228 
Q 2469 1934 1863 1422 
Q 1356 997 1212 845 
Q 1069 694 975 541 
L 3222 541 
z
" transform="scale(0.015625)"/>
       </defs>
       <use xlink:href="#ArialMT-32"/>
       <use xlink:href="#ArialMT-30" transform="translate(55.615234 0)"/>
      </g>
     </g>
    </g>
    <g id="xtick_3">
     <g id="line2d_3">
      <g>
       <use xlink:href="#mdfbaa2982f" x="256.463732" y="301.032" style="stroke: #000000; stroke-width: 0.8"/>
      </g>
     </g>
     <g id="text_3">
      <!-- 40 -->
      <g transform="translate(243.117482 325.21075) scale(0.24 -0.24)">
       <defs>
        <path id="ArialMT-34" d="M 2069 0 
L 2069 1097 
L 81 1097 
L 81 1613 
L 2172 4581 
L 2631 4581 
L 2631 1613 
L 3250 1613 
L 3250 1097 
L 2631 1097 
L 2631 0 
L 2069 0 
z
M 2069 1613 
L 2069 3678 
L 634 1613 
L 2069 1613 
z
" transform="scale(0.015625)"/>
       </defs>
       <use xlink:href="#ArialMT-34"/>
       <use xlink:href="#ArialMT-30" transform="translate(55.615234 0)"/>
      </g>
     </g>
    </g>
    <g id="xtick_4">
     <g id="line2d_4">
      <g>
       <use xlink:href="#mdfbaa2982f" x="370.760315" y="301.032" style="stroke: #000000; stroke-width: 0.8"/>
      </g>
     </g>
     <g id="text_4">
      <!-- 60 -->
      <g transform="translate(357.414065 325.21075) scale(0.24 -0.24)">
       <defs>
        <path id="ArialMT-36" d="M 3184 3459 
L 2625 3416 
Q 2550 3747 2413 3897 
Q 2184 4138 1850 4138 
Q 1581 4138 1378 3988 
Q 1113 3794 959 3422 
Q 806 3050 800 2363 
Q 1003 2672 1297 2822 
Q 1591 2972 1913 2972 
Q 2475 2972 2870 2558 
Q 3266 2144 3266 1488 
Q 3266 1056 3080 686 
Q 2894 316 2569 119 
Q 2244 -78 1831 -78 
Q 1128 -78 684 439 
Q 241 956 241 2144 
Q 241 3472 731 4075 
Q 1159 4600 1884 4600 
Q 2425 4600 2770 4297 
Q 3116 3994 3184 3459 
z
M 888 1484 
Q 888 1194 1011 928 
Q 1134 663 1356 523 
Q 1578 384 1822 384 
Q 2178 384 2434 671 
Q 2691 959 2691 1453 
Q 2691 1928 2437 2201 
Q 2184 2475 1800 2475 
Q 1419 2475 1153 2201 
Q 888 1928 888 1484 
z
" transform="scale(0.015625)"/>
       </defs>
       <use xlink:href="#ArialMT-36"/>
       <use xlink:href="#ArialMT-30" transform="translate(55.615234 0)"/>
      </g>
     </g>
    </g>
    <g id="xtick_5">
     <g id="line2d_5">
      <defs>
       <path id="mb5417365c8" d="M 0 0 
L 0 2 
" style="stroke: #000000; stroke-width: 0.6"/>
      </defs>
      <g>
       <use xlink:href="#mb5417365c8" x="56.444712" y="301.032" style="stroke: #000000; stroke-width: 0.6"/>
      </g>
     </g>
    </g>
    <g id="xtick_6">
     <g id="line2d_6">
      <g>
       <use xlink:href="#mb5417365c8" x="70.731785" y="301.032" style="stroke: #000000; stroke-width: 0.6"/>
      </g>
     </g>
    </g>
    <g id="xtick_7">
     <g id="line2d_7">
      <g>
       <use xlink:href="#mb5417365c8" x="85.018858" y="301.032" style="stroke: #000000; stroke-width: 0.6"/>
      </g>
     </g>
    </g>
    <g id="xtick_8">
     <g id="line2d_8">
      <g>
       <use xlink:href="#mb5417365c8" x="99.305931" y="301.032" style="stroke: #000000; stroke-width: 0.6"/>
      </g>
     </g>
    </g>
    <g id="xtick_9">
     <g id="line2d_9">
      <g>
       <use xlink:href="#mb5417365c8" x="113.593004" y="301.032" style="stroke: #000000; stroke-width: 0.6"/>
      </g>
     </g>
    </g>
    <g id="xtick_10">
     <g id="line2d_10">
      <g>
       <use xlink:href="#mb5417365c8" x="127.880077" y="301.032" style="stroke: #000000; stroke-width: 0.6"/>
      </g>
     </g>
    </g>
    <g id="xtick_11">
     <g id="line2d_11">
      <g>
       <use xlink:href="#mb5417365c8" x="156.454222" y="301.032" style="stroke: #000000; stroke-width: 0.6"/>
      </g>
     </g>
    </g>
    <g id="xtick_12">
     <g id="line2d_12">
      <g>
       <use xlink:href="#mb5417365c8" x="170.741295" y="301.032" style="stroke: #000000; stroke-width: 0.6"/>
      </g>
     </g>
    </g>
    <g id="xtick_13">
     <g id="line2d_13">
      <g>
       <use xlink:href="#mb5417365c8" x="185.028368" y="301.032" style="stroke: #000000; stroke-width: 0.6"/>
      </g>
     </g>
    </g>
    <g id="xtick_14">
     <g id="line2d_14">
      <g>
       <use xlink:href="#mb5417365c8" x="199.315441" y="301.032" style="stroke: #000000; stroke-width: 0.6"/>
      </g>
     </g>
    </g>
    <g id="xtick_15">
     <g id="line2d_15">
      <g>
       <use xlink:href="#mb5417365c8" x="213.602514" y="301.032" style="stroke: #000000; stroke-width: 0.6"/>
      </g>
     </g>
    </g>
    <g id="xtick_16">
     <g id="line2d_16">
      <g>
       <use xlink:href="#mb5417365c8" x="227.889587" y="301.032" style="stroke: #000000; stroke-width: 0.6"/>
      </g>
     </g>
    </g>
    <g id="xtick_17">
     <g id="line2d_17">
      <g>
       <use xlink:href="#mb5417365c8" x="242.17666" y="301.032" style="stroke: #000000; stroke-width: 0.6"/>
      </g>
     </g>
    </g>
    <g id="xtick_18">
     <g id="line2d_18">
      <g>
       <use xlink:href="#mb5417365c8" x="270.750805" y="301.032" style="stroke: #000000; stroke-width: 0.6"/>
      </g>
     </g>
    </g>
    <g id="xtick_19">
     <g id="line2d_19">
      <g>
       <use xlink:href="#mb5417365c8" x="285.037878" y="301.032" style="stroke: #000000; stroke-width: 0.6"/>
      </g>
     </g>
    </g>
    <g id="xtick_20">
     <g id="line2d_20">
      <g>
       <use xlink:href="#mb5417365c8" x="299.324951" y="301.032" style="stroke: #000000; stroke-width: 0.6"/>
      </g>
     </g>
    </g>
    <g id="xtick_21">
     <g id="line2d_21">
      <g>
       <use xlink:href="#mb5417365c8" x="313.612024" y="301.032" style="stroke: #000000; stroke-width: 0.6"/>
      </g>
     </g>
    </g>
    <g id="xtick_22">
     <g id="line2d_22">
      <g>
       <use xlink:href="#mb5417365c8" x="327.899097" y="301.032" style="stroke: #000000; stroke-width: 0.6"/>
      </g>
     </g>
    </g>
    <g id="xtick_23">
     <g id="line2d_23">
      <g>
       <use xlink:href="#mb5417365c8" x="342.18617" y="301.032" style="stroke: #000000; stroke-width: 0.6"/>
      </g>
     </g>
    </g>
    <g id="xtick_24">
     <g id="line2d_24">
      <g>
       <use xlink:href="#mb5417365c8" x="356.473243" y="301.032" style="stroke: #000000; stroke-width: 0.6"/>
      </g>
     </g>
    </g>
    <g id="xtick_25">
     <g id="line2d_25">
      <g>
       <use xlink:href="#mb5417365c8" x="385.047388" y="301.032" style="stroke: #000000; stroke-width: 0.6"/>
      </g>
     </g>
    </g>
    <g id="xtick_26">
     <g id="line2d_26">
      <g>
       <use xlink:href="#mb5417365c8" x="399.334461" y="301.032" style="stroke: #000000; stroke-width: 0.6"/>
      </g>
     </g>
    </g>
    <g id="xtick_27">
     <g id="line2d_27">
      <g>
       <use xlink:href="#mb5417365c8" x="413.621534" y="301.032" style="stroke: #000000; stroke-width: 0.6"/>
      </g>
     </g>
    </g>
   </g>
   <g id="matplotlib.axis_2">
    <g id="ytick_1">
     <g id="line2d_28">
      <defs>
       <path id="m6f65ef68f0" d="M 0 0 
L -3.5 0 
" style="stroke: #000000; stroke-width: 0.8"/>
      </defs>
      <g>
       <use xlink:href="#m6f65ef68f0" x="27.54625" y="292.357018" style="stroke: #000000; stroke-width: 0.8"/>
      </g>
     </g>
     <g id="text_5">
      <!-- 0 -->
      <g transform="translate(7.2 300.946393) scale(0.24 -0.24)">
       <use xlink:href="#ArialMT-30"/>
      </g>
     </g>
    </g>
    <g id="ytick_2">
     <g id="line2d_29">
      <g>
       <use xlink:href="#m6f65ef68f0" x="27.54625" y="216.856735" style="stroke: #000000; stroke-width: 0.8"/>
      </g>
     </g>
     <g id="text_6">
      <!-- 2 -->
      <g transform="translate(7.2 225.44611) scale(0.24 -0.24)">
       <use xlink:href="#ArialMT-32"/>
      </g>
     </g>
    </g>
    <g id="ytick_3">
     <g id="line2d_30">
      <g>
       <use xlink:href="#m6f65ef68f0" x="27.54625" y="141.356452" style="stroke: #000000; stroke-width: 0.8"/>
      </g>
     </g>
     <g id="text_7">
      <!-- 4 -->
      <g transform="translate(7.2 149.945827) scale(0.24 -0.24)">
       <use xlink:href="#ArialMT-34"/>
      </g>
     </g>
    </g>
    <g id="ytick_4">
     <g id="line2d_31">
      <g>
       <use xlink:href="#m6f65ef68f0" x="27.54625" y="65.85617" style="stroke: #000000; stroke-width: 0.8"/>
      </g>
     </g>
     <g id="text_8">
      <!-- 6 -->
      <g transform="translate(7.2 74.445545) scale(0.24 -0.24)">
       <use xlink:href="#ArialMT-36"/>
      </g>
     </g>
    </g>
    <g id="ytick_5">
     <g id="line2d_32">
      <defs>
       <path id="m904d567b33" d="M 0 0 
L -2 0 
" style="stroke: #000000; stroke-width: 0.6"/>
      </defs>
      <g>
       <use xlink:href="#m904d567b33" x="27.54625" y="273.481947" style="stroke: #000000; stroke-width: 0.6"/>
      </g>
     </g>
    </g>
    <g id="ytick_6">
     <g id="line2d_33">
      <g>
       <use xlink:href="#m904d567b33" x="27.54625" y="254.606876" style="stroke: #000000; stroke-width: 0.6"/>
      </g>
     </g>
    </g>
    <g id="ytick_7">
     <g id="line2d_34">
      <g>
       <use xlink:href="#m904d567b33" x="27.54625" y="235.731806" style="stroke: #000000; stroke-width: 0.6"/>
      </g>
     </g>
    </g>
    <g id="ytick_8">
     <g id="line2d_35">
      <g>
       <use xlink:href="#m904d567b33" x="27.54625" y="197.981664" style="stroke: #000000; stroke-width: 0.6"/>
      </g>
     </g>
    </g>
    <g id="ytick_9">
     <g id="line2d_36">
      <g>
       <use xlink:href="#m904d567b33" x="27.54625" y="179.106594" style="stroke: #000000; stroke-width: 0.6"/>
      </g>
     </g>
    </g>
    <g id="ytick_10">
     <g id="line2d_37">
      <g>
       <use xlink:href="#m904d567b33" x="27.54625" y="160.231523" style="stroke: #000000; stroke-width: 0.6"/>
      </g>
     </g>
    </g>
    <g id="ytick_11">
     <g id="line2d_38">
      <g>
       <use xlink:href="#m904d567b33" x="27.54625" y="122.481382" style="stroke: #000000; stroke-width: 0.6"/>
      </g>
     </g>
    </g>
    <g id="ytick_12">
     <g id="line2d_39">
      <g>
       <use xlink:href="#m904d567b33" x="27.54625" y="103.606311" style="stroke: #000000; stroke-width: 0.6"/>
      </g>
     </g>
    </g>
    <g id="ytick_13">
     <g id="line2d_40">
      <g>
       <use xlink:href="#m904d567b33" x="27.54625" y="84.73124" style="stroke: #000000; stroke-width: 0.6"/>
      </g>
     </g>
    </g>
    <g id="ytick_14">
     <g id="line2d_41">
      <g>
       <use xlink:href="#m904d567b33" x="27.54625" y="46.981099" style="stroke: #000000; stroke-width: 0.6"/>
      </g>
     </g>
    </g>
    <g id="ytick_15">
     <g id="line2d_42">
      <g>
       <use xlink:href="#m904d567b33" x="27.54625" y="28.106028" style="stroke: #000000; stroke-width: 0.6"/>
      </g>
     </g>
    </g>
    <g id="ytick_16">
     <g id="line2d_43">
      <g>
       <use xlink:href="#m904d567b33" x="27.54625" y="9.230958" style="stroke: #000000; stroke-width: 0.6"/>
      </g>
     </g>
    </g>
   </g>
   <g id="patch_3">
    <path d="M 27.54625 301.032 
L 27.54625 7.2 
" style="fill: none; stroke: #000000; stroke-width: 0.8; stroke-linejoin: miter; stroke-linecap: square"/>
   </g>
   <g id="patch_4">
    <path d="M 418.14625 301.032 
L 418.14625 7.2 
" style="fill: none"/>
   </g>
   <g id="patch_5">
    <path d="M 27.54625 301.032 
L 418.14625 301.032 
" style="fill: none; stroke: #000000; stroke-width: 0.8; stroke-linejoin: miter; stroke-linecap: square"/>
   </g>
   <g id="patch_6">
    <path d="M 27.54625 7.2 
L 418.14625 7.2 
" style="fill: none"/>
   </g>
  </g>
 </g>
 <defs>
  <clipPath id="p1176e6b95c">
   <rect x="27.54625" y="7.2" width="390.6" height="293.832"/>
  </clipPath>
 </defs>
</svg>
