<?xml version="1.0" encoding="utf-8" standalone="no"?>
<!DOCTYPE svg PUBLIC "-//W3C//DTD SVG 1.1//EN"
  "http://www.w3.org/Graphics/SVG/1.1/DTD/svg11.dtd">
<svg xmlns:xlink="http://www.w3.org/1999/xlink" width="488.67547pt" height="365.034846pt" viewBox="0 0 488.67547 365.034846" xmlns="http://www.w3.org/2000/svg" version="1.1">
 <metadata>
  <rdf:RDF xmlns:dc="http://purl.org/dc/elements/1.1/" xmlns:cc="http://creativecommons.org/ns#" xmlns:rdf="http://www.w3.org/1999/02/22-rdf-syntax-ns#">
   <cc:Work>
    <dc:type rdf:resource="http://purl.org/dc/dcmitype/StillImage"/>
    <dc:date>2025-12-22T14:41:56.281666</dc:date>
    <dc:format>image/svg+xml</dc:format>
    <dc:creator>
     <cc:Agent>
      <dc:title>Matplotlib v3.10.7, https://matplotlib.org/</dc:title>
     </cc:Agent>
    </dc:creator>
   </cc:Work>
  </rdf:RDF>
 </metadata>
 <defs>
  <style type="text/css">*{stroke-linejoin: round; stroke-linecap: butt}</style>
 </defs>
 <g id="figure_1">
  <g id="patch_1">
   <path d="M 0 365.034846 
L 488.67547 365.034846 
L 488.67547 0 
L 0 0 
L 0 365.034846 
z
" style="fill: none"/>
  </g>
  <g id="axes_1">
   <g id="patch_2">
    <path d="M 87.13625 302.937346 
L 477.73625 302.937346 
L 477.73625 9.105346 
L 87.13625 9.105346 
L 87.13625 302.937346 
z
" style="fill: none"/>
   </g>
   <g id="matplotlib.axis_1">
    <g id="xtick_1">
     <g id="line2d_1">
      <defs>
       <path id="mbc500cba51" d="M 0 0 
L 0 3.5 
" style="stroke: #000000; stroke-width: 0.8"/>
      </defs>
      <g>
       <use xlink:href="#mbc500cba51" x="104.890795" y="302.937346" style="stroke: #000000; stroke-width: 0.8"/>
      </g>
     </g>
     <g id="text_1">
      <!-- 0 -->
      <g transform="translate(98.21767 327.116096) scale(0.24 -0.24)">
       <defs>
        <path id="ArialMT-30" d="M 266 2259 
Q 266 3072 433 3567 
Q 600 4063 929 4331 
Q 1259 4600 1759 4600 
Q 2128 4600 2406 4451 
Q 2684 4303 2865 4023 
Q 3047 3744 3150 3342 
Q 3253 2941 3253 2259 
Q 3253 1453 3087 958 
Q 2922 463 2592 192 
Q 2263 -78 1759 -78 
Q 1097 -78 719 397 
Q 266 969 266 2259 
z
M 844 2259 
Q 844 1131 1108 757 
Q 1372 384 1759 384 
Q 2147 384 2411 759 
Q 2675 1134 2675 2259 
Q 2675 3391 2411 3762 
Q 2147 4134 1753 4134 
Q 1366 4134 1134 3806 
Q 844 3388 844 2259 
z
" transform="scale(0.015625)"/>
       </defs>
       <use xlink:href="#ArialMT-30"/>
      </g>
     </g>
    </g>
    <g id="xtick_2">
     <g id="line2d_2">
      <g>
       <use xlink:href="#mbc500cba51" x="195.700402" y="302.937346" style="stroke: #000000; stroke-width: 0.8"/>
      </g>
     </g>
     <g id="text_2">
      <!-- 20 -->
      <g transform="translate(182.354152 327.116096) scale(0.24 -0.24)">
       <defs>
        <path id="ArialMT-32" d="M 3222 541 
L 3222 0 
L 194 0 
Q 188 203 259 391 
Q 375 700 629 1000 
Q 884 1300 1366 1694 
Q 2113 2306 2375 2664 
Q 2638 3022 2638 3341 
Q 2638 3675 2398 3904 
Q 2159 4134 1775 4134 
Q 1369 4134 1125 3890 
Q 881 3647 878 3216 
L 300 3275 
Q 359 3922 746 4261 
Q 1134 4600 1788 4600 
Q 2447 4600 2831 4234 
Q 3216 3869 3216 3328 
Q 3216 3053 3103 2787 
Q 2991 2522 2730 2228 
Q 2469 1934 1863 1422 
Q 1356 997 1212 845 
Q 1069 694 975 541 
L 3222 541 
z
" transform="scale(0.015625)"/>
       </defs>
       <use xlink:href="#ArialMT-32"/>
       <use xlink:href="#ArialMT-30" transform="translate(55.615234 0)"/>
      </g>
     </g>
    </g>
    <g id="xtick_3">
     <g id="line2d_3">
      <g>
       <use xlink:href="#mbc500cba51" x="286.510008" y="302.937346" style="stroke: #000000; stroke-width: 0.8"/>
      </g>
     </g>
     <g id="text_3">
      <!-- 40 -->
      <g transform="translate(273.163758 327.116096) scale(0.24 -0.24)">
       <defs>
        <path id="ArialMT-34" d="M 2069 0 
L 2069 1097 
L 81 1097 
L 81 1613 
L 2172 4581 
L 2631 4581 
L 2631 1613 
L 3250 1613 
L 3250 1097 
L 2631 1097 
L 2631 0 
L 2069 0 
z
M 2069 1613 
L 2069 3678 
L 634 1613 
L 2069 1613 
z
" transform="scale(0.015625)"/>
       </defs>
       <use xlink:href="#ArialMT-34"/>
       <use xlink:href="#ArialMT-30" transform="translate(55.615234 0)"/>
      </g>
     </g>
    </g>
    <g id="xtick_4">
     <g id="line2d_4">
      <g>
       <use xlink:href="#mbc500cba51" x="377.319614" y="302.937346" style="stroke: #000000; stroke-width: 0.8"/>
      </g>
     </g>
     <g id="text_4">
      <!-- 60 -->
      <g transform="translate(363.973364 327.116096) scale(0.24 -0.24)">
       <defs>
        <path id="ArialMT-36" d="M 3184 3459 
L 2625 3416 
Q 2550 3747 2413 3897 
Q 2184 4138 1850 4138 
Q 1581 4138 1378 3988 
Q 1113 3794 959 3422 
Q 806 3050 800 2363 
Q 1003 2672 1297 2822 
Q 1591 2972 1913 2972 
Q 2475 2972 2870 2558 
Q 3266 2144 3266 1488 
Q 3266 1056 3080 686 
Q 2894 316 2569 119 
Q 2244 -78 1831 -78 
Q 1128 -78 684 439 
Q 241 956 241 2144 
Q 241 3472 731 4075 
Q 1159 4600 1884 4600 
Q 2425 4600 2770 4297 
Q 3116 3994 3184 3459 
z
M 888 1484 
Q 888 1194 1011 928 
Q 1134 663 1356 523 
Q 1578 384 1822 384 
Q 2178 384 2434 671 
Q 2691 959 2691 1453 
Q 2691 1928 2437 2201 
Q 2184 2475 1800 2475 
Q 1419 2475 1153 2201 
Q 888 1928 888 1484 
z
" transform="scale(0.015625)"/>
       </defs>
       <use xlink:href="#ArialMT-36"/>
       <use xlink:href="#ArialMT-30" transform="translate(55.615234 0)"/>
      </g>
     </g>
    </g>
    <g id="xtick_5">
     <g id="line2d_5">
      <g>
       <use xlink:href="#mbc500cba51" x="468.12922" y="302.937346" style="stroke: #000000; stroke-width: 0.8"/>
      </g>
     </g>
     <g id="text_5">
      <!-- 80 -->
      <g transform="translate(454.78297 327.116096) scale(0.24 -0.24)">
       <defs>
        <path id="ArialMT-38" d="M 1131 2484 
Q 781 2613 612 2850 
Q 444 3088 444 3419 
Q 444 3919 803 4259 
Q 1163 4600 1759 4600 
Q 2359 4600 2725 4251 
Q 3091 3903 3091 3403 
Q 3091 3084 2923 2848 
Q 2756 2613 2416 2484 
Q 2838 2347 3058 2040 
Q 3278 1734 3278 1309 
Q 3278 722 2862 322 
Q 2447 -78 1769 -78 
Q 1091 -78 675 323 
Q 259 725 259 1325 
Q 259 1772 486 2073 
Q 713 2375 1131 2484 
z
M 1019 3438 
Q 1019 3113 1228 2906 
Q 1438 2700 1772 2700 
Q 2097 2700 2305 2904 
Q 2513 3109 2513 3406 
Q 2513 3716 2298 3927 
Q 2084 4138 1766 4138 
Q 1444 4138 1231 3931 
Q 1019 3725 1019 3438 
z
M 838 1322 
Q 838 1081 952 856 
Q 1066 631 1291 507 
Q 1516 384 1775 384 
Q 2178 384 2440 643 
Q 2703 903 2703 1303 
Q 2703 1709 2433 1975 
Q 2163 2241 1756 2241 
Q 1359 2241 1098 1978 
Q 838 1716 838 1322 
z
" transform="scale(0.015625)"/>
       </defs>
       <use xlink:href="#ArialMT-38"/>
       <use xlink:href="#ArialMT-30" transform="translate(55.615234 0)"/>
      </g>
     </g>
    </g>
    <g id="text_6">
     <!-- Distance from center -->
     <g transform="translate(171.73625 353.064846) scale(0.24 -0.24)">
      <defs>
       <path id="ArialMT-44" d="M 494 0 
L 494 4581 
L 2072 4581 
Q 2606 4581 2888 4516 
Q 3281 4425 3559 4188 
Q 3922 3881 4101 3404 
Q 4281 2928 4281 2316 
Q 4281 1794 4159 1391 
Q 4038 988 3847 723 
Q 3656 459 3429 307 
Q 3203 156 2883 78 
Q 2563 0 2147 0 
L 494 0 
z
M 1100 541 
L 2078 541 
Q 2531 541 2789 625 
Q 3047 709 3200 863 
Q 3416 1078 3536 1442 
Q 3656 1806 3656 2325 
Q 3656 3044 3420 3430 
Q 3184 3816 2847 3947 
Q 2603 4041 2063 4041 
L 1100 4041 
L 1100 541 
z
" transform="scale(0.015625)"/>
       <path id="ArialMT-69" d="M 425 3934 
L 425 4581 
L 988 4581 
L 988 3934 
L 425 3934 
z
M 425 0 
L 425 3319 
L 988 3319 
L 988 0 
L 425 0 
z
" transform="scale(0.015625)"/>
       <path id="ArialMT-73" d="M 197 991 
L 753 1078 
Q 800 744 1014 566 
Q 1228 388 1613 388 
Q 2000 388 2187 545 
Q 2375 703 2375 916 
Q 2375 1106 2209 1216 
Q 2094 1291 1634 1406 
Q 1016 1563 777 1677 
Q 538 1791 414 1992 
Q 291 2194 291 2438 
Q 291 2659 392 2848 
Q 494 3038 669 3163 
Q 800 3259 1026 3326 
Q 1253 3394 1513 3394 
Q 1903 3394 2198 3281 
Q 2494 3169 2634 2976 
Q 2775 2784 2828 2463 
L 2278 2388 
Q 2241 2644 2061 2787 
Q 1881 2931 1553 2931 
Q 1166 2931 1000 2803 
Q 834 2675 834 2503 
Q 834 2394 903 2306 
Q 972 2216 1119 2156 
Q 1203 2125 1616 2013 
Q 2213 1853 2448 1751 
Q 2684 1650 2818 1456 
Q 2953 1263 2953 975 
Q 2953 694 2789 445 
Q 2625 197 2315 61 
Q 2006 -75 1616 -75 
Q 969 -75 630 194 
Q 291 463 197 991 
z
" transform="scale(0.015625)"/>
       <path id="ArialMT-74" d="M 1650 503 
L 1731 6 
Q 1494 -44 1306 -44 
Q 1000 -44 831 53 
Q 663 150 594 308 
Q 525 466 525 972 
L 525 2881 
L 113 2881 
L 113 3319 
L 525 3319 
L 525 4141 
L 1084 4478 
L 1084 3319 
L 1650 3319 
L 1650 2881 
L 1084 2881 
L 1084 941 
Q 1084 700 1114 631 
Q 1144 563 1211 522 
Q 1278 481 1403 481 
Q 1497 481 1650 503 
z
" transform="scale(0.015625)"/>
       <path id="ArialMT-61" d="M 2588 409 
Q 2275 144 1986 34 
Q 1697 -75 1366 -75 
Q 819 -75 525 192 
Q 231 459 231 875 
Q 231 1119 342 1320 
Q 453 1522 633 1644 
Q 813 1766 1038 1828 
Q 1203 1872 1538 1913 
Q 2219 1994 2541 2106 
Q 2544 2222 2544 2253 
Q 2544 2597 2384 2738 
Q 2169 2928 1744 2928 
Q 1347 2928 1158 2789 
Q 969 2650 878 2297 
L 328 2372 
Q 403 2725 575 2942 
Q 747 3159 1072 3276 
Q 1397 3394 1825 3394 
Q 2250 3394 2515 3294 
Q 2781 3194 2906 3042 
Q 3031 2891 3081 2659 
Q 3109 2516 3109 2141 
L 3109 1391 
Q 3109 606 3145 398 
Q 3181 191 3288 0 
L 2700 0 
Q 2613 175 2588 409 
z
M 2541 1666 
Q 2234 1541 1622 1453 
Q 1275 1403 1131 1340 
Q 988 1278 909 1158 
Q 831 1038 831 891 
Q 831 666 1001 516 
Q 1172 366 1500 366 
Q 1825 366 2078 508 
Q 2331 650 2450 897 
Q 2541 1088 2541 1459 
L 2541 1666 
z
" transform="scale(0.015625)"/>
       <path id="ArialMT-6e" d="M 422 0 
L 422 3319 
L 928 3319 
L 928 2847 
Q 1294 3394 1984 3394 
Q 2284 3394 2536 3286 
Q 2788 3178 2913 3003 
Q 3038 2828 3088 2588 
Q 3119 2431 3119 2041 
L 3119 0 
L 2556 0 
L 2556 2019 
Q 2556 2363 2490 2533 
Q 2425 2703 2258 2804 
Q 2091 2906 1866 2906 
Q 1506 2906 1245 2678 
Q 984 2450 984 1813 
L 984 0 
L 422 0 
z
" transform="scale(0.015625)"/>
       <path id="ArialMT-63" d="M 2588 1216 
L 3141 1144 
Q 3050 572 2676 248 
Q 2303 -75 1759 -75 
Q 1078 -75 664 370 
Q 250 816 250 1647 
Q 250 2184 428 2587 
Q 606 2991 970 3192 
Q 1334 3394 1763 3394 
Q 2303 3394 2647 3120 
Q 2991 2847 3088 2344 
L 2541 2259 
Q 2463 2594 2264 2762 
Q 2066 2931 1784 2931 
Q 1359 2931 1093 2626 
Q 828 2322 828 1663 
Q 828 994 1084 691 
Q 1341 388 1753 388 
Q 2084 388 2306 591 
Q 2528 794 2588 1216 
z
" transform="scale(0.015625)"/>
       <path id="ArialMT-65" d="M 2694 1069 
L 3275 997 
Q 3138 488 2766 206 
Q 2394 -75 1816 -75 
Q 1088 -75 661 373 
Q 234 822 234 1631 
Q 234 2469 665 2931 
Q 1097 3394 1784 3394 
Q 2450 3394 2872 2941 
Q 3294 2488 3294 1666 
Q 3294 1616 3291 1516 
L 816 1516 
Q 847 969 1125 678 
Q 1403 388 1819 388 
Q 2128 388 2347 550 
Q 2566 713 2694 1069 
z
M 847 1978 
L 2700 1978 
Q 2663 2397 2488 2606 
Q 2219 2931 1791 2931 
Q 1403 2931 1139 2672 
Q 875 2413 847 1978 
z
" transform="scale(0.015625)"/>
       <path id="ArialMT-20" transform="scale(0.015625)"/>
       <path id="ArialMT-66" d="M 556 0 
L 556 2881 
L 59 2881 
L 59 3319 
L 556 3319 
L 556 3672 
Q 556 4006 616 4169 
Q 697 4388 901 4523 
Q 1106 4659 1475 4659 
Q 1713 4659 2000 4603 
L 1916 4113 
Q 1741 4144 1584 4144 
Q 1328 4144 1222 4034 
Q 1116 3925 1116 3625 
L 1116 3319 
L 1763 3319 
L 1763 2881 
L 1116 2881 
L 1116 0 
L 556 0 
z
" transform="scale(0.015625)"/>
       <path id="ArialMT-72" d="M 416 0 
L 416 3319 
L 922 3319 
L 922 2816 
Q 1116 3169 1280 3281 
Q 1444 3394 1641 3394 
Q 1925 3394 2219 3213 
L 2025 2691 
Q 1819 2813 1613 2813 
Q 1428 2813 1281 2702 
Q 1134 2591 1072 2394 
Q 978 2094 978 1738 
L 978 0 
L 416 0 
z
" transform="scale(0.015625)"/>
       <path id="ArialMT-6f" d="M 213 1659 
Q 213 2581 725 3025 
Q 1153 3394 1769 3394 
Q 2453 3394 2887 2945 
Q 3322 2497 3322 1706 
Q 3322 1066 3130 698 
Q 2938 331 2570 128 
Q 2203 -75 1769 -75 
Q 1072 -75 642 372 
Q 213 819 213 1659 
z
M 791 1659 
Q 791 1022 1069 705 
Q 1347 388 1769 388 
Q 2188 388 2466 706 
Q 2744 1025 2744 1678 
Q 2744 2294 2464 2611 
Q 2184 2928 1769 2928 
Q 1347 2928 1069 2612 
Q 791 2297 791 1659 
z
" transform="scale(0.015625)"/>
       <path id="ArialMT-6d" d="M 422 0 
L 422 3319 
L 925 3319 
L 925 2853 
Q 1081 3097 1340 3245 
Q 1600 3394 1931 3394 
Q 2300 3394 2536 3241 
Q 2772 3088 2869 2813 
Q 3263 3394 3894 3394 
Q 4388 3394 4653 3120 
Q 4919 2847 4919 2278 
L 4919 0 
L 4359 0 
L 4359 2091 
Q 4359 2428 4304 2576 
Q 4250 2725 4106 2815 
Q 3963 2906 3769 2906 
Q 3419 2906 3187 2673 
Q 2956 2441 2956 1928 
L 2956 0 
L 2394 0 
L 2394 2156 
Q 2394 2531 2256 2718 
Q 2119 2906 1806 2906 
Q 1569 2906 1367 2781 
Q 1166 2656 1075 2415 
Q 984 2175 984 1722 
L 984 0 
L 422 0 
z
" transform="scale(0.015625)"/>
      </defs>
      <use xlink:href="#ArialMT-44"/>
      <use xlink:href="#ArialMT-69" transform="translate(72.216797 0)"/>
      <use xlink:href="#ArialMT-73" transform="translate(94.433594 0)"/>
      <use xlink:href="#ArialMT-74" transform="translate(144.433594 0)"/>
      <use xlink:href="#ArialMT-61" transform="translate(172.216797 0)"/>
      <use xlink:href="#ArialMT-6e" transform="translate(227.832031 0)"/>
      <use xlink:href="#ArialMT-63" transform="translate(283.447266 0)"/>
      <use xlink:href="#ArialMT-65" transform="translate(333.447266 0)"/>
      <use xlink:href="#ArialMT-20" transform="translate(389.0625 0)"/>
      <use xlink:href="#ArialMT-66" transform="translate(416.845703 0)"/>
      <use xlink:href="#ArialMT-72" transform="translate(444.628906 0)"/>
      <use xlink:href="#ArialMT-6f" transform="translate(477.929688 0)"/>
      <use xlink:href="#ArialMT-6d" transform="translate(533.544922 0)"/>
      <use xlink:href="#ArialMT-20" transform="translate(616.845703 0)"/>
      <use xlink:href="#ArialMT-63" transform="translate(644.628906 0)"/>
      <use xlink:href="#ArialMT-65" transform="translate(694.628906 0)"/>
      <use xlink:href="#ArialMT-6e" transform="translate(750.244141 0)"/>
      <use xlink:href="#ArialMT-74" transform="translate(805.859375 0)"/>
      <use xlink:href="#ArialMT-65" transform="translate(833.642578 0)"/>
      <use xlink:href="#ArialMT-72" transform="translate(889.257812 0)"/>
     </g>
    </g>
   </g>
   <g id="matplotlib.axis_2">
    <g id="ytick_1">
     <g id="line2d_6">
      <defs>
       <path id="mdcdb4d5c62" d="M 0 0 
L -3.5 0 
" style="stroke: #000000; stroke-width: 0.8"/>
      </defs>
      <g>
       <use xlink:href="#mdcdb4d5c62" x="87.13625" y="296.709298" style="stroke: #000000; stroke-width: 0.8"/>
      </g>
     </g>
     <g id="text_7">
      <!-- 0.00 -->
      <g transform="translate(33.43 305.298673) scale(0.24 -0.24)">
       <defs>
        <path id="ArialMT-2e" d="M 581 0 
L 581 641 
L 1222 641 
L 1222 0 
L 581 0 
z
" transform="scale(0.015625)"/>
       </defs>
       <use xlink:href="#ArialMT-30"/>
       <use xlink:href="#ArialMT-2e" transform="translate(55.615234 0)"/>
       <use xlink:href="#ArialMT-30" transform="translate(83.398438 0)"/>
       <use xlink:href="#ArialMT-30" transform="translate(139.013672 0)"/>
      </g>
     </g>
    </g>
    <g id="ytick_2">
     <g id="line2d_7">
      <g>
       <use xlink:href="#mdcdb4d5c62" x="87.13625" y="240.525314" style="stroke: #000000; stroke-width: 0.8"/>
      </g>
     </g>
     <g id="text_8">
      <!-- 0.02 -->
      <g transform="translate(33.43 249.114689) scale(0.24 -0.24)">
       <use xlink:href="#ArialMT-30"/>
       <use xlink:href="#ArialMT-2e" transform="translate(55.615234 0)"/>
       <use xlink:href="#ArialMT-30" transform="translate(83.398438 0)"/>
       <use xlink:href="#ArialMT-32" transform="translate(139.013672 0)"/>
      </g>
     </g>
    </g>
    <g id="ytick_3">
     <g id="line2d_8">
      <g>
       <use xlink:href="#mdcdb4d5c62" x="87.13625" y="184.341329" style="stroke: #000000; stroke-width: 0.8"/>
      </g>
     </g>
     <g id="text_9">
      <!-- 0.04 -->
      <g transform="translate(33.43 192.930704) scale(0.24 -0.24)">
       <use xlink:href="#ArialMT-30"/>
       <use xlink:href="#ArialMT-2e" transform="translate(55.615234 0)"/>
       <use xlink:href="#ArialMT-30" transform="translate(83.398438 0)"/>
       <use xlink:href="#ArialMT-34" transform="translate(139.013672 0)"/>
      </g>
     </g>
    </g>
    <g id="ytick_4">
     <g id="line2d_9">
      <g>
       <use xlink:href="#mdcdb4d5c62" x="87.13625" y="128.157344" style="stroke: #000000; stroke-width: 0.8"/>
      </g>
     </g>
     <g id="text_10">
      <!-- 0.06 -->
      <g transform="translate(33.43 136.746719) scale(0.24 -0.24)">
       <use xlink:href="#ArialMT-30"/>
       <use xlink:href="#ArialMT-2e" transform="translate(55.615234 0)"/>
       <use xlink:href="#ArialMT-30" transform="translate(83.398438 0)"/>
       <use xlink:href="#ArialMT-36" transform="translate(139.013672 0)"/>
      </g>
     </g>
    </g>
    <g id="ytick_5">
     <g id="line2d_10">
      <g>
       <use xlink:href="#mdcdb4d5c62" x="87.13625" y="71.97336" style="stroke: #000000; stroke-width: 0.8"/>
      </g>
     </g>
     <g id="text_11">
      <!-- 0.08 -->
      <g transform="translate(33.43 80.562735) scale(0.24 -0.24)">
       <use xlink:href="#ArialMT-30"/>
       <use xlink:href="#ArialMT-2e" transform="translate(55.615234 0)"/>
       <use xlink:href="#ArialMT-30" transform="translate(83.398438 0)"/>
       <use xlink:href="#ArialMT-38" transform="translate(139.013672 0)"/>
      </g>
     </g>
    </g>
    <g id="ytick_6">
     <g id="line2d_11">
      <g>
       <use xlink:href="#mdcdb4d5c62" x="87.13625" y="15.789375" style="stroke: #000000; stroke-width: 0.8"/>
      </g>
     </g>
     <g id="text_12">
      <!-- 0.10 -->
      <g transform="translate(33.43 24.37875) scale(0.24 -0.24)">
       <defs>
        <path id="ArialMT-31" d="M 2384 0 
L 1822 0 
L 1822 3584 
Q 1619 3391 1289 3197 
Q 959 3003 697 2906 
L 697 3450 
Q 1169 3672 1522 3987 
Q 1875 4303 2022 4600 
L 2384 4600 
L 2384 0 
z
" transform="scale(0.015625)"/>
       </defs>
       <use xlink:href="#ArialMT-30"/>
       <use xlink:href="#ArialMT-2e" transform="translate(55.615234 0)"/>
       <use xlink:href="#ArialMT-31" transform="translate(83.398438 0)"/>
       <use xlink:href="#ArialMT-30" transform="translate(139.013672 0)"/>
      </g>
     </g>
    </g>
    <g id="text_13">
     <!-- Mean Magnitude -->
     <g transform="translate(24.37875 245.404471) rotate(-90) scale(0.24 -0.24)">
      <defs>
       <path id="ArialMT-4d" d="M 475 0 
L 475 4581 
L 1388 4581 
L 2472 1338 
Q 2622 884 2691 659 
Q 2769 909 2934 1394 
L 4031 4581 
L 4847 4581 
L 4847 0 
L 4263 0 
L 4263 3834 
L 2931 0 
L 2384 0 
L 1059 3900 
L 1059 0 
L 475 0 
z
" transform="scale(0.015625)"/>
       <path id="ArialMT-67" d="M 319 -275 
L 866 -356 
Q 900 -609 1056 -725 
Q 1266 -881 1628 -881 
Q 2019 -881 2231 -725 
Q 2444 -569 2519 -288 
Q 2563 -116 2559 434 
Q 2191 0 1641 0 
Q 956 0 581 494 
Q 206 988 206 1678 
Q 206 2153 378 2554 
Q 550 2956 876 3175 
Q 1203 3394 1644 3394 
Q 2231 3394 2613 2919 
L 2613 3319 
L 3131 3319 
L 3131 450 
Q 3131 -325 2973 -648 
Q 2816 -972 2473 -1159 
Q 2131 -1347 1631 -1347 
Q 1038 -1347 672 -1080 
Q 306 -813 319 -275 
z
M 784 1719 
Q 784 1066 1043 766 
Q 1303 466 1694 466 
Q 2081 466 2343 764 
Q 2606 1063 2606 1700 
Q 2606 2309 2336 2618 
Q 2066 2928 1684 2928 
Q 1309 2928 1046 2623 
Q 784 2319 784 1719 
z
" transform="scale(0.015625)"/>
       <path id="ArialMT-75" d="M 2597 0 
L 2597 488 
Q 2209 -75 1544 -75 
Q 1250 -75 995 37 
Q 741 150 617 320 
Q 494 491 444 738 
Q 409 903 409 1263 
L 409 3319 
L 972 3319 
L 972 1478 
Q 972 1038 1006 884 
Q 1059 663 1231 536 
Q 1403 409 1656 409 
Q 1909 409 2131 539 
Q 2353 669 2445 892 
Q 2538 1116 2538 1541 
L 2538 3319 
L 3100 3319 
L 3100 0 
L 2597 0 
z
" transform="scale(0.015625)"/>
       <path id="ArialMT-64" d="M 2575 0 
L 2575 419 
Q 2259 -75 1647 -75 
Q 1250 -75 917 144 
Q 584 363 401 755 
Q 219 1147 219 1656 
Q 219 2153 384 2558 
Q 550 2963 881 3178 
Q 1213 3394 1622 3394 
Q 1922 3394 2156 3267 
Q 2391 3141 2538 2938 
L 2538 4581 
L 3097 4581 
L 3097 0 
L 2575 0 
z
M 797 1656 
Q 797 1019 1065 703 
Q 1334 388 1700 388 
Q 2069 388 2326 689 
Q 2584 991 2584 1609 
Q 2584 2291 2321 2609 
Q 2059 2928 1675 2928 
Q 1300 2928 1048 2622 
Q 797 2316 797 1656 
z
" transform="scale(0.015625)"/>
      </defs>
      <use xlink:href="#ArialMT-4d"/>
      <use xlink:href="#ArialMT-65" transform="translate(83.300781 0)"/>
      <use xlink:href="#ArialMT-61" transform="translate(138.916016 0)"/>
      <use xlink:href="#ArialMT-6e" transform="translate(194.53125 0)"/>
      <use xlink:href="#ArialMT-20" transform="translate(250.146484 0)"/>
      <use xlink:href="#ArialMT-4d" transform="translate(277.929688 0)"/>
      <use xlink:href="#ArialMT-61" transform="translate(361.230469 0)"/>
      <use xlink:href="#ArialMT-67" transform="translate(416.845703 0)"/>
      <use xlink:href="#ArialMT-6e" transform="translate(472.460938 0)"/>
      <use xlink:href="#ArialMT-69" transform="translate(528.076172 0)"/>
      <use xlink:href="#ArialMT-74" transform="translate(550.292969 0)"/>
      <use xlink:href="#ArialMT-75" transform="translate(578.076172 0)"/>
      <use xlink:href="#ArialMT-64" transform="translate(633.691406 0)"/>
      <use xlink:href="#ArialMT-65" transform="translate(689.306641 0)"/>
     </g>
    </g>
   </g>
   <g id="line2d_12">
    <path d="M 104.890795 68.831733 
L 149.277159 96.436252 
L 193.663523 90.887224 
L 238.049886 89.81425 
L 282.43625 73.067456 
L 326.822614 83.678934 
L 371.208977 72.928998 
L 415.595341 50.147166 
L 459.981705 22.461346 
" clip-path="url(#pd1d8153392)" style="fill: none; stroke: #fde725; stroke-width: 1.5; stroke-linecap: square"/>
    <defs>
     <path id="m0cc0cb7355" d="M 0 3 
C 0.795609 3 1.55874 2.683901 2.12132 2.12132 
C 2.683901 1.55874 3 0.795609 3 0 
C 3 -0.795609 2.683901 -1.55874 2.12132 -2.12132 
C 1.55874 -2.683901 0.795609 -3 0 -3 
C -0.795609 -3 -1.55874 -2.683901 -2.12132 -2.12132 
C -2.683901 -1.55874 -3 -0.795609 -3 0 
C -3 0.795609 -2.683901 1.55874 -2.12132 2.12132 
C -1.55874 2.683901 -0.795609 3 0 3 
z
" style="stroke: #fde725"/>
    </defs>
    <g clip-path="url(#pd1d8153392)">
     <use xlink:href="#m0cc0cb7355" x="104.890795" y="68.831733" style="fill: #fde725; stroke: #fde725"/>
     <use xlink:href="#m0cc0cb7355" x="149.277159" y="96.436252" style="fill: #fde725; stroke: #fde725"/>
     <use xlink:href="#m0cc0cb7355" x="193.663523" y="90.887224" style="fill: #fde725; stroke: #fde725"/>
     <use xlink:href="#m0cc0cb7355" x="238.049886" y="89.81425" style="fill: #fde725; stroke: #fde725"/>
     <use xlink:href="#m0cc0cb7355" x="282.43625" y="73.067456" style="fill: #fde725; stroke: #fde725"/>
     <use xlink:href="#m0cc0cb7355" x="326.822614" y="83.678934" style="fill: #fde725; stroke: #fde725"/>
     <use xlink:href="#m0cc0cb7355" x="371.208977" y="72.928998" style="fill: #fde725; stroke: #fde725"/>
     <use xlink:href="#m0cc0cb7355" x="415.595341" y="50.147166" style="fill: #fde725; stroke: #fde725"/>
     <use xlink:href="#m0cc0cb7355" x="459.981705" y="22.461346" style="fill: #fde725; stroke: #fde725"/>
    </g>
   </g>
   <g id="line2d_13">
    <path d="M 104.890795 135.803436 
L 149.277159 99.224349 
L 193.663523 123.245612 
L 238.049886 129.273747 
L 282.43625 163.119178 
L 326.822614 232.76635 
L 371.208977 237.757644 
L 415.595341 219.423161 
L 459.981705 192.055432 
" clip-path="url(#pd1d8153392)" style="fill: none; stroke: #dfe318; stroke-width: 1.5; stroke-linecap: square"/>
    <defs>
     <path id="mfffef2ab04" d="M 0 3 
C 0.795609 3 1.55874 2.683901 2.12132 2.12132 
C 2.683901 1.55874 3 0.795609 3 0 
C 3 -0.795609 2.683901 -1.55874 2.12132 -2.12132 
C 1.55874 -2.683901 0.795609 -3 0 -3 
C -0.795609 -3 -1.55874 -2.683901 -2.12132 -2.12132 
C -2.683901 -1.55874 -3 -0.795609 -3 0 
C -3 0.795609 -2.683901 1.55874 -2.12132 2.12132 
C -1.55874 2.683901 -0.795609 3 0 3 
z
" style="stroke: #dfe318"/>
    </defs>
    <g clip-path="url(#pd1d8153392)">
     <use xlink:href="#mfffef2ab04" x="104.890795" y="135.803436" style="fill: #dfe318; stroke: #dfe318"/>
     <use xlink:href="#mfffef2ab04" x="149.277159" y="99.224349" style="fill: #dfe318; stroke: #dfe318"/>
     <use xlink:href="#mfffef2ab04" x="193.663523" y="123.245612" style="fill: #dfe318; stroke: #dfe318"/>
     <use xlink:href="#mfffef2ab04" x="238.049886" y="129.273747" style="fill: #dfe318; stroke: #dfe318"/>
     <use xlink:href="#mfffef2ab04" x="282.43625" y="163.119178" style="fill: #dfe318; stroke: #dfe318"/>
     <use xlink:href="#mfffef2ab04" x="326.822614" y="232.76635" style="fill: #dfe318; stroke: #dfe318"/>
     <use xlink:href="#mfffef2ab04" x="371.208977" y="237.757644" style="fill: #dfe318; stroke: #dfe318"/>
     <use xlink:href="#mfffef2ab04" x="415.595341" y="219.423161" style="fill: #dfe318; stroke: #dfe318"/>
     <use xlink:href="#mfffef2ab04" x="459.981705" y="192.055432" style="fill: #dfe318; stroke: #dfe318"/>
    </g>
   </g>
   <g id="line2d_14">
    <path d="M 104.890795 197.482491 
L 149.277159 181.302917 
L 193.663523 180.170732 
L 238.049886 147.969607 
L 282.43625 131.045844 
L 326.822614 171.96177 
L 371.208977 219.739794 
L 415.595341 234.135955 
L 459.981705 214.673595 
" clip-path="url(#pd1d8153392)" style="fill: none; stroke: #bddf26; stroke-width: 1.5; stroke-linecap: square"/>
    <defs>
     <path id="m4c0ace341b" d="M 0 3 
C 0.795609 3 1.55874 2.683901 2.12132 2.12132 
C 2.683901 1.55874 3 0.795609 3 0 
C 3 -0.795609 2.683901 -1.55874 2.12132 -2.12132 
C 1.55874 -2.683901 0.795609 -3 0 -3 
C -0.795609 -3 -1.55874 -2.683901 -2.12132 -2.12132 
C -2.683901 -1.55874 -3 -0.795609 -3 0 
C -3 0.795609 -2.683901 1.55874 -2.12132 2.12132 
C -1.55874 2.683901 -0.795609 3 0 3 
z
" style="stroke: #bddf26"/>
    </defs>
    <g clip-path="url(#pd1d8153392)">
     <use xlink:href="#m4c0ace341b" x="104.890795" y="197.482491" style="fill: #bddf26; stroke: #bddf26"/>
     <use xlink:href="#m4c0ace341b" x="149.277159" y="181.302917" style="fill: #bddf26; stroke: #bddf26"/>
     <use xlink:href="#m4c0ace341b" x="193.663523" y="180.170732" style="fill: #bddf26; stroke: #bddf26"/>
     <use xlink:href="#m4c0ace341b" x="238.049886" y="147.969607" style="fill: #bddf26; stroke: #bddf26"/>
     <use xlink:href="#m4c0ace341b" x="282.43625" y="131.045844" style="fill: #bddf26; stroke: #bddf26"/>
     <use xlink:href="#m4c0ace341b" x="326.822614" y="171.96177" style="fill: #bddf26; stroke: #bddf26"/>
     <use xlink:href="#m4c0ace341b" x="371.208977" y="219.739794" style="fill: #bddf26; stroke: #bddf26"/>
     <use xlink:href="#m4c0ace341b" x="415.595341" y="234.135955" style="fill: #bddf26; stroke: #bddf26"/>
     <use xlink:href="#m4c0ace341b" x="459.981705" y="214.673595" style="fill: #bddf26; stroke: #bddf26"/>
    </g>
   </g>
   <g id="line2d_15">
    <path d="M 104.890795 229.825888 
L 149.277159 196.069649 
L 193.663523 174.592835 
L 238.049886 151.397803 
L 282.43625 137.953397 
L 326.822614 166.73815 
L 371.208977 206.298285 
L 415.595341 246.023156 
L 459.981705 261.814361 
" clip-path="url(#pd1d8153392)" style="fill: none; stroke: #9bd93c; stroke-width: 1.5; stroke-linecap: square"/>
    <defs>
     <path id="mc583f01bb6" d="M 0 3 
C 0.795609 3 1.55874 2.683901 2.12132 2.12132 
C 2.683901 1.55874 3 0.795609 3 0 
C 3 -0.795609 2.683901 -1.55874 2.12132 -2.12132 
C 1.55874 -2.683901 0.795609 -3 0 -3 
C -0.795609 -3 -1.55874 -2.683901 -2.12132 -2.12132 
C -2.683901 -1.55874 -3 -0.795609 -3 0 
C -3 0.795609 -2.683901 1.55874 -2.12132 2.12132 
C -1.55874 2.683901 -0.795609 3 0 3 
z
" style="stroke: #9bd93c"/>
    </defs>
    <g clip-path="url(#pd1d8153392)">
     <use xlink:href="#mc583f01bb6" x="104.890795" y="229.825888" style="fill: #9bd93c; stroke: #9bd93c"/>
     <use xlink:href="#mc583f01bb6" x="149.277159" y="196.069649" style="fill: #9bd93c; stroke: #9bd93c"/>
     <use xlink:href="#mc583f01bb6" x="193.663523" y="174.592835" style="fill: #9bd93c; stroke: #9bd93c"/>
     <use xlink:href="#mc583f01bb6" x="238.049886" y="151.397803" style="fill: #9bd93c; stroke: #9bd93c"/>
     <use xlink:href="#mc583f01bb6" x="282.43625" y="137.953397" style="fill: #9bd93c; stroke: #9bd93c"/>
     <use xlink:href="#mc583f01bb6" x="326.822614" y="166.73815" style="fill: #9bd93c; stroke: #9bd93c"/>
     <use xlink:href="#mc583f01bb6" x="371.208977" y="206.298285" style="fill: #9bd93c; stroke: #9bd93c"/>
     <use xlink:href="#mc583f01bb6" x="415.595341" y="246.023156" style="fill: #9bd93c; stroke: #9bd93c"/>
     <use xlink:href="#mc583f01bb6" x="459.981705" y="261.814361" style="fill: #9bd93c; stroke: #9bd93c"/>
    </g>
   </g>
   <g id="line2d_16">
    <path d="M 104.890795 211.146905 
L 149.277159 200.907095 
L 193.663523 194.688648 
L 238.049886 192.72486 
L 282.43625 177.337324 
L 326.822614 171.112341 
L 371.208977 204.015067 
L 415.595341 248.87746 
L 459.981705 270.16225 
" clip-path="url(#pd1d8153392)" style="fill: none; stroke: #7ad151; stroke-width: 1.5; stroke-linecap: square"/>
    <defs>
     <path id="m399947fe2f" d="M 0 3 
C 0.795609 3 1.55874 2.683901 2.12132 2.12132 
C 2.683901 1.55874 3 0.795609 3 0 
C 3 -0.795609 2.683901 -1.55874 2.12132 -2.12132 
C 1.55874 -2.683901 0.795609 -3 0 -3 
C -0.795609 -3 -1.55874 -2.683901 -2.12132 -2.12132 
C -2.683901 -1.55874 -3 -0.795609 -3 0 
C -3 0.795609 -2.683901 1.55874 -2.12132 2.12132 
C -1.55874 2.683901 -0.795609 3 0 3 
z
" style="stroke: #7ad151"/>
    </defs>
    <g clip-path="url(#pd1d8153392)">
     <use xlink:href="#m399947fe2f" x="104.890795" y="211.146905" style="fill: #7ad151; stroke: #7ad151"/>
     <use xlink:href="#m399947fe2f" x="149.277159" y="200.907095" style="fill: #7ad151; stroke: #7ad151"/>
     <use xlink:href="#m399947fe2f" x="193.663523" y="194.688648" style="fill: #7ad151; stroke: #7ad151"/>
     <use xlink:href="#m399947fe2f" x="238.049886" y="192.72486" style="fill: #7ad151; stroke: #7ad151"/>
     <use xlink:href="#m399947fe2f" x="282.43625" y="177.337324" style="fill: #7ad151; stroke: #7ad151"/>
     <use xlink:href="#m399947fe2f" x="326.822614" y="171.112341" style="fill: #7ad151; stroke: #7ad151"/>
     <use xlink:href="#m399947fe2f" x="371.208977" y="204.015067" style="fill: #7ad151; stroke: #7ad151"/>
     <use xlink:href="#m399947fe2f" x="415.595341" y="248.87746" style="fill: #7ad151; stroke: #7ad151"/>
     <use xlink:href="#m399947fe2f" x="459.981705" y="270.16225" style="fill: #7ad151; stroke: #7ad151"/>
    </g>
   </g>
   <g id="line2d_17">
    <path d="M 104.890795 219.881608 
L 149.277159 218.511121 
L 193.663523 215.325484 
L 238.049886 219.408068 
L 282.43625 211.999282 
L 326.822614 206.279205 
L 371.208977 218.507478 
L 415.595341 240.260333 
L 459.981705 239.353748 
" clip-path="url(#pd1d8153392)" style="fill: none; stroke: #5ec962; stroke-width: 1.5; stroke-linecap: square"/>
    <defs>
     <path id="m3ecf549d17" d="M 0 3 
C 0.795609 3 1.55874 2.683901 2.12132 2.12132 
C 2.683901 1.55874 3 0.795609 3 0 
C 3 -0.795609 2.683901 -1.55874 2.12132 -2.12132 
C 1.55874 -2.683901 0.795609 -3 0 -3 
C -0.795609 -3 -1.55874 -2.683901 -2.12132 -2.12132 
C -2.683901 -1.55874 -3 -0.795609 -3 0 
C -3 0.795609 -2.683901 1.55874 -2.12132 2.12132 
C -1.55874 2.683901 -0.795609 3 0 3 
z
" style="stroke: #5ec962"/>
    </defs>
    <g clip-path="url(#pd1d8153392)">
     <use xlink:href="#m3ecf549d17" x="104.890795" y="219.881608" style="fill: #5ec962; stroke: #5ec962"/>
     <use xlink:href="#m3ecf549d17" x="149.277159" y="218.511121" style="fill: #5ec962; stroke: #5ec962"/>
     <use xlink:href="#m3ecf549d17" x="193.663523" y="215.325484" style="fill: #5ec962; stroke: #5ec962"/>
     <use xlink:href="#m3ecf549d17" x="238.049886" y="219.408068" style="fill: #5ec962; stroke: #5ec962"/>
     <use xlink:href="#m3ecf549d17" x="282.43625" y="211.999282" style="fill: #5ec962; stroke: #5ec962"/>
     <use xlink:href="#m3ecf549d17" x="326.822614" y="206.279205" style="fill: #5ec962; stroke: #5ec962"/>
     <use xlink:href="#m3ecf549d17" x="371.208977" y="218.507478" style="fill: #5ec962; stroke: #5ec962"/>
     <use xlink:href="#m3ecf549d17" x="415.595341" y="240.260333" style="fill: #5ec962; stroke: #5ec962"/>
     <use xlink:href="#m3ecf549d17" x="459.981705" y="239.353748" style="fill: #5ec962; stroke: #5ec962"/>
    </g>
   </g>
   <g id="line2d_18">
    <path d="M 104.890795 241.993938 
L 149.277159 220.923597 
L 193.663523 229.436697 
L 238.049886 231.5458 
L 282.43625 221.535627 
L 326.822614 226.037768 
L 371.208977 234.510171 
L 415.595341 262.812859 
L 459.981705 254.703656 
" clip-path="url(#pd1d8153392)" style="fill: none; stroke: #44bf70; stroke-width: 1.5; stroke-linecap: square"/>
    <defs>
     <path id="m5aba0f1dc6" d="M 0 3 
C 0.795609 3 1.55874 2.683901 2.12132 2.12132 
C 2.683901 1.55874 3 0.795609 3 0 
C 3 -0.795609 2.683901 -1.55874 2.12132 -2.12132 
C 1.55874 -2.683901 0.795609 -3 0 -3 
C -0.795609 -3 -1.55874 -2.683901 -2.12132 -2.12132 
C -2.683901 -1.55874 -3 -0.795609 -3 0 
C -3 0.795609 -2.683901 1.55874 -2.12132 2.12132 
C -1.55874 2.683901 -0.795609 3 0 3 
z
" style="stroke: #44bf70"/>
    </defs>
    <g clip-path="url(#pd1d8153392)">
     <use xlink:href="#m5aba0f1dc6" x="104.890795" y="241.993938" style="fill: #44bf70; stroke: #44bf70"/>
     <use xlink:href="#m5aba0f1dc6" x="149.277159" y="220.923597" style="fill: #44bf70; stroke: #44bf70"/>
     <use xlink:href="#m5aba0f1dc6" x="193.663523" y="229.436697" style="fill: #44bf70; stroke: #44bf70"/>
     <use xlink:href="#m5aba0f1dc6" x="238.049886" y="231.5458" style="fill: #44bf70; stroke: #44bf70"/>
     <use xlink:href="#m5aba0f1dc6" x="282.43625" y="221.535627" style="fill: #44bf70; stroke: #44bf70"/>
     <use xlink:href="#m5aba0f1dc6" x="326.822614" y="226.037768" style="fill: #44bf70; stroke: #44bf70"/>
     <use xlink:href="#m5aba0f1dc6" x="371.208977" y="234.510171" style="fill: #44bf70; stroke: #44bf70"/>
     <use xlink:href="#m5aba0f1dc6" x="415.595341" y="262.812859" style="fill: #44bf70; stroke: #44bf70"/>
     <use xlink:href="#m5aba0f1dc6" x="459.981705" y="254.703656" style="fill: #44bf70; stroke: #44bf70"/>
    </g>
   </g>
   <g id="line2d_19">
    <path d="M 104.890795 271.909072 
L 149.277159 245.276414 
L 193.663523 239.163552 
L 238.049886 233.843855 
L 282.43625 219.422172 
L 326.822614 223.97751 
L 371.208977 246.344143 
L 415.595341 263.262658 
L 459.981705 249.847113 
" clip-path="url(#pd1d8153392)" style="fill: none; stroke: #2fb47c; stroke-width: 1.5; stroke-linecap: square"/>
    <defs>
     <path id="m51ca2ddb77" d="M 0 3 
C 0.795609 3 1.55874 2.683901 2.12132 2.12132 
C 2.683901 1.55874 3 0.795609 3 0 
C 3 -0.795609 2.683901 -1.55874 2.12132 -2.12132 
C 1.55874 -2.683901 0.795609 -3 0 -3 
C -0.795609 -3 -1.55874 -2.683901 -2.12132 -2.12132 
C -2.683901 -1.55874 -3 -0.795609 -3 0 
C -3 0.795609 -2.683901 1.55874 -2.12132 2.12132 
C -1.55874 2.683901 -0.795609 3 0 3 
z
" style="stroke: #2fb47c"/>
    </defs>
    <g clip-path="url(#pd1d8153392)">
     <use xlink:href="#m51ca2ddb77" x="104.890795" y="271.909072" style="fill: #2fb47c; stroke: #2fb47c"/>
     <use xlink:href="#m51ca2ddb77" x="149.277159" y="245.276414" style="fill: #2fb47c; stroke: #2fb47c"/>
     <use xlink:href="#m51ca2ddb77" x="193.663523" y="239.163552" style="fill: #2fb47c; stroke: #2fb47c"/>
     <use xlink:href="#m51ca2ddb77" x="238.049886" y="233.843855" style="fill: #2fb47c; stroke: #2fb47c"/>
     <use xlink:href="#m51ca2ddb77" x="282.43625" y="219.422172" style="fill: #2fb47c; stroke: #2fb47c"/>
     <use xlink:href="#m51ca2ddb77" x="326.822614" y="223.97751" style="fill: #2fb47c; stroke: #2fb47c"/>
     <use xlink:href="#m51ca2ddb77" x="371.208977" y="246.344143" style="fill: #2fb47c; stroke: #2fb47c"/>
     <use xlink:href="#m51ca2ddb77" x="415.595341" y="263.262658" style="fill: #2fb47c; stroke: #2fb47c"/>
     <use xlink:href="#m51ca2ddb77" x="459.981705" y="249.847113" style="fill: #2fb47c; stroke: #2fb47c"/>
    </g>
   </g>
   <g id="line2d_20">
    <path d="M 104.890795 278.024176 
L 149.277159 255.245693 
L 193.663523 238.230634 
L 238.049886 225.042214 
L 282.43625 217.472083 
L 326.822614 224.93649 
L 371.208977 238.361989 
L 415.595341 254.590419 
L 459.981705 246.306042 
" clip-path="url(#pd1d8153392)" style="fill: none; stroke: #22a884; stroke-width: 1.5; stroke-linecap: square"/>
    <defs>
     <path id="me4ec05f621" d="M 0 3 
C 0.795609 3 1.55874 2.683901 2.12132 2.12132 
C 2.683901 1.55874 3 0.795609 3 0 
C 3 -0.795609 2.683901 -1.55874 2.12132 -2.12132 
C 1.55874 -2.683901 0.795609 -3 0 -3 
C -0.795609 -3 -1.55874 -2.683901 -2.12132 -2.12132 
C -2.683901 -1.55874 -3 -0.795609 -3 0 
C -3 0.795609 -2.683901 1.55874 -2.12132 2.12132 
C -1.55874 2.683901 -0.795609 3 0 3 
z
" style="stroke: #22a884"/>
    </defs>
    <g clip-path="url(#pd1d8153392)">
     <use xlink:href="#me4ec05f621" x="104.890795" y="278.024176" style="fill: #22a884; stroke: #22a884"/>
     <use xlink:href="#me4ec05f621" x="149.277159" y="255.245693" style="fill: #22a884; stroke: #22a884"/>
     <use xlink:href="#me4ec05f621" x="193.663523" y="238.230634" style="fill: #22a884; stroke: #22a884"/>
     <use xlink:href="#me4ec05f621" x="238.049886" y="225.042214" style="fill: #22a884; stroke: #22a884"/>
     <use xlink:href="#me4ec05f621" x="282.43625" y="217.472083" style="fill: #22a884; stroke: #22a884"/>
     <use xlink:href="#me4ec05f621" x="326.822614" y="224.93649" style="fill: #22a884; stroke: #22a884"/>
     <use xlink:href="#me4ec05f621" x="371.208977" y="238.361989" style="fill: #22a884; stroke: #22a884"/>
     <use xlink:href="#me4ec05f621" x="415.595341" y="254.590419" style="fill: #22a884; stroke: #22a884"/>
     <use xlink:href="#me4ec05f621" x="459.981705" y="246.306042" style="fill: #22a884; stroke: #22a884"/>
    </g>
   </g>
   <g id="line2d_21">
    <path d="M 104.890795 276.406187 
L 149.277159 255.780738 
L 193.663523 248.872462 
L 238.049886 238.520662 
L 282.43625 241.674209 
L 326.822614 244.91542 
L 371.208977 260.848275 
L 415.595341 273.027669 
L 459.981705 261.226792 
" clip-path="url(#pd1d8153392)" style="fill: none; stroke: #1e9c89; stroke-width: 1.5; stroke-linecap: square"/>
    <defs>
     <path id="m3711eee9f8" d="M 0 3 
C 0.795609 3 1.55874 2.683901 2.12132 2.12132 
C 2.683901 1.55874 3 0.795609 3 0 
C 3 -0.795609 2.683901 -1.55874 2.12132 -2.12132 
C 1.55874 -2.683901 0.795609 -3 0 -3 
C -0.795609 -3 -1.55874 -2.683901 -2.12132 -2.12132 
C -2.683901 -1.55874 -3 -0.795609 -3 0 
C -3 0.795609 -2.683901 1.55874 -2.12132 2.12132 
C -1.55874 2.683901 -0.795609 3 0 3 
z
" style="stroke: #1e9c89"/>
    </defs>
    <g clip-path="url(#pd1d8153392)">
     <use xlink:href="#m3711eee9f8" x="104.890795" y="276.406187" style="fill: #1e9c89; stroke: #1e9c89"/>
     <use xlink:href="#m3711eee9f8" x="149.277159" y="255.780738" style="fill: #1e9c89; stroke: #1e9c89"/>
     <use xlink:href="#m3711eee9f8" x="193.663523" y="248.872462" style="fill: #1e9c89; stroke: #1e9c89"/>
     <use xlink:href="#m3711eee9f8" x="238.049886" y="238.520662" style="fill: #1e9c89; stroke: #1e9c89"/>
     <use xlink:href="#m3711eee9f8" x="282.43625" y="241.674209" style="fill: #1e9c89; stroke: #1e9c89"/>
     <use xlink:href="#m3711eee9f8" x="326.822614" y="244.91542" style="fill: #1e9c89; stroke: #1e9c89"/>
     <use xlink:href="#m3711eee9f8" x="371.208977" y="260.848275" style="fill: #1e9c89; stroke: #1e9c89"/>
     <use xlink:href="#m3711eee9f8" x="415.595341" y="273.027669" style="fill: #1e9c89; stroke: #1e9c89"/>
     <use xlink:href="#m3711eee9f8" x="459.981705" y="261.226792" style="fill: #1e9c89; stroke: #1e9c89"/>
    </g>
   </g>
   <g id="line2d_22">
    <path d="M 104.890795 279.669707 
L 149.277159 268.49582 
L 193.663523 270.745616 
L 238.049886 262.124083 
L 282.43625 250.395197 
L 326.822614 248.892378 
L 371.208977 259.593464 
L 415.595341 271.821961 
L 459.981705 245.589233 
" clip-path="url(#pd1d8153392)" style="fill: none; stroke: #21918c; stroke-width: 1.5; stroke-linecap: square"/>
    <defs>
     <path id="m29e5d503a5" d="M 0 3 
C 0.795609 3 1.55874 2.683901 2.12132 2.12132 
C 2.683901 1.55874 3 0.795609 3 0 
C 3 -0.795609 2.683901 -1.55874 2.12132 -2.12132 
C 1.55874 -2.683901 0.795609 -3 0 -3 
C -0.795609 -3 -1.55874 -2.683901 -2.12132 -2.12132 
C -2.683901 -1.55874 -3 -0.795609 -3 0 
C -3 0.795609 -2.683901 1.55874 -2.12132 2.12132 
C -1.55874 2.683901 -0.795609 3 0 3 
z
" style="stroke: #21918c"/>
    </defs>
    <g clip-path="url(#pd1d8153392)">
     <use xlink:href="#m29e5d503a5" x="104.890795" y="279.669707" style="fill: #21918c; stroke: #21918c"/>
     <use xlink:href="#m29e5d503a5" x="149.277159" y="268.49582" style="fill: #21918c; stroke: #21918c"/>
     <use xlink:href="#m29e5d503a5" x="193.663523" y="270.745616" style="fill: #21918c; stroke: #21918c"/>
     <use xlink:href="#m29e5d503a5" x="238.049886" y="262.124083" style="fill: #21918c; stroke: #21918c"/>
     <use xlink:href="#m29e5d503a5" x="282.43625" y="250.395197" style="fill: #21918c; stroke: #21918c"/>
     <use xlink:href="#m29e5d503a5" x="326.822614" y="248.892378" style="fill: #21918c; stroke: #21918c"/>
     <use xlink:href="#m29e5d503a5" x="371.208977" y="259.593464" style="fill: #21918c; stroke: #21918c"/>
     <use xlink:href="#m29e5d503a5" x="415.595341" y="271.821961" style="fill: #21918c; stroke: #21918c"/>
     <use xlink:href="#m29e5d503a5" x="459.981705" y="245.589233" style="fill: #21918c; stroke: #21918c"/>
    </g>
   </g>
   <g id="line2d_23">
    <path d="M 104.890795 285.314371 
L 149.277159 274.963244 
L 193.663523 264.746599 
L 238.049886 256.872898 
L 282.43625 255.231374 
L 326.822614 251.864687 
L 371.208977 256.27325 
L 415.595341 268.306233 
L 459.981705 252.653775 
" clip-path="url(#pd1d8153392)" style="fill: none; stroke: #25848e; stroke-width: 1.5; stroke-linecap: square"/>
    <defs>
     <path id="m877c69ca0e" d="M 0 3 
C 0.795609 3 1.55874 2.683901 2.12132 2.12132 
C 2.683901 1.55874 3 0.795609 3 0 
C 3 -0.795609 2.683901 -1.55874 2.12132 -2.12132 
C 1.55874 -2.683901 0.795609 -3 0 -3 
C -0.795609 -3 -1.55874 -2.683901 -2.12132 -2.12132 
C -2.683901 -1.55874 -3 -0.795609 -3 0 
C -3 0.795609 -2.683901 1.55874 -2.12132 2.12132 
C -1.55874 2.683901 -0.795609 3 0 3 
z
" style="stroke: #25848e"/>
    </defs>
    <g clip-path="url(#pd1d8153392)">
     <use xlink:href="#m877c69ca0e" x="104.890795" y="285.314371" style="fill: #25848e; stroke: #25848e"/>
     <use xlink:href="#m877c69ca0e" x="149.277159" y="274.963244" style="fill: #25848e; stroke: #25848e"/>
     <use xlink:href="#m877c69ca0e" x="193.663523" y="264.746599" style="fill: #25848e; stroke: #25848e"/>
     <use xlink:href="#m877c69ca0e" x="238.049886" y="256.872898" style="fill: #25848e; stroke: #25848e"/>
     <use xlink:href="#m877c69ca0e" x="282.43625" y="255.231374" style="fill: #25848e; stroke: #25848e"/>
     <use xlink:href="#m877c69ca0e" x="326.822614" y="251.864687" style="fill: #25848e; stroke: #25848e"/>
     <use xlink:href="#m877c69ca0e" x="371.208977" y="256.27325" style="fill: #25848e; stroke: #25848e"/>
     <use xlink:href="#m877c69ca0e" x="415.595341" y="268.306233" style="fill: #25848e; stroke: #25848e"/>
     <use xlink:href="#m877c69ca0e" x="459.981705" y="252.653775" style="fill: #25848e; stroke: #25848e"/>
    </g>
   </g>
   <g id="line2d_24">
    <path d="M 104.890795 279.204402 
L 149.277159 269.022788 
L 193.663523 268.753745 
L 238.049886 265.179785 
L 282.43625 257.91078 
L 326.822614 262.140443 
L 371.208977 266.047381 
L 415.595341 266.2187 
L 459.981705 249.969956 
" clip-path="url(#pd1d8153392)" style="fill: none; stroke: #2a788e; stroke-width: 1.5; stroke-linecap: square"/>
    <defs>
     <path id="me9769c3709" d="M 0 3 
C 0.795609 3 1.55874 2.683901 2.12132 2.12132 
C 2.683901 1.55874 3 0.795609 3 0 
C 3 -0.795609 2.683901 -1.55874 2.12132 -2.12132 
C 1.55874 -2.683901 0.795609 -3 0 -3 
C -0.795609 -3 -1.55874 -2.683901 -2.12132 -2.12132 
C -2.683901 -1.55874 -3 -0.795609 -3 0 
C -3 0.795609 -2.683901 1.55874 -2.12132 2.12132 
C -1.55874 2.683901 -0.795609 3 0 3 
z
" style="stroke: #2a788e"/>
    </defs>
    <g clip-path="url(#pd1d8153392)">
     <use xlink:href="#me9769c3709" x="104.890795" y="279.204402" style="fill: #2a788e; stroke: #2a788e"/>
     <use xlink:href="#me9769c3709" x="149.277159" y="269.022788" style="fill: #2a788e; stroke: #2a788e"/>
     <use xlink:href="#me9769c3709" x="193.663523" y="268.753745" style="fill: #2a788e; stroke: #2a788e"/>
     <use xlink:href="#me9769c3709" x="238.049886" y="265.179785" style="fill: #2a788e; stroke: #2a788e"/>
     <use xlink:href="#me9769c3709" x="282.43625" y="257.91078" style="fill: #2a788e; stroke: #2a788e"/>
     <use xlink:href="#me9769c3709" x="326.822614" y="262.140443" style="fill: #2a788e; stroke: #2a788e"/>
     <use xlink:href="#me9769c3709" x="371.208977" y="266.047381" style="fill: #2a788e; stroke: #2a788e"/>
     <use xlink:href="#me9769c3709" x="415.595341" y="266.2187" style="fill: #2a788e; stroke: #2a788e"/>
     <use xlink:href="#me9769c3709" x="459.981705" y="249.969956" style="fill: #2a788e; stroke: #2a788e"/>
    </g>
   </g>
   <g id="line2d_25">
    <path d="M 104.890795 279.65676 
L 149.277159 273.062179 
L 193.663523 271.1212 
L 238.049886 254.918039 
L 282.43625 246.409241 
L 326.822614 243.004504 
L 371.208977 246.338701 
L 415.595341 260.448814 
L 459.981705 237.170952 
" clip-path="url(#pd1d8153392)" style="fill: none; stroke: #2f6c8e; stroke-width: 1.5; stroke-linecap: square"/>
    <defs>
     <path id="m507c0ab73b" d="M 0 3 
C 0.795609 3 1.55874 2.683901 2.12132 2.12132 
C 2.683901 1.55874 3 0.795609 3 0 
C 3 -0.795609 2.683901 -1.55874 2.12132 -2.12132 
C 1.55874 -2.683901 0.795609 -3 0 -3 
C -0.795609 -3 -1.55874 -2.683901 -2.12132 -2.12132 
C -2.683901 -1.55874 -3 -0.795609 -3 0 
C -3 0.795609 -2.683901 1.55874 -2.12132 2.12132 
C -1.55874 2.683901 -0.795609 3 0 3 
z
" style="stroke: #2f6c8e"/>
    </defs>
    <g clip-path="url(#pd1d8153392)">
     <use xlink:href="#m507c0ab73b" x="104.890795" y="279.65676" style="fill: #2f6c8e; stroke: #2f6c8e"/>
     <use xlink:href="#m507c0ab73b" x="149.277159" y="273.062179" style="fill: #2f6c8e; stroke: #2f6c8e"/>
     <use xlink:href="#m507c0ab73b" x="193.663523" y="271.1212" style="fill: #2f6c8e; stroke: #2f6c8e"/>
     <use xlink:href="#m507c0ab73b" x="238.049886" y="254.918039" style="fill: #2f6c8e; stroke: #2f6c8e"/>
     <use xlink:href="#m507c0ab73b" x="282.43625" y="246.409241" style="fill: #2f6c8e; stroke: #2f6c8e"/>
     <use xlink:href="#m507c0ab73b" x="326.822614" y="243.004504" style="fill: #2f6c8e; stroke: #2f6c8e"/>
     <use xlink:href="#m507c0ab73b" x="371.208977" y="246.338701" style="fill: #2f6c8e; stroke: #2f6c8e"/>
     <use xlink:href="#m507c0ab73b" x="415.595341" y="260.448814" style="fill: #2f6c8e; stroke: #2f6c8e"/>
     <use xlink:href="#m507c0ab73b" x="459.981705" y="237.170952" style="fill: #2f6c8e; stroke: #2f6c8e"/>
    </g>
   </g>
   <g id="line2d_26">
    <path d="M 104.890795 281.99093 
L 149.277159 274.629974 
L 193.663523 271.15999 
L 238.049886 261.349077 
L 282.43625 256.843475 
L 326.822614 257.33439 
L 371.208977 261.521351 
L 415.595341 260.299247 
L 459.981705 241.735612 
" clip-path="url(#pd1d8153392)" style="fill: none; stroke: #355f8d; stroke-width: 1.5; stroke-linecap: square"/>
    <defs>
     <path id="mc2d8fe743a" d="M 0 3 
C 0.795609 3 1.55874 2.683901 2.12132 2.12132 
C 2.683901 1.55874 3 0.795609 3 0 
C 3 -0.795609 2.683901 -1.55874 2.12132 -2.12132 
C 1.55874 -2.683901 0.795609 -3 0 -3 
C -0.795609 -3 -1.55874 -2.683901 -2.12132 -2.12132 
C -2.683901 -1.55874 -3 -0.795609 -3 0 
C -3 0.795609 -2.683901 1.55874 -2.12132 2.12132 
C -1.55874 2.683901 -0.795609 3 0 3 
z
" style="stroke: #355f8d"/>
    </defs>
    <g clip-path="url(#pd1d8153392)">
     <use xlink:href="#mc2d8fe743a" x="104.890795" y="281.99093" style="fill: #355f8d; stroke: #355f8d"/>
     <use xlink:href="#mc2d8fe743a" x="149.277159" y="274.629974" style="fill: #355f8d; stroke: #355f8d"/>
     <use xlink:href="#mc2d8fe743a" x="193.663523" y="271.15999" style="fill: #355f8d; stroke: #355f8d"/>
     <use xlink:href="#mc2d8fe743a" x="238.049886" y="261.349077" style="fill: #355f8d; stroke: #355f8d"/>
     <use xlink:href="#mc2d8fe743a" x="282.43625" y="256.843475" style="fill: #355f8d; stroke: #355f8d"/>
     <use xlink:href="#mc2d8fe743a" x="326.822614" y="257.33439" style="fill: #355f8d; stroke: #355f8d"/>
     <use xlink:href="#mc2d8fe743a" x="371.208977" y="261.521351" style="fill: #355f8d; stroke: #355f8d"/>
     <use xlink:href="#mc2d8fe743a" x="415.595341" y="260.299247" style="fill: #355f8d; stroke: #355f8d"/>
     <use xlink:href="#mc2d8fe743a" x="459.981705" y="241.735612" style="fill: #355f8d; stroke: #355f8d"/>
    </g>
   </g>
   <g id="line2d_27">
    <path d="M 104.890795 283.999815 
L 149.277159 277.488235 
L 193.663523 271.194204 
L 238.049886 260.630956 
L 282.43625 258.171689 
L 326.822614 255.967415 
L 371.208977 266.089193 
L 415.595341 272.60874 
L 459.981705 251.00776 
" clip-path="url(#pd1d8153392)" style="fill: none; stroke: #3b528b; stroke-width: 1.5; stroke-linecap: square"/>
    <defs>
     <path id="m2fc06db986" d="M 0 3 
C 0.795609 3 1.55874 2.683901 2.12132 2.12132 
C 2.683901 1.55874 3 0.795609 3 0 
C 3 -0.795609 2.683901 -1.55874 2.12132 -2.12132 
C 1.55874 -2.683901 0.795609 -3 0 -3 
C -0.795609 -3 -1.55874 -2.683901 -2.12132 -2.12132 
C -2.683901 -1.55874 -3 -0.795609 -3 0 
C -3 0.795609 -2.683901 1.55874 -2.12132 2.12132 
C -1.55874 2.683901 -0.795609 3 0 3 
z
" style="stroke: #3b528b"/>
    </defs>
    <g clip-path="url(#pd1d8153392)">
     <use xlink:href="#m2fc06db986" x="104.890795" y="283.999815" style="fill: #3b528b; stroke: #3b528b"/>
     <use xlink:href="#m2fc06db986" x="149.277159" y="277.488235" style="fill: #3b528b; stroke: #3b528b"/>
     <use xlink:href="#m2fc06db986" x="193.663523" y="271.194204" style="fill: #3b528b; stroke: #3b528b"/>
     <use xlink:href="#m2fc06db986" x="238.049886" y="260.630956" style="fill: #3b528b; stroke: #3b528b"/>
     <use xlink:href="#m2fc06db986" x="282.43625" y="258.171689" style="fill: #3b528b; stroke: #3b528b"/>
     <use xlink:href="#m2fc06db986" x="326.822614" y="255.967415" style="fill: #3b528b; stroke: #3b528b"/>
     <use xlink:href="#m2fc06db986" x="371.208977" y="266.089193" style="fill: #3b528b; stroke: #3b528b"/>
     <use xlink:href="#m2fc06db986" x="415.595341" y="272.60874" style="fill: #3b528b; stroke: #3b528b"/>
     <use xlink:href="#m2fc06db986" x="459.981705" y="251.00776" style="fill: #3b528b; stroke: #3b528b"/>
    </g>
   </g>
   <g id="line2d_28">
    <path d="M 104.890795 287.181328 
L 149.277159 282.748638 
L 193.663523 276.82392 
L 238.049886 264.397079 
L 282.43625 256.23675 
L 326.822614 248.377875 
L 371.208977 253.579638 
L 415.595341 264.085187 
L 459.981705 240.13446 
" clip-path="url(#pd1d8153392)" style="fill: none; stroke: #414487; stroke-width: 1.5; stroke-linecap: square"/>
    <defs>
     <path id="m4148b04a1e" d="M 0 3 
C 0.795609 3 1.55874 2.683901 2.12132 2.12132 
C 2.683901 1.55874 3 0.795609 3 0 
C 3 -0.795609 2.683901 -1.55874 2.12132 -2.12132 
C 1.55874 -2.683901 0.795609 -3 0 -3 
C -0.795609 -3 -1.55874 -2.683901 -2.12132 -2.12132 
C -2.683901 -1.55874 -3 -0.795609 -3 0 
C -3 0.795609 -2.683901 1.55874 -2.12132 2.12132 
C -1.55874 2.683901 -0.795609 3 0 3 
z
" style="stroke: #414487"/>
    </defs>
    <g clip-path="url(#pd1d8153392)">
     <use xlink:href="#m4148b04a1e" x="104.890795" y="287.181328" style="fill: #414487; stroke: #414487"/>
     <use xlink:href="#m4148b04a1e" x="149.277159" y="282.748638" style="fill: #414487; stroke: #414487"/>
     <use xlink:href="#m4148b04a1e" x="193.663523" y="276.82392" style="fill: #414487; stroke: #414487"/>
     <use xlink:href="#m4148b04a1e" x="238.049886" y="264.397079" style="fill: #414487; stroke: #414487"/>
     <use xlink:href="#m4148b04a1e" x="282.43625" y="256.23675" style="fill: #414487; stroke: #414487"/>
     <use xlink:href="#m4148b04a1e" x="326.822614" y="248.377875" style="fill: #414487; stroke: #414487"/>
     <use xlink:href="#m4148b04a1e" x="371.208977" y="253.579638" style="fill: #414487; stroke: #414487"/>
     <use xlink:href="#m4148b04a1e" x="415.595341" y="264.085187" style="fill: #414487; stroke: #414487"/>
     <use xlink:href="#m4148b04a1e" x="459.981705" y="240.13446" style="fill: #414487; stroke: #414487"/>
    </g>
   </g>
   <g id="line2d_29">
    <path d="M 104.890795 287.872231 
L 149.277159 279.67188 
L 193.663523 274.735097 
L 238.049886 265.448956 
L 282.43625 258.718693 
L 326.822614 255.344793 
L 371.208977 257.221991 
L 415.595341 267.745497 
L 459.981705 237.240495 
" clip-path="url(#pd1d8153392)" style="fill: none; stroke: #463480; stroke-width: 1.5; stroke-linecap: square"/>
    <defs>
     <path id="maf213b03f8" d="M 0 3 
C 0.795609 3 1.55874 2.683901 2.12132 2.12132 
C 2.683901 1.55874 3 0.795609 3 0 
C 3 -0.795609 2.683901 -1.55874 2.12132 -2.12132 
C 1.55874 -2.683901 0.795609 -3 0 -3 
C -0.795609 -3 -1.55874 -2.683901 -2.12132 -2.12132 
C -2.683901 -1.55874 -3 -0.795609 -3 0 
C -3 0.795609 -2.683901 1.55874 -2.12132 2.12132 
C -1.55874 2.683901 -0.795609 3 0 3 
z
" style="stroke: #463480"/>
    </defs>
    <g clip-path="url(#pd1d8153392)">
     <use xlink:href="#maf213b03f8" x="104.890795" y="287.872231" style="fill: #463480; stroke: #463480"/>
     <use xlink:href="#maf213b03f8" x="149.277159" y="279.67188" style="fill: #463480; stroke: #463480"/>
     <use xlink:href="#maf213b03f8" x="193.663523" y="274.735097" style="fill: #463480; stroke: #463480"/>
     <use xlink:href="#maf213b03f8" x="238.049886" y="265.448956" style="fill: #463480; stroke: #463480"/>
     <use xlink:href="#maf213b03f8" x="282.43625" y="258.718693" style="fill: #463480; stroke: #463480"/>
     <use xlink:href="#maf213b03f8" x="326.822614" y="255.344793" style="fill: #463480; stroke: #463480"/>
     <use xlink:href="#maf213b03f8" x="371.208977" y="257.221991" style="fill: #463480; stroke: #463480"/>
     <use xlink:href="#maf213b03f8" x="415.595341" y="267.745497" style="fill: #463480; stroke: #463480"/>
     <use xlink:href="#maf213b03f8" x="459.981705" y="237.240495" style="fill: #463480; stroke: #463480"/>
    </g>
   </g>
   <g id="line2d_30">
    <path d="M 104.890795 289.581346 
L 149.277159 280.304486 
L 193.663523 273.472224 
L 238.049886 269.590883 
L 282.43625 263.880091 
L 326.822614 264.768021 
L 371.208977 261.107686 
L 415.595341 270.898818 
L 459.981705 241.31191 
" clip-path="url(#pd1d8153392)" style="fill: none; stroke: #482475; stroke-width: 1.5; stroke-linecap: square"/>
    <defs>
     <path id="m64eb4ca978" d="M 0 3 
C 0.795609 3 1.55874 2.683901 2.12132 2.12132 
C 2.683901 1.55874 3 0.795609 3 0 
C 3 -0.795609 2.683901 -1.55874 2.12132 -2.12132 
C 1.55874 -2.683901 0.795609 -3 0 -3 
C -0.795609 -3 -1.55874 -2.683901 -2.12132 -2.12132 
C -2.683901 -1.55874 -3 -0.795609 -3 0 
C -3 0.795609 -2.683901 1.55874 -2.12132 2.12132 
C -1.55874 2.683901 -0.795609 3 0 3 
z
" style="stroke: #482475"/>
    </defs>
    <g clip-path="url(#pd1d8153392)">
     <use xlink:href="#m64eb4ca978" x="104.890795" y="289.581346" style="fill: #482475; stroke: #482475"/>
     <use xlink:href="#m64eb4ca978" x="149.277159" y="280.304486" style="fill: #482475; stroke: #482475"/>
     <use xlink:href="#m64eb4ca978" x="193.663523" y="273.472224" style="fill: #482475; stroke: #482475"/>
     <use xlink:href="#m64eb4ca978" x="238.049886" y="269.590883" style="fill: #482475; stroke: #482475"/>
     <use xlink:href="#m64eb4ca978" x="282.43625" y="263.880091" style="fill: #482475; stroke: #482475"/>
     <use xlink:href="#m64eb4ca978" x="326.822614" y="264.768021" style="fill: #482475; stroke: #482475"/>
     <use xlink:href="#m64eb4ca978" x="371.208977" y="261.107686" style="fill: #482475; stroke: #482475"/>
     <use xlink:href="#m64eb4ca978" x="415.595341" y="270.898818" style="fill: #482475; stroke: #482475"/>
     <use xlink:href="#m64eb4ca978" x="459.981705" y="241.31191" style="fill: #482475; stroke: #482475"/>
    </g>
   </g>
   <g id="line2d_31">
    <path d="M 104.890795 287.400381 
L 149.277159 279.33034 
L 193.663523 270.507317 
L 238.049886 256.299599 
L 282.43625 249.926813 
L 326.822614 242.783736 
L 371.208977 239.147687 
L 415.595341 221.117724 
L 459.981705 189.407805 
" clip-path="url(#pd1d8153392)" style="fill: none; stroke: #471365; stroke-width: 1.5; stroke-linecap: square"/>
    <defs>
     <path id="mc180a9c694" d="M 0 3 
C 0.795609 3 1.55874 2.683901 2.12132 2.12132 
C 2.683901 1.55874 3 0.795609 3 0 
C 3 -0.795609 2.683901 -1.55874 2.12132 -2.12132 
C 1.55874 -2.683901 0.795609 -3 0 -3 
C -0.795609 -3 -1.55874 -2.683901 -2.12132 -2.12132 
C -2.683901 -1.55874 -3 -0.795609 -3 0 
C -3 0.795609 -2.683901 1.55874 -2.12132 2.12132 
C -1.55874 2.683901 -0.795609 3 0 3 
z
" style="stroke: #471365"/>
    </defs>
    <g clip-path="url(#pd1d8153392)">
     <use xlink:href="#mc180a9c694" x="104.890795" y="287.400381" style="fill: #471365; stroke: #471365"/>
     <use xlink:href="#mc180a9c694" x="149.277159" y="279.33034" style="fill: #471365; stroke: #471365"/>
     <use xlink:href="#mc180a9c694" x="193.663523" y="270.507317" style="fill: #471365; stroke: #471365"/>
     <use xlink:href="#mc180a9c694" x="238.049886" y="256.299599" style="fill: #471365; stroke: #471365"/>
     <use xlink:href="#mc180a9c694" x="282.43625" y="249.926813" style="fill: #471365; stroke: #471365"/>
     <use xlink:href="#mc180a9c694" x="326.822614" y="242.783736" style="fill: #471365; stroke: #471365"/>
     <use xlink:href="#mc180a9c694" x="371.208977" y="239.147687" style="fill: #471365; stroke: #471365"/>
     <use xlink:href="#mc180a9c694" x="415.595341" y="221.117724" style="fill: #471365; stroke: #471365"/>
     <use xlink:href="#mc180a9c694" x="459.981705" y="189.407805" style="fill: #471365; stroke: #471365"/>
    </g>
   </g>
   <g id="patch_3">
    <path d="M 87.13625 302.937346 
L 87.13625 9.105346 
" style="fill: none; stroke: #000000; stroke-width: 0.8; stroke-linejoin: miter; stroke-linecap: square"/>
   </g>
   <g id="patch_4">
    <path d="M 477.73625 302.937346 
L 477.73625 9.105346 
" style="fill: none"/>
   </g>
   <g id="patch_5">
    <path d="M 87.13625 302.937346 
L 477.73625 302.937346 
" style="fill: none; stroke: #000000; stroke-width: 0.8; stroke-linejoin: miter; stroke-linecap: square"/>
   </g>
   <g id="patch_6">
    <path d="M 87.13625 9.105346 
L 477.73625 9.105346 
" style="fill: none"/>
   </g>
  </g>
 </g>
 <defs>
  <clipPath id="pd1d8153392">
   <rect x="87.13625" y="9.105346" width="390.6" height="293.832"/>
  </clipPath>
 </defs>
</svg>
