<?xml version="1.0" encoding="utf-8" standalone="no"?>
<!DOCTYPE svg PUBLIC "-//W3C//DTD SVG 1.1//EN"
  "http://www.w3.org/Graphics/SVG/1.1/DTD/svg11.dtd">
<svg xmlns:xlink="http://www.w3.org/1999/xlink" width="438.6925pt" height="337.18075pt" viewBox="0 0 438.6925 337.18075" xmlns="http://www.w3.org/2000/svg" version="1.1">
 <metadata>
  <rdf:RDF xmlns:dc="http://purl.org/dc/elements/1.1/" xmlns:cc="http://creativecommons.org/ns#" xmlns:rdf="http://www.w3.org/1999/02/22-rdf-syntax-ns#">
   <cc:Work>
    <dc:type rdf:resource="http://purl.org/dc/dcmitype/StillImage"/>
    <dc:date>2026-02-16T22:18:04.629997</dc:date>
    <dc:format>image/svg+xml</dc:format>
    <dc:creator>
     <cc:Agent>
      <dc:title>Matplotlib v3.10.8, https://matplotlib.org/</dc:title>
     </cc:Agent>
    </dc:creator>
   </cc:Work>
  </rdf:RDF>
 </metadata>
 <defs>
  <style type="text/css">*{stroke-linejoin: round; stroke-linecap: butt}</style>
 </defs>
 <g id="figure_1">
  <g id="patch_1">
   <path d="M 0 337.18075 
L 438.6925 337.18075 
L 438.6925 -0 
L 0 -0 
L 0 337.18075 
z
" style="fill: none"/>
  </g>
  <g id="axes_1">
   <g id="patch_2">
    <path d="M 40.8925 301.032 
L 431.4925 301.032 
L 431.4925 7.2 
L 40.8925 7.2 
L 40.8925 301.032 
z
" style="fill: none"/>
   </g>
   <g id="PathCollection_1">
    <defs>
     <path id="m2f57496c04" d="M 0 1.118034 
C 0.296506 1.118034 0.580908 1.000231 0.790569 0.790569 
C 1.000231 0.580908 1.118034 0.296506 1.118034 0 
C 1.118034 -0.296506 1.000231 -0.580908 0.790569 -0.790569 
C 0.580908 -1.000231 0.296506 -1.118034 0 -1.118034 
C -0.296506 -1.118034 -0.580908 -1.000231 -0.790569 -0.790569 
C -1.000231 -0.580908 -1.118034 -0.296506 -1.118034 0 
C -1.118034 0.296506 -1.000231 0.580908 -0.790569 0.790569 
C -0.580908 1.000231 -0.296506 1.118034 0 1.118034 
z
" style="stroke: #000000; stroke-opacity: 0.5"/>
    </defs>
    <g clip-path="url(#p040aac627d)">
     <use xlink:href="#m2f57496c04" x="162.80327" y="274.893706" style="fill-opacity: 0.5; stroke: #000000; stroke-opacity: 0.5"/>
     <use xlink:href="#m2f57496c04" x="163.558235" y="230.139916" style="fill-opacity: 0.5; stroke: #000000; stroke-opacity: 0.5"/>
     <use xlink:href="#m2f57496c04" x="163.36139" y="215.497806" style="fill-opacity: 0.5; stroke: #000000; stroke-opacity: 0.5"/>
     <use xlink:href="#m2f57496c04" x="162.015672" y="287.676" style="fill-opacity: 0.5; stroke: #000000; stroke-opacity: 0.5"/>
     <use xlink:href="#m2f57496c04" x="162.745083" y="279.511723" style="fill-opacity: 0.5; stroke: #000000; stroke-opacity: 0.5"/>
     <use xlink:href="#m2f57496c04" x="162.751618" y="239.50992" style="fill-opacity: 0.5; stroke: #000000; stroke-opacity: 0.5"/>
     <use xlink:href="#m2f57496c04" x="163.297649" y="267.761785" style="fill-opacity: 0.5; stroke: #000000; stroke-opacity: 0.5"/>
     <use xlink:href="#m2f57496c04" x="162.169835" y="214.820076" style="fill-opacity: 0.5; stroke: #000000; stroke-opacity: 0.5"/>
     <use xlink:href="#m2f57496c04" x="162.149059" y="209.075136" style="fill-opacity: 0.5; stroke: #000000; stroke-opacity: 0.5"/>
     <use xlink:href="#m2f57496c04" x="211.307666" y="187.23018" style="fill-opacity: 0.5; stroke: #000000; stroke-opacity: 0.5"/>
     <use xlink:href="#m2f57496c04" x="211.931824" y="183.392339" style="fill-opacity: 0.5; stroke: #000000; stroke-opacity: 0.5"/>
     <use xlink:href="#m2f57496c04" x="211.310846" y="170.40515" style="fill-opacity: 0.5; stroke: #000000; stroke-opacity: 0.5"/>
     <use xlink:href="#m2f57496c04" x="211.4082" y="194.992547" style="fill-opacity: 0.5; stroke: #000000; stroke-opacity: 0.5"/>
     <use xlink:href="#m2f57496c04" x="212.643971" y="203.661181" style="fill-opacity: 0.5; stroke: #000000; stroke-opacity: 0.5"/>
     <use xlink:href="#m2f57496c04" x="211.826987" y="202.873123" style="fill-opacity: 0.5; stroke: #000000; stroke-opacity: 0.5"/>
     <use xlink:href="#m2f57496c04" x="211.088481" y="220.194629" style="fill-opacity: 0.5; stroke: #000000; stroke-opacity: 0.5"/>
     <use xlink:href="#m2f57496c04" x="212.679219" y="188.112804" style="fill-opacity: 0.5; stroke: #000000; stroke-opacity: 0.5"/>
     <use xlink:href="#m2f57496c04" x="211.05772" y="195.938216" style="fill-opacity: 0.5; stroke: #000000; stroke-opacity: 0.5"/>
    </g>
   </g>
   <g id="PathCollection_2">
    <g clip-path="url(#p040aac627d)">
     <use xlink:href="#m2f57496c04" x="65.049636" y="241.889854" style="fill-opacity: 0.5; stroke: #000000; stroke-opacity: 0.5"/>
     <use xlink:href="#m2f57496c04" x="66.174619" y="213.91381" style="fill-opacity: 0.5; stroke: #000000; stroke-opacity: 0.5"/>
     <use xlink:href="#m2f57496c04" x="65.596449" y="223.76453" style="fill-opacity: 0.5; stroke: #000000; stroke-opacity: 0.5"/>
     <use xlink:href="#m2f57496c04" x="65.938696" y="164.959672" style="fill-opacity: 0.5; stroke: #000000; stroke-opacity: 0.5"/>
     <use xlink:href="#m2f57496c04" x="65.151732" y="183.54207" style="fill-opacity: 0.5; stroke: #000000; stroke-opacity: 0.5"/>
     <use xlink:href="#m2f57496c04" x="64.338426" y="193.282462" style="fill-opacity: 0.5; stroke: #000000; stroke-opacity: 0.5"/>
     <use xlink:href="#m2f57496c04" x="65.350584" y="196.12735" style="fill-opacity: 0.5; stroke: #000000; stroke-opacity: 0.5"/>
     <use xlink:href="#m2f57496c04" x="65.001277" y="166.362415" style="fill-opacity: 0.5; stroke: #000000; stroke-opacity: 0.5"/>
     <use xlink:href="#m2f57496c04" x="64.4108" y="202.991332" style="fill-opacity: 0.5; stroke: #000000; stroke-opacity: 0.5"/>
     <use xlink:href="#m2f57496c04" x="64.770662" y="194.102042" style="fill-opacity: 0.5; stroke: #000000; stroke-opacity: 0.5"/>
     <use xlink:href="#m2f57496c04" x="65.149378" y="170.468195" style="fill-opacity: 0.5; stroke: #000000; stroke-opacity: 0.5"/>
     <use xlink:href="#m2f57496c04" x="65.007579" y="223.874858" style="fill-opacity: 0.5; stroke: #000000; stroke-opacity: 0.5"/>
     <use xlink:href="#m2f57496c04" x="65.758855" y="202.376647" style="fill-opacity: 0.5; stroke: #000000; stroke-opacity: 0.5"/>
     <use xlink:href="#m2f57496c04" x="64.780423" y="204.354671" style="fill-opacity: 0.5; stroke: #000000; stroke-opacity: 0.5"/>
     <use xlink:href="#m2f57496c04" x="113.622951" y="200.438025" style="fill-opacity: 0.5; stroke: #000000; stroke-opacity: 0.5"/>
     <use xlink:href="#m2f57496c04" x="113.923322" y="107.99887" style="fill-opacity: 0.5; stroke: #000000; stroke-opacity: 0.5"/>
     <use xlink:href="#m2f57496c04" x="113.261323" y="138.985294" style="fill-opacity: 0.5; stroke: #000000; stroke-opacity: 0.5"/>
     <use xlink:href="#m2f57496c04" x="113.73153" y="80.850286" style="fill-opacity: 0.5; stroke: #000000; stroke-opacity: 0.5"/>
     <use xlink:href="#m2f57496c04" x="113.544648" y="97.746241" style="fill-opacity: 0.5; stroke: #000000; stroke-opacity: 0.5"/>
     <use xlink:href="#m2f57496c04" x="114.409866" y="86.79224" style="fill-opacity: 0.5; stroke: #000000; stroke-opacity: 0.5"/>
     <use xlink:href="#m2f57496c04" x="113.607937" y="139.773352" style="fill-opacity: 0.5; stroke: #000000; stroke-opacity: 0.5"/>
     <use xlink:href="#m2f57496c04" x="114.717601" y="113.704407" style="fill-opacity: 0.5; stroke: #000000; stroke-opacity: 0.5"/>
     <use xlink:href="#m2f57496c04" x="113.260671" y="132.066149" style="fill-opacity: 0.5; stroke: #000000; stroke-opacity: 0.5"/>
     <use xlink:href="#m2f57496c04" x="114.881533" y="155.652712" style="fill-opacity: 0.5; stroke: #000000; stroke-opacity: 0.5"/>
     <use xlink:href="#m2f57496c04" x="113.726859" y="88.005849" style="fill-opacity: 0.5; stroke: #000000; stroke-opacity: 0.5"/>
     <use xlink:href="#m2f57496c04" x="115.074201" y="198.278747" style="fill-opacity: 0.5; stroke: #000000; stroke-opacity: 0.5"/>
     <use xlink:href="#m2f57496c04" x="114.642123" y="165.464029" style="fill-opacity: 0.5; stroke: #000000; stroke-opacity: 0.5"/>
     <use xlink:href="#m2f57496c04" x="114.292227" y="158.040527" style="fill-opacity: 0.5; stroke: #000000; stroke-opacity: 0.5"/>
    </g>
   </g>
   <g id="PathCollection_3">
    <g clip-path="url(#p040aac627d)">
     <use xlink:href="#m2f57496c04" x="259.935451" y="121.41161" style="fill-opacity: 0.5; stroke: #000000; stroke-opacity: 0.5"/>
     <use xlink:href="#m2f57496c04" x="261.541306" y="230.975257" style="fill-opacity: 0.5; stroke: #000000; stroke-opacity: 0.5"/>
     <use xlink:href="#m2f57496c04" x="261.439062" y="169.806227" style="fill-opacity: 0.5; stroke: #000000; stroke-opacity: 0.5"/>
     <use xlink:href="#m2f57496c04" x="260.336999" y="208.121586" style="fill-opacity: 0.5; stroke: #000000; stroke-opacity: 0.5"/>
     <use xlink:href="#m2f57496c04" x="261.412929" y="197.309436" style="fill-opacity: 0.5; stroke: #000000; stroke-opacity: 0.5"/>
     <use xlink:href="#m2f57496c04" x="260.926254" y="212.203725" style="fill-opacity: 0.5; stroke: #000000; stroke-opacity: 0.5"/>
     <use xlink:href="#m2f57496c04" x="261.486007" y="182.273298" style="fill-opacity: 0.5; stroke: #000000; stroke-opacity: 0.5"/>
     <use xlink:href="#m2f57496c04" x="261.131282" y="128.693262" style="fill-opacity: 0.5; stroke: #000000; stroke-opacity: 0.5"/>
     <use xlink:href="#m2f57496c04" x="260.277585" y="199.81546" style="fill-opacity: 0.5; stroke: #000000; stroke-opacity: 0.5"/>
     <use xlink:href="#m2f57496c04" x="261.018725" y="163.367796" style="fill-opacity: 0.5; stroke: #000000; stroke-opacity: 0.5"/>
     <use xlink:href="#m2f57496c04" x="259.734181" y="114.957418" style="fill-opacity: 0.5; stroke: #000000; stroke-opacity: 0.5"/>
     <use xlink:href="#m2f57496c04" x="260.610389" y="287.676" style="fill-opacity: 0.5; stroke: #000000; stroke-opacity: 0.5"/>
     <use xlink:href="#m2f57496c04" x="260.098245" y="195.559949" style="fill-opacity: 0.5; stroke: #000000; stroke-opacity: 0.5"/>
     <use xlink:href="#m2f57496c04" x="259.646394" y="213.007544" style="fill-opacity: 0.5; stroke: #000000; stroke-opacity: 0.5"/>
     <use xlink:href="#m2f57496c04" x="260.724344" y="191.367482" style="fill-opacity: 0.5; stroke: #000000; stroke-opacity: 0.5"/>
     <use xlink:href="#m2f57496c04" x="261.113643" y="242.283883" style="fill-opacity: 0.5; stroke: #000000; stroke-opacity: 0.5"/>
     <use xlink:href="#m2f57496c04" x="260.309913" y="173.399769" style="fill-opacity: 0.5; stroke: #000000; stroke-opacity: 0.5"/>
     <use xlink:href="#m2f57496c04" x="261.042282" y="213.062708" style="fill-opacity: 0.5; stroke: #000000; stroke-opacity: 0.5"/>
     <use xlink:href="#m2f57496c04" x="261.3108" y="201.651634" style="fill-opacity: 0.5; stroke: #000000; stroke-opacity: 0.5"/>
     <use xlink:href="#m2f57496c04" x="260.72003" y="222.212056" style="fill-opacity: 0.5; stroke: #000000; stroke-opacity: 0.5"/>
     <use xlink:href="#m2f57496c04" x="260.192153" y="228.122488" style="fill-opacity: 0.5; stroke: #000000; stroke-opacity: 0.5"/>
     <use xlink:href="#m2f57496c04" x="259.811683" y="210.35967" style="fill-opacity: 0.5; stroke: #000000; stroke-opacity: 0.5"/>
     <use xlink:href="#m2f57496c04" x="260.902453" y="198.333911" style="fill-opacity: 0.5; stroke: #000000; stroke-opacity: 0.5"/>
     <use xlink:href="#m2f57496c04" x="260.187052" y="235.238648" style="fill-opacity: 0.5; stroke: #000000; stroke-opacity: 0.5"/>
     <use xlink:href="#m2f57496c04" x="260.421465" y="219.808481" style="fill-opacity: 0.5; stroke: #000000; stroke-opacity: 0.5"/>
     <use xlink:href="#m2f57496c04" x="260.931851" y="221.156059" style="fill-opacity: 0.5; stroke: #000000; stroke-opacity: 0.5"/>
     <use xlink:href="#m2f57496c04" x="261.160905" y="230.281766" style="fill-opacity: 0.5; stroke: #000000; stroke-opacity: 0.5"/>
     <use xlink:href="#m2f57496c04" x="259.970898" y="287.676" style="fill-opacity: 0.5; stroke: #000000; stroke-opacity: 0.5"/>
     <use xlink:href="#m2f57496c04" x="259.687477" y="204.19706" style="fill-opacity: 0.5; stroke: #000000; stroke-opacity: 0.5"/>
     <use xlink:href="#m2f57496c04" x="260.295425" y="274.893706" style="fill-opacity: 0.5; stroke: #000000; stroke-opacity: 0.5"/>
     <use xlink:href="#m2f57496c04" x="259.906358" y="230.139916" style="fill-opacity: 0.5; stroke: #000000; stroke-opacity: 0.5"/>
     <use xlink:href="#m2f57496c04" x="260.553188" y="215.497806" style="fill-opacity: 0.5; stroke: #000000; stroke-opacity: 0.5"/>
     <use xlink:href="#m2f57496c04" x="261.494298" y="241.70072" style="fill-opacity: 0.5; stroke: #000000; stroke-opacity: 0.5"/>
     <use xlink:href="#m2f57496c04" x="261.066826" y="207.869408" style="fill-opacity: 0.5; stroke: #000000; stroke-opacity: 0.5"/>
     <use xlink:href="#m2f57496c04" x="261.044495" y="287.676" style="fill-opacity: 0.5; stroke: #000000; stroke-opacity: 0.5"/>
     <use xlink:href="#m2f57496c04" x="261.081121" y="279.511723" style="fill-opacity: 0.5; stroke: #000000; stroke-opacity: 0.5"/>
     <use xlink:href="#m2f57496c04" x="261.222084" y="239.50992" style="fill-opacity: 0.5; stroke: #000000; stroke-opacity: 0.5"/>
     <use xlink:href="#m2f57496c04" x="260.11801" y="267.761785" style="fill-opacity: 0.5; stroke: #000000; stroke-opacity: 0.5"/>
     <use xlink:href="#m2f57496c04" x="260.094275" y="214.820076" style="fill-opacity: 0.5; stroke: #000000; stroke-opacity: 0.5"/>
     <use xlink:href="#m2f57496c04" x="260.363396" y="209.075136" style="fill-opacity: 0.5; stroke: #000000; stroke-opacity: 0.5"/>
     <use xlink:href="#m2f57496c04" x="308.502244" y="28.050428" style="fill-opacity: 0.5; stroke: #000000; stroke-opacity: 0.5"/>
     <use xlink:href="#m2f57496c04" x="308.577315" y="198.909193" style="fill-opacity: 0.5; stroke: #000000; stroke-opacity: 0.5"/>
     <use xlink:href="#m2f57496c04" x="309.783512" y="63.599705" style="fill-opacity: 0.5; stroke: #000000; stroke-opacity: 0.5"/>
     <use xlink:href="#m2f57496c04" x="309.056379" y="154.502148" style="fill-opacity: 0.5; stroke: #000000; stroke-opacity: 0.5"/>
     <use xlink:href="#m2f57496c04" x="308.608776" y="152.555646" style="fill-opacity: 0.5; stroke: #000000; stroke-opacity: 0.5"/>
     <use xlink:href="#m2f57496c04" x="310.082954" y="148.308016" style="fill-opacity: 0.5; stroke: #000000; stroke-opacity: 0.5"/>
     <use xlink:href="#m2f57496c04" x="309.614849" y="93.805953" style="fill-opacity: 0.5; stroke: #000000; stroke-opacity: 0.5"/>
     <use xlink:href="#m2f57496c04" x="309.561234" y="59.950999" style="fill-opacity: 0.5; stroke: #000000; stroke-opacity: 0.5"/>
     <use xlink:href="#m2f57496c04" x="309.295649" y="166.02355" style="fill-opacity: 0.5; stroke: #000000; stroke-opacity: 0.5"/>
     <use xlink:href="#m2f57496c04" x="309.557655" y="110.575818" style="fill-opacity: 0.5; stroke: #000000; stroke-opacity: 0.5"/>
     <use xlink:href="#m2f57496c04" x="310.385884" y="20.556" style="fill-opacity: 0.5; stroke: #000000; stroke-opacity: 0.5"/>
     <use xlink:href="#m2f57496c04" x="308.623001" y="202.573661" style="fill-opacity: 0.5; stroke: #000000; stroke-opacity: 0.5"/>
     <use xlink:href="#m2f57496c04" x="308.652125" y="157.433722" style="fill-opacity: 0.5; stroke: #000000; stroke-opacity: 0.5"/>
     <use xlink:href="#m2f57496c04" x="309.466704" y="174.345438" style="fill-opacity: 0.5; stroke: #000000; stroke-opacity: 0.5"/>
     <use xlink:href="#m2f57496c04" x="310.082979" y="146.109335" style="fill-opacity: 0.5; stroke: #000000; stroke-opacity: 0.5"/>
     <use xlink:href="#m2f57496c04" x="308.5424" y="129.378872" style="fill-opacity: 0.5; stroke: #000000; stroke-opacity: 0.5"/>
     <use xlink:href="#m2f57496c04" x="310.015573" y="91.292049" style="fill-opacity: 0.5; stroke: #000000; stroke-opacity: 0.5"/>
     <use xlink:href="#m2f57496c04" x="310.017328" y="174.10114" style="fill-opacity: 0.5; stroke: #000000; stroke-opacity: 0.5"/>
     <use xlink:href="#m2f57496c04" x="309.865574" y="177.395221" style="fill-opacity: 0.5; stroke: #000000; stroke-opacity: 0.5"/>
     <use xlink:href="#m2f57496c04" x="309.513584" y="174.077499" style="fill-opacity: 0.5; stroke: #000000; stroke-opacity: 0.5"/>
     <use xlink:href="#m2f57496c04" x="310.110344" y="186.859793" style="fill-opacity: 0.5; stroke: #000000; stroke-opacity: 0.5"/>
     <use xlink:href="#m2f57496c04" x="309.179136" y="156.196472" style="fill-opacity: 0.5; stroke: #000000; stroke-opacity: 0.5"/>
     <use xlink:href="#m2f57496c04" x="308.951891" y="125.856255" style="fill-opacity: 0.5; stroke: #000000; stroke-opacity: 0.5"/>
     <use xlink:href="#m2f57496c04" x="310.062177" y="212.172203" style="fill-opacity: 0.5; stroke: #000000; stroke-opacity: 0.5"/>
     <use xlink:href="#m2f57496c04" x="309.694874" y="152.532004" style="fill-opacity: 0.5; stroke: #000000; stroke-opacity: 0.5"/>
     <use xlink:href="#m2f57496c04" x="308.652544" y="181.177898" style="fill-opacity: 0.5; stroke: #000000; stroke-opacity: 0.5"/>
     <use xlink:href="#m2f57496c04" x="308.819911" y="187.860626" style="fill-opacity: 0.5; stroke: #000000; stroke-opacity: 0.5"/>
     <use xlink:href="#m2f57496c04" x="308.732261" y="163.068334" style="fill-opacity: 0.5; stroke: #000000; stroke-opacity: 0.5"/>
     <use xlink:href="#m2f57496c04" x="309.774382" y="172.438339" style="fill-opacity: 0.5; stroke: #000000; stroke-opacity: 0.5"/>
     <use xlink:href="#m2f57496c04" x="308.920101" y="187.23018" style="fill-opacity: 0.5; stroke: #000000; stroke-opacity: 0.5"/>
     <use xlink:href="#m2f57496c04" x="310.103045" y="183.392339" style="fill-opacity: 0.5; stroke: #000000; stroke-opacity: 0.5"/>
     <use xlink:href="#m2f57496c04" x="308.784653" y="170.40515" style="fill-opacity: 0.5; stroke: #000000; stroke-opacity: 0.5"/>
     <use xlink:href="#m2f57496c04" x="310.286421" y="156.527456" style="fill-opacity: 0.5; stroke: #000000; stroke-opacity: 0.5"/>
     <use xlink:href="#m2f57496c04" x="310.028923" y="195.126517" style="fill-opacity: 0.5; stroke: #000000; stroke-opacity: 0.5"/>
     <use xlink:href="#m2f57496c04" x="308.734918" y="194.992547" style="fill-opacity: 0.5; stroke: #000000; stroke-opacity: 0.5"/>
     <use xlink:href="#m2f57496c04" x="310.308472" y="203.661181" style="fill-opacity: 0.5; stroke: #000000; stroke-opacity: 0.5"/>
     <use xlink:href="#m2f57496c04" x="308.757091" y="202.873123" style="fill-opacity: 0.5; stroke: #000000; stroke-opacity: 0.5"/>
     <use xlink:href="#m2f57496c04" x="309.682241" y="220.194629" style="fill-opacity: 0.5; stroke: #000000; stroke-opacity: 0.5"/>
     <use xlink:href="#m2f57496c04" x="308.860982" y="188.112804" style="fill-opacity: 0.5; stroke: #000000; stroke-opacity: 0.5"/>
     <use xlink:href="#m2f57496c04" x="309.486939" y="195.938216" style="fill-opacity: 0.5; stroke: #000000; stroke-opacity: 0.5"/>
    </g>
   </g>
   <g id="PathCollection_4">
    <g clip-path="url(#p040aac627d)">
     <use xlink:href="#m2f57496c04" x="357.488012" y="287.676" style="fill-opacity: 0.5; stroke: #000000; stroke-opacity: 0.5"/>
     <use xlink:href="#m2f57496c04" x="358.72066" y="204.19706" style="fill-opacity: 0.5; stroke: #000000; stroke-opacity: 0.5"/>
     <use xlink:href="#m2f57496c04" x="358.483115" y="241.70072" style="fill-opacity: 0.5; stroke: #000000; stroke-opacity: 0.5"/>
     <use xlink:href="#m2f57496c04" x="358.022769" y="207.869408" style="fill-opacity: 0.5; stroke: #000000; stroke-opacity: 0.5"/>
     <use xlink:href="#m2f57496c04" x="407.513197" y="163.068334" style="fill-opacity: 0.5; stroke: #000000; stroke-opacity: 0.5"/>
     <use xlink:href="#m2f57496c04" x="407.087275" y="172.438339" style="fill-opacity: 0.5; stroke: #000000; stroke-opacity: 0.5"/>
     <use xlink:href="#m2f57496c04" x="406.794581" y="156.527456" style="fill-opacity: 0.5; stroke: #000000; stroke-opacity: 0.5"/>
     <use xlink:href="#m2f57496c04" x="406.502305" y="195.126517" style="fill-opacity: 0.5; stroke: #000000; stroke-opacity: 0.5"/>
    </g>
   </g>
   <g id="matplotlib.axis_1">
    <g id="xtick_1">
     <g id="line2d_1">
      <defs>
       <path id="m52d6319b2d" d="M 0 0 
L 0 3.5 
" style="stroke: #000000; stroke-width: 0.8"/>
      </defs>
      <g>
       <use xlink:href="#m52d6319b2d" x="162.955" y="301.032" style="stroke: #000000; stroke-width: 0.8"/>
      </g>
     </g>
    </g>
    <g id="xtick_2">
     <g id="line2d_2">
      <g>
       <use xlink:href="#m52d6319b2d" x="211.78" y="301.032" style="stroke: #000000; stroke-width: 0.8"/>
      </g>
     </g>
    </g>
    <g id="xtick_3">
     <g id="line2d_3">
      <g>
       <use xlink:href="#m52d6319b2d" x="65.305" y="301.032" style="stroke: #000000; stroke-width: 0.8"/>
      </g>
     </g>
    </g>
    <g id="xtick_4">
     <g id="line2d_4">
      <g>
       <use xlink:href="#m52d6319b2d" x="114.13" y="301.032" style="stroke: #000000; stroke-width: 0.8"/>
      </g>
     </g>
    </g>
    <g id="xtick_5">
     <g id="line2d_5">
      <g>
       <use xlink:href="#m52d6319b2d" x="260.605" y="301.032" style="stroke: #000000; stroke-width: 0.8"/>
      </g>
     </g>
    </g>
    <g id="xtick_6">
     <g id="line2d_6">
      <g>
       <use xlink:href="#m52d6319b2d" x="309.43" y="301.032" style="stroke: #000000; stroke-width: 0.8"/>
      </g>
     </g>
    </g>
    <g id="xtick_7">
     <g id="line2d_7">
      <g>
       <use xlink:href="#m52d6319b2d" x="358.255" y="301.032" style="stroke: #000000; stroke-width: 0.8"/>
      </g>
     </g>
     <g id="text_1">
      <!--   -->
      <g transform="translate(354.92125 325.21075) scale(0.24 -0.24)">
       <defs>
        <path id="ArialMT-20" transform="scale(0.015625)"/>
       </defs>
       <use xlink:href="#ArialMT-20"/>
      </g>
     </g>
    </g>
    <g id="xtick_8">
     <g id="line2d_8">
      <g>
       <use xlink:href="#m52d6319b2d" x="407.08" y="301.032" style="stroke: #000000; stroke-width: 0.8"/>
      </g>
     </g>
    </g>
   </g>
   <g id="matplotlib.axis_2">
    <g id="ytick_1">
     <g id="line2d_9">
      <defs>
       <path id="m1342daf731" d="M 0 0 
L -3.5 0 
" style="stroke: #000000; stroke-width: 0.8"/>
      </defs>
      <g>
       <use xlink:href="#m1342daf731" x="40.8925" y="287.676" style="stroke: #000000; stroke-width: 0.8"/>
      </g>
     </g>
     <g id="text_2">
      <!-- 0 -->
      <g transform="translate(20.54625 296.265375) scale(0.24 -0.24)">
       <defs>
        <path id="ArialMT-30" d="M 266 2259 
Q 266 3072 433 3567 
Q 600 4063 929 4331 
Q 1259 4600 1759 4600 
Q 2128 4600 2406 4451 
Q 2684 4303 2865 4023 
Q 3047 3744 3150 3342 
Q 3253 2941 3253 2259 
Q 3253 1453 3087 958 
Q 2922 463 2592 192 
Q 2263 -78 1759 -78 
Q 1097 -78 719 397 
Q 266 969 266 2259 
z
M 844 2259 
Q 844 1131 1108 757 
Q 1372 384 1759 384 
Q 2147 384 2411 759 
Q 2675 1134 2675 2259 
Q 2675 3391 2411 3762 
Q 2147 4134 1753 4134 
Q 1366 4134 1134 3806 
Q 844 3388 844 2259 
z
" transform="scale(0.015625)"/>
       </defs>
       <use xlink:href="#ArialMT-30"/>
      </g>
     </g>
    </g>
    <g id="ytick_2">
     <g id="line2d_10">
      <g>
       <use xlink:href="#m1342daf731" x="40.8925" y="208.870241" style="stroke: #000000; stroke-width: 0.8"/>
      </g>
     </g>
     <g id="text_3">
      <!-- 10 -->
      <g transform="translate(7.2 217.459616) scale(0.24 -0.24)">
       <defs>
        <path id="ArialMT-31" d="M 2384 0 
L 1822 0 
L 1822 3584 
Q 1619 3391 1289 3197 
Q 959 3003 697 2906 
L 697 3450 
Q 1169 3672 1522 3987 
Q 1875 4303 2022 4600 
L 2384 4600 
L 2384 0 
z
" transform="scale(0.015625)"/>
       </defs>
       <use xlink:href="#ArialMT-31"/>
       <use xlink:href="#ArialMT-30" transform="translate(55.615234 0)"/>
      </g>
     </g>
    </g>
    <g id="ytick_3">
     <g id="line2d_11">
      <g>
       <use xlink:href="#m1342daf731" x="40.8925" y="130.064482" style="stroke: #000000; stroke-width: 0.8"/>
      </g>
     </g>
     <g id="text_4">
      <!-- 20 -->
      <g transform="translate(7.2 138.653857) scale(0.24 -0.24)">
       <defs>
        <path id="ArialMT-32" d="M 3222 541 
L 3222 0 
L 194 0 
Q 188 203 259 391 
Q 375 700 629 1000 
Q 884 1300 1366 1694 
Q 2113 2306 2375 2664 
Q 2638 3022 2638 3341 
Q 2638 3675 2398 3904 
Q 2159 4134 1775 4134 
Q 1369 4134 1125 3890 
Q 881 3647 878 3216 
L 300 3275 
Q 359 3922 746 4261 
Q 1134 4600 1788 4600 
Q 2447 4600 2831 4234 
Q 3216 3869 3216 3328 
Q 3216 3053 3103 2787 
Q 2991 2522 2730 2228 
Q 2469 1934 1863 1422 
Q 1356 997 1212 845 
Q 1069 694 975 541 
L 3222 541 
z
" transform="scale(0.015625)"/>
       </defs>
       <use xlink:href="#ArialMT-32"/>
       <use xlink:href="#ArialMT-30" transform="translate(55.615234 0)"/>
      </g>
     </g>
    </g>
    <g id="ytick_4">
     <g id="line2d_12">
      <g>
       <use xlink:href="#m1342daf731" x="40.8925" y="51.258724" style="stroke: #000000; stroke-width: 0.8"/>
      </g>
     </g>
     <g id="text_5">
      <!-- 30 -->
      <g transform="translate(7.2 59.848099) scale(0.24 -0.24)">
       <defs>
        <path id="ArialMT-33" d="M 269 1209 
L 831 1284 
Q 928 806 1161 595 
Q 1394 384 1728 384 
Q 2125 384 2398 659 
Q 2672 934 2672 1341 
Q 2672 1728 2419 1979 
Q 2166 2231 1775 2231 
Q 1616 2231 1378 2169 
L 1441 2663 
Q 1497 2656 1531 2656 
Q 1891 2656 2178 2843 
Q 2466 3031 2466 3422 
Q 2466 3731 2256 3934 
Q 2047 4138 1716 4138 
Q 1388 4138 1169 3931 
Q 950 3725 888 3313 
L 325 3413 
Q 428 3978 793 4289 
Q 1159 4600 1703 4600 
Q 2078 4600 2393 4439 
Q 2709 4278 2876 4000 
Q 3044 3722 3044 3409 
Q 3044 3113 2884 2869 
Q 2725 2625 2413 2481 
Q 2819 2388 3044 2092 
Q 3269 1797 3269 1353 
Q 3269 753 2831 336 
Q 2394 -81 1725 -81 
Q 1122 -81 723 278 
Q 325 638 269 1209 
z
" transform="scale(0.015625)"/>
       </defs>
       <use xlink:href="#ArialMT-33"/>
       <use xlink:href="#ArialMT-30" transform="translate(55.615234 0)"/>
      </g>
     </g>
    </g>
   </g>
   <g id="patch_3">
    <path d="M 153.19 274.893706 
L 172.72 274.893706 
L 172.72 215.497806 
L 153.19 215.497806 
L 153.19 274.893706 
z
" clip-path="url(#p040aac627d)" style="fill: #83bb03; opacity: 0.5; stroke: #000000; stroke-linejoin: miter"/>
   </g>
   <g id="line2d_13">
    <path d="M 162.955 274.893706 
L 162.955 287.676 
" clip-path="url(#p040aac627d)" style="fill: none; stroke: #000000; stroke-linecap: square"/>
   </g>
   <g id="line2d_14">
    <path d="M 162.955 215.497806 
L 162.955 209.075136 
" clip-path="url(#p040aac627d)" style="fill: none; stroke: #000000; stroke-linecap: square"/>
   </g>
   <g id="line2d_15">
    <path d="M 158.0725 287.676 
L 167.8375 287.676 
" clip-path="url(#p040aac627d)" style="fill: none; stroke: #000000; stroke-linecap: square"/>
   </g>
   <g id="line2d_16">
    <path d="M 158.0725 209.075136 
L 167.8375 209.075136 
" clip-path="url(#p040aac627d)" style="fill: none; stroke: #000000; stroke-linecap: square"/>
   </g>
   <g id="patch_4">
    <path d="M 202.015 202.873123 
L 221.545 202.873123 
L 221.545 187.23018 
L 202.015 187.23018 
L 202.015 202.873123 
z
" clip-path="url(#p040aac627d)" style="fill: #0383bb; opacity: 0.5; stroke: #000000; stroke-linejoin: miter"/>
   </g>
   <g id="line2d_17">
    <path d="M 211.78 202.873123 
L 211.78 220.194629 
" clip-path="url(#p040aac627d)" style="fill: none; stroke: #000000; stroke-linecap: square"/>
   </g>
   <g id="line2d_18">
    <path d="M 211.78 187.23018 
L 211.78 170.40515 
" clip-path="url(#p040aac627d)" style="fill: none; stroke: #000000; stroke-linecap: square"/>
   </g>
   <g id="line2d_19">
    <path d="M 206.8975 220.194629 
L 216.6625 220.194629 
" clip-path="url(#p040aac627d)" style="fill: none; stroke: #000000; stroke-linecap: square"/>
   </g>
   <g id="line2d_20">
    <path d="M 206.8975 170.40515 
L 216.6625 170.40515 
" clip-path="url(#p040aac627d)" style="fill: none; stroke: #000000; stroke-linecap: square"/>
   </g>
   <g id="patch_5">
    <path d="M 55.54 211.524025 
L 75.07 211.524025 
L 75.07 185.977168 
L 55.54 185.977168 
L 55.54 211.524025 
z
" clip-path="url(#p040aac627d)" style="fill: #83bb03; opacity: 0.5; stroke: #000000; stroke-linejoin: miter"/>
   </g>
   <g id="line2d_21">
    <path d="M 65.305 211.524025 
L 65.305 241.889854 
" clip-path="url(#p040aac627d)" style="fill: none; stroke: #000000; stroke-linecap: square"/>
   </g>
   <g id="line2d_22">
    <path d="M 65.305 185.977168 
L 65.305 164.959672 
" clip-path="url(#p040aac627d)" style="fill: none; stroke: #000000; stroke-linecap: square"/>
   </g>
   <g id="line2d_23">
    <path d="M 60.4225 241.889854 
L 70.1875 241.889854 
" clip-path="url(#p040aac627d)" style="fill: none; stroke: #000000; stroke-linecap: square"/>
   </g>
   <g id="line2d_24">
    <path d="M 60.4225 164.959672 
L 70.1875 164.959672 
" clip-path="url(#p040aac627d)" style="fill: none; stroke: #000000; stroke-linecap: square"/>
   </g>
   <g id="patch_6">
    <path d="M 104.365 157.443573 
L 123.895 157.443573 
L 123.895 100.309398 
L 104.365 100.309398 
L 104.365 157.443573 
z
" clip-path="url(#p040aac627d)" style="fill: #0383bb; opacity: 0.5; stroke: #000000; stroke-linejoin: miter"/>
   </g>
   <g id="line2d_25">
    <path d="M 114.13 157.443573 
L 114.13 200.438025 
" clip-path="url(#p040aac627d)" style="fill: none; stroke: #000000; stroke-linecap: square"/>
   </g>
   <g id="line2d_26">
    <path d="M 114.13 100.309398 
L 114.13 80.850286 
" clip-path="url(#p040aac627d)" style="fill: none; stroke: #000000; stroke-linecap: square"/>
   </g>
   <g id="line2d_27">
    <path d="M 109.2475 200.438025 
L 119.0125 200.438025 
" clip-path="url(#p040aac627d)" style="fill: none; stroke: #000000; stroke-linecap: square"/>
   </g>
   <g id="line2d_28">
    <path d="M 109.2475 80.850286 
L 119.0125 80.850286 
" clip-path="url(#p040aac627d)" style="fill: none; stroke: #000000; stroke-linecap: square"/>
   </g>
   <g id="patch_7">
    <path d="M 250.84 232.041104 
L 270.37 232.041104 
L 270.37 198.077793 
L 250.84 198.077793 
L 250.84 232.041104 
z
" clip-path="url(#p040aac627d)" style="fill: #83bb03; opacity: 0.5; stroke: #000000; stroke-linejoin: miter"/>
   </g>
   <g id="line2d_29">
    <path d="M 260.605 232.041104 
L 260.605 279.511723 
" clip-path="url(#p040aac627d)" style="fill: none; stroke: #000000; stroke-linecap: square"/>
   </g>
   <g id="line2d_30">
    <path d="M 260.605 198.077793 
L 260.605 163.367796 
" clip-path="url(#p040aac627d)" style="fill: none; stroke: #000000; stroke-linecap: square"/>
   </g>
   <g id="line2d_31">
    <path d="M 255.7225 279.511723 
L 265.4875 279.511723 
" clip-path="url(#p040aac627d)" style="fill: none; stroke: #000000; stroke-linecap: square"/>
   </g>
   <g id="line2d_32">
    <path d="M 255.7225 163.367796 
L 265.4875 163.367796 
" clip-path="url(#p040aac627d)" style="fill: none; stroke: #000000; stroke-linecap: square"/>
   </g>
   <g id="patch_8">
    <path d="M 299.665 187.923671 
L 319.195 187.923671 
L 319.195 147.758345 
L 299.665 147.758345 
L 299.665 187.923671 
z
" clip-path="url(#p040aac627d)" style="fill: #0383bb; opacity: 0.5; stroke: #000000; stroke-linejoin: miter"/>
   </g>
   <g id="line2d_33">
    <path d="M 309.43 187.923671 
L 309.43 220.194629 
" clip-path="url(#p040aac627d)" style="fill: none; stroke: #000000; stroke-linecap: square"/>
   </g>
   <g id="line2d_34">
    <path d="M 309.43 147.758345 
L 309.43 91.292049 
" clip-path="url(#p040aac627d)" style="fill: none; stroke: #000000; stroke-linecap: square"/>
   </g>
   <g id="line2d_35">
    <path d="M 304.5475 220.194629 
L 314.3125 220.194629 
" clip-path="url(#p040aac627d)" style="fill: none; stroke: #000000; stroke-linecap: square"/>
   </g>
   <g id="line2d_36">
    <path d="M 304.5475 91.292049 
L 314.3125 91.292049 
" clip-path="url(#p040aac627d)" style="fill: none; stroke: #000000; stroke-linecap: square"/>
   </g>
   <g id="patch_9">
    <path d="M 348.49 253.19454 
L 368.02 253.19454 
L 368.02 206.951321 
L 348.49 206.951321 
L 348.49 253.19454 
z
" clip-path="url(#p040aac627d)" style="fill: #83bb03; opacity: 0.5; stroke: #000000; stroke-linejoin: miter"/>
   </g>
   <g id="line2d_37">
    <path d="M 358.255 253.19454 
L 358.255 287.676 
" clip-path="url(#p040aac627d)" style="fill: none; stroke: #000000; stroke-linecap: square"/>
   </g>
   <g id="line2d_38">
    <path d="M 358.255 206.951321 
L 358.255 204.19706 
" clip-path="url(#p040aac627d)" style="fill: none; stroke: #000000; stroke-linecap: square"/>
   </g>
   <g id="line2d_39">
    <path d="M 353.3725 287.676 
L 363.1375 287.676 
" clip-path="url(#p040aac627d)" style="fill: none; stroke: #000000; stroke-linecap: square"/>
   </g>
   <g id="line2d_40">
    <path d="M 353.3725 204.19706 
L 363.1375 204.19706 
" clip-path="url(#p040aac627d)" style="fill: none; stroke: #000000; stroke-linecap: square"/>
   </g>
   <g id="patch_10">
    <path d="M 397.315 178.110383 
L 416.845 178.110383 
L 416.845 161.433115 
L 397.315 161.433115 
L 397.315 178.110383 
z
" clip-path="url(#p040aac627d)" style="fill: #0383bb; opacity: 0.5; stroke: #000000; stroke-linejoin: miter"/>
   </g>
   <g id="line2d_41">
    <path d="M 407.08 178.110383 
L 407.08 195.126517 
" clip-path="url(#p040aac627d)" style="fill: none; stroke: #000000; stroke-linecap: square"/>
   </g>
   <g id="line2d_42">
    <path d="M 407.08 161.433115 
L 407.08 156.527456 
" clip-path="url(#p040aac627d)" style="fill: none; stroke: #000000; stroke-linecap: square"/>
   </g>
   <g id="line2d_43">
    <path d="M 402.1975 195.126517 
L 411.9625 195.126517 
" clip-path="url(#p040aac627d)" style="fill: none; stroke: #000000; stroke-linecap: square"/>
   </g>
   <g id="line2d_44">
    <path d="M 402.1975 156.527456 
L 411.9625 156.527456 
" clip-path="url(#p040aac627d)" style="fill: none; stroke: #000000; stroke-linecap: square"/>
   </g>
   <g id="line2d_45">
    <path d="M 153.19 239.50992 
L 172.72 239.50992 
" clip-path="url(#p040aac627d)" style="fill: none; stroke: #000000; stroke-width: 2"/>
   </g>
   <g id="line2d_46">
    <path d="M 202.015 194.992547 
L 221.545 194.992547 
" clip-path="url(#p040aac627d)" style="fill: none; stroke: #000000; stroke-width: 2"/>
   </g>
   <g id="line2d_47">
    <path d="M 55.54 199.251998 
L 75.07 199.251998 
" clip-path="url(#p040aac627d)" style="fill: none; stroke: #000000; stroke-width: 2"/>
   </g>
   <g id="line2d_48">
    <path d="M 104.365 135.525722 
L 123.895 135.525722 
" clip-path="url(#p040aac627d)" style="fill: none; stroke: #000000; stroke-width: 2"/>
   </g>
   <g id="line2d_49">
    <path d="M 250.84 213.035126 
L 270.37 213.035126 
" clip-path="url(#p040aac627d)" style="fill: none; stroke: #000000; stroke-width: 2"/>
   </g>
   <g id="line2d_50">
    <path d="M 299.665 171.421745 
L 319.195 171.421745 
" clip-path="url(#p040aac627d)" style="fill: none; stroke: #000000; stroke-width: 2"/>
   </g>
   <g id="line2d_51">
    <path d="M 348.49 224.785064 
L 368.02 224.785064 
" clip-path="url(#p040aac627d)" style="fill: none; stroke: #000000; stroke-width: 2"/>
   </g>
   <g id="line2d_52">
    <path d="M 397.315 167.753337 
L 416.845 167.753337 
" clip-path="url(#p040aac627d)" style="fill: none; stroke: #000000; stroke-width: 2"/>
   </g>
   <g id="patch_11">
    <path d="M 40.8925 301.032 
L 40.8925 7.2 
" style="fill: none; stroke: #000000; stroke-width: 0.8; stroke-linejoin: miter; stroke-linecap: square"/>
   </g>
   <g id="patch_12">
    <path d="M 431.4925 301.032 
L 431.4925 7.2 
" style="fill: none"/>
   </g>
   <g id="patch_13">
    <path d="M 40.8925 301.032 
L 431.4925 301.032 
" style="fill: none; stroke: #000000; stroke-width: 0.8; stroke-linejoin: miter; stroke-linecap: square"/>
   </g>
   <g id="patch_14">
    <path d="M 40.8925 7.2 
L 431.4925 7.2 
" style="fill: none"/>
   </g>
   <g id="legend_1">
    <g id="patch_15">
     <path d="M 57.0925 36.284063 
L 93.0925 36.284063 
L 93.0925 23.684063 
L 57.0925 23.684063 
z
" style="fill: #83bb03; opacity: 0.5; stroke: #000000; stroke-linejoin: miter"/>
    </g>
    <g id="text_6">
     <!--   -->
     <g transform="translate(107.4925 36.284063) scale(0.18 -0.18)">
      <use xlink:href="#ArialMT-20"/>
     </g>
    </g>
    <g id="patch_16">
     <path d="M 57.0925 61.745625 
L 93.0925 61.745625 
L 93.0925 49.145625 
L 57.0925 49.145625 
z
" style="fill: #0383bb; opacity: 0.5; stroke: #000000; stroke-linejoin: miter"/>
    </g>
    <g id="text_7">
     <!--    -->
     <g transform="translate(107.4925 61.745625) scale(0.18 -0.18)">
      <use xlink:href="#ArialMT-20"/>
      <use xlink:href="#ArialMT-20" transform="translate(27.783203 0)"/>
     </g>
    </g>
   </g>
  </g>
 </g>
 <defs>
  <clipPath id="p040aac627d">
   <rect x="40.8925" y="7.2" width="390.6" height="293.832"/>
  </clipPath>
 </defs>
</svg>
