<?xml version="1.0" encoding="utf-8" standalone="no"?>
<!DOCTYPE svg PUBLIC "-//W3C//DTD SVG 1.1//EN"
  "http://www.w3.org/Graphics/SVG/1.1/DTD/svg11.dtd">
<svg xmlns:xlink="http://www.w3.org/1999/xlink" width="425.34625pt" height="337.18075pt" viewBox="0 0 425.34625 337.18075" xmlns="http://www.w3.org/2000/svg" version="1.1">
 <metadata>
  <rdf:RDF xmlns:dc="http://purl.org/dc/elements/1.1/" xmlns:cc="http://creativecommons.org/ns#" xmlns:rdf="http://www.w3.org/1999/02/22-rdf-syntax-ns#">
   <cc:Work>
    <dc:type rdf:resource="http://purl.org/dc/dcmitype/StillImage"/>
    <dc:date>2026-02-28T11:34:15.042926</dc:date>
    <dc:format>image/svg+xml</dc:format>
    <dc:creator>
     <cc:Agent>
      <dc:title>Matplotlib v3.10.8, https://matplotlib.org/</dc:title>
     </cc:Agent>
    </dc:creator>
   </cc:Work>
  </rdf:RDF>
 </metadata>
 <defs>
  <style type="text/css">*{stroke-linejoin: round; stroke-linecap: butt}</style>
 </defs>
 <g id="figure_1">
  <g id="patch_1">
   <path d="M 0 337.18075 
L 425.34625 337.18075 
L 425.34625 -0 
L 0 -0 
L 0 337.18075 
z
" style="fill: none"/>
  </g>
  <g id="axes_1">
   <g id="patch_2">
    <path d="M 27.54625 301.032 
L 418.14625 301.032 
L 418.14625 7.2 
L 27.54625 7.2 
L 27.54625 301.032 
z
" style="fill: none"/>
   </g>
   <g id="FillBetweenPolyCollection_1">
    <defs>
     <path id="md131e2eea8" d="M 45.300795 -117.055095 
L 45.300795 -94.572253 
L 80.809886 -128.786576 
L 116.318977 -141.554535 
L 151.828068 -153.02969 
L 187.337159 -160.829004 
L 222.84625 -165.20206 
L 258.355341 -215.988518 
L 293.864432 -228.381987 
L 293.864432 -255.417799 
L 293.864432 -255.417799 
L 258.355341 -248.196274 
L 222.84625 -207.501549 
L 187.337159 -191.791407 
L 151.828068 -197.656909 
L 116.318977 -152.89357 
L 80.809886 -151.752485 
L 45.300795 -117.055095 
z
" style="stroke: #83bb03; stroke-opacity: 0.2"/>
    </defs>
    <g clip-path="url(#p5ca2cd7af4)">
     <use xlink:href="#md131e2eea8" x="0" y="337.18075" style="fill: #83bb03; fill-opacity: 0.2; stroke: #83bb03; stroke-opacity: 0.2"/>
    </g>
   </g>
   <g id="FillBetweenPolyCollection_2">
    <defs>
     <path id="mb891c3ed0a" d="M 45.300795 -119.200745 
L 45.300795 -106.479119 
L 80.809886 -95.418872 
L 116.318977 -100.178059 
L 151.828068 -102.142282 
L 187.337159 -116.759427 
L 222.84625 -125.116389 
L 258.355341 -127.132186 
L 293.864432 -109.828337 
L 329.373523 -130.986279 
L 364.882614 -131.631944 
L 400.391705 -101.191935 
L 400.391705 -132.632122 
L 400.391705 -132.632122 
L 364.882614 -154.903492 
L 329.373523 -173.025694 
L 293.864432 -138.054398 
L 258.355341 -152.676561 
L 222.84625 -151.798142 
L 187.337159 -141.434764 
L 151.828068 -125.072218 
L 116.318977 -123.098511 
L 80.809886 -111.492098 
L 45.300795 -119.200745 
z
" style="stroke: #0383bb; stroke-opacity: 0.2"/>
    </defs>
    <g clip-path="url(#p5ca2cd7af4)">
     <use xlink:href="#mb891c3ed0a" x="0" y="337.18075" style="fill: #0383bb; fill-opacity: 0.2; stroke: #0383bb; stroke-opacity: 0.2"/>
    </g>
   </g>
   <g id="FillBetweenPolyCollection_3">
    <defs>
     <path id="md4013777c3" d="M 45.300795 -87.597654 
L 45.300795 -76.811181 
L 80.809886 -114.545621 
L 116.318977 -111.729186 
L 151.828068 -132.398913 
L 187.337159 -138.181012 
L 222.84625 -125.892677 
L 258.355341 -155.286494 
L 293.864432 -152.02477 
L 329.373523 -132.586413 
L 364.882614 -137.650464 
L 400.391705 -139.619212 
L 400.391705 -142.598265 
L 400.391705 -142.598265 
L 364.882614 -159.892251 
L 329.373523 -161.958017 
L 293.864432 -169.622717 
L 258.355341 -188.887559 
L 222.84625 -173.069226 
L 187.337159 -171.570722 
L 151.828068 -173.842828 
L 116.318977 -186.816955 
L 80.809886 -140.219552 
L 45.300795 -87.597654 
z
" style="stroke: #bb0383; stroke-opacity: 0.2"/>
    </defs>
    <g clip-path="url(#p5ca2cd7af4)">
     <use xlink:href="#md4013777c3" x="0" y="337.18075" style="fill: #bb0383; fill-opacity: 0.2; stroke: #bb0383; stroke-opacity: 0.2"/>
    </g>
   </g>
   <g id="matplotlib.axis_1">
    <g id="xtick_1">
     <g id="line2d_1">
      <defs>
       <path id="mef6ea2662e" d="M 0 0 
L 0 3.5 
" style="stroke: #000000; stroke-width: 0.8"/>
      </defs>
      <g>
       <use xlink:href="#mef6ea2662e" x="27.54625" y="301.032" style="stroke: #000000; stroke-width: 0.8"/>
      </g>
     </g>
     <g id="text_1">
      <!-- 4 -->
      <g transform="translate(20.873125 325.21075) scale(0.24 -0.24)">
       <defs>
        <path id="ArialMT-34" d="M 2069 0 
L 2069 1097 
L 81 1097 
L 81 1613 
L 2172 4581 
L 2631 4581 
L 2631 1613 
L 3250 1613 
L 3250 1097 
L 2631 1097 
L 2631 0 
L 2069 0 
z
M 2069 1613 
L 2069 3678 
L 634 1613 
L 2069 1613 
z
" transform="scale(0.015625)"/>
       </defs>
       <use xlink:href="#ArialMT-34"/>
      </g>
     </g>
    </g>
    <g id="xtick_2">
     <g id="line2d_2">
      <g>
       <use xlink:href="#mef6ea2662e" x="169.582614" y="301.032" style="stroke: #000000; stroke-width: 0.8"/>
      </g>
     </g>
     <g id="text_2">
      <!-- 6 -->
      <g transform="translate(162.909489 325.21075) scale(0.24 -0.24)">
       <defs>
        <path id="ArialMT-36" d="M 3184 3459 
L 2625 3416 
Q 2550 3747 2413 3897 
Q 2184 4138 1850 4138 
Q 1581 4138 1378 3988 
Q 1113 3794 959 3422 
Q 806 3050 800 2363 
Q 1003 2672 1297 2822 
Q 1591 2972 1913 2972 
Q 2475 2972 2870 2558 
Q 3266 2144 3266 1488 
Q 3266 1056 3080 686 
Q 2894 316 2569 119 
Q 2244 -78 1831 -78 
Q 1128 -78 684 439 
Q 241 956 241 2144 
Q 241 3472 731 4075 
Q 1159 4600 1884 4600 
Q 2425 4600 2770 4297 
Q 3116 3994 3184 3459 
z
M 888 1484 
Q 888 1194 1011 928 
Q 1134 663 1356 523 
Q 1578 384 1822 384 
Q 2178 384 2434 671 
Q 2691 959 2691 1453 
Q 2691 1928 2437 2201 
Q 2184 2475 1800 2475 
Q 1419 2475 1153 2201 
Q 888 1928 888 1484 
z
" transform="scale(0.015625)"/>
       </defs>
       <use xlink:href="#ArialMT-36"/>
      </g>
     </g>
    </g>
    <g id="xtick_3">
     <g id="line2d_3">
      <g>
       <use xlink:href="#mef6ea2662e" x="311.618977" y="301.032" style="stroke: #000000; stroke-width: 0.8"/>
      </g>
     </g>
     <g id="text_3">
      <!-- 8 -->
      <g transform="translate(304.945852 325.21075) scale(0.24 -0.24)">
       <defs>
        <path id="ArialMT-38" d="M 1131 2484 
Q 781 2613 612 2850 
Q 444 3088 444 3419 
Q 444 3919 803 4259 
Q 1163 4600 1759 4600 
Q 2359 4600 2725 4251 
Q 3091 3903 3091 3403 
Q 3091 3084 2923 2848 
Q 2756 2613 2416 2484 
Q 2838 2347 3058 2040 
Q 3278 1734 3278 1309 
Q 3278 722 2862 322 
Q 2447 -78 1769 -78 
Q 1091 -78 675 323 
Q 259 725 259 1325 
Q 259 1772 486 2073 
Q 713 2375 1131 2484 
z
M 1019 3438 
Q 1019 3113 1228 2906 
Q 1438 2700 1772 2700 
Q 2097 2700 2305 2904 
Q 2513 3109 2513 3406 
Q 2513 3716 2298 3927 
Q 2084 4138 1766 4138 
Q 1444 4138 1231 3931 
Q 1019 3725 1019 3438 
z
M 838 1322 
Q 838 1081 952 856 
Q 1066 631 1291 507 
Q 1516 384 1775 384 
Q 2178 384 2440 643 
Q 2703 903 2703 1303 
Q 2703 1709 2433 1975 
Q 2163 2241 1756 2241 
Q 1359 2241 1098 1978 
Q 838 1716 838 1322 
z
" transform="scale(0.015625)"/>
       </defs>
       <use xlink:href="#ArialMT-38"/>
      </g>
     </g>
    </g>
    <g id="xtick_4">
     <g id="line2d_4">
      <defs>
       <path id="m53b52cad06" d="M 0 0 
L 0 2 
" style="stroke: #000000; stroke-width: 0.6"/>
      </defs>
      <g>
       <use xlink:href="#m53b52cad06" x="45.300795" y="301.032" style="stroke: #000000; stroke-width: 0.6"/>
      </g>
     </g>
    </g>
    <g id="xtick_5">
     <g id="line2d_5">
      <g>
       <use xlink:href="#m53b52cad06" x="63.055341" y="301.032" style="stroke: #000000; stroke-width: 0.6"/>
      </g>
     </g>
    </g>
    <g id="xtick_6">
     <g id="line2d_6">
      <g>
       <use xlink:href="#m53b52cad06" x="80.809886" y="301.032" style="stroke: #000000; stroke-width: 0.6"/>
      </g>
     </g>
    </g>
    <g id="xtick_7">
     <g id="line2d_7">
      <g>
       <use xlink:href="#m53b52cad06" x="98.564432" y="301.032" style="stroke: #000000; stroke-width: 0.6"/>
      </g>
     </g>
    </g>
    <g id="xtick_8">
     <g id="line2d_8">
      <g>
       <use xlink:href="#m53b52cad06" x="116.318977" y="301.032" style="stroke: #000000; stroke-width: 0.6"/>
      </g>
     </g>
    </g>
    <g id="xtick_9">
     <g id="line2d_9">
      <g>
       <use xlink:href="#m53b52cad06" x="134.073523" y="301.032" style="stroke: #000000; stroke-width: 0.6"/>
      </g>
     </g>
    </g>
    <g id="xtick_10">
     <g id="line2d_10">
      <g>
       <use xlink:href="#m53b52cad06" x="151.828068" y="301.032" style="stroke: #000000; stroke-width: 0.6"/>
      </g>
     </g>
    </g>
    <g id="xtick_11">
     <g id="line2d_11">
      <g>
       <use xlink:href="#m53b52cad06" x="187.337159" y="301.032" style="stroke: #000000; stroke-width: 0.6"/>
      </g>
     </g>
    </g>
    <g id="xtick_12">
     <g id="line2d_12">
      <g>
       <use xlink:href="#m53b52cad06" x="205.091705" y="301.032" style="stroke: #000000; stroke-width: 0.6"/>
      </g>
     </g>
    </g>
    <g id="xtick_13">
     <g id="line2d_13">
      <g>
       <use xlink:href="#m53b52cad06" x="222.84625" y="301.032" style="stroke: #000000; stroke-width: 0.6"/>
      </g>
     </g>
    </g>
    <g id="xtick_14">
     <g id="line2d_14">
      <g>
       <use xlink:href="#m53b52cad06" x="240.600795" y="301.032" style="stroke: #000000; stroke-width: 0.6"/>
      </g>
     </g>
    </g>
    <g id="xtick_15">
     <g id="line2d_15">
      <g>
       <use xlink:href="#m53b52cad06" x="258.355341" y="301.032" style="stroke: #000000; stroke-width: 0.6"/>
      </g>
     </g>
    </g>
    <g id="xtick_16">
     <g id="line2d_16">
      <g>
       <use xlink:href="#m53b52cad06" x="276.109886" y="301.032" style="stroke: #000000; stroke-width: 0.6"/>
      </g>
     </g>
    </g>
    <g id="xtick_17">
     <g id="line2d_17">
      <g>
       <use xlink:href="#m53b52cad06" x="293.864432" y="301.032" style="stroke: #000000; stroke-width: 0.6"/>
      </g>
     </g>
    </g>
    <g id="xtick_18">
     <g id="line2d_18">
      <g>
       <use xlink:href="#m53b52cad06" x="329.373523" y="301.032" style="stroke: #000000; stroke-width: 0.6"/>
      </g>
     </g>
    </g>
    <g id="xtick_19">
     <g id="line2d_19">
      <g>
       <use xlink:href="#m53b52cad06" x="347.128068" y="301.032" style="stroke: #000000; stroke-width: 0.6"/>
      </g>
     </g>
    </g>
    <g id="xtick_20">
     <g id="line2d_20">
      <g>
       <use xlink:href="#m53b52cad06" x="364.882614" y="301.032" style="stroke: #000000; stroke-width: 0.6"/>
      </g>
     </g>
    </g>
    <g id="xtick_21">
     <g id="line2d_21">
      <g>
       <use xlink:href="#m53b52cad06" x="382.637159" y="301.032" style="stroke: #000000; stroke-width: 0.6"/>
      </g>
     </g>
    </g>
    <g id="xtick_22">
     <g id="line2d_22">
      <g>
       <use xlink:href="#m53b52cad06" x="400.391705" y="301.032" style="stroke: #000000; stroke-width: 0.6"/>
      </g>
     </g>
    </g>
    <g id="xtick_23">
     <g id="line2d_23">
      <g>
       <use xlink:href="#m53b52cad06" x="418.14625" y="301.032" style="stroke: #000000; stroke-width: 0.6"/>
      </g>
     </g>
    </g>
   </g>
   <g id="matplotlib.axis_2">
    <g id="ytick_1">
     <g id="line2d_24">
      <defs>
       <path id="m950f51ed56" d="M 0 0 
L -3.5 0 
" style="stroke: #000000; stroke-width: 0.8"/>
      </defs>
      <g>
       <use xlink:href="#m950f51ed56" x="27.54625" y="301.032" style="stroke: #000000; stroke-width: 0.8"/>
      </g>
     </g>
     <g id="text_4">
      <!-- 0 -->
      <g transform="translate(7.2 309.621375) scale(0.24 -0.24)">
       <defs>
        <path id="ArialMT-30" d="M 266 2259 
Q 266 3072 433 3567 
Q 600 4063 929 4331 
Q 1259 4600 1759 4600 
Q 2128 4600 2406 4451 
Q 2684 4303 2865 4023 
Q 3047 3744 3150 3342 
Q 3253 2941 3253 2259 
Q 3253 1453 3087 958 
Q 2922 463 2592 192 
Q 2263 -78 1759 -78 
Q 1097 -78 719 397 
Q 266 969 266 2259 
z
M 844 2259 
Q 844 1131 1108 757 
Q 1372 384 1759 384 
Q 2147 384 2411 759 
Q 2675 1134 2675 2259 
Q 2675 3391 2411 3762 
Q 2147 4134 1753 4134 
Q 1366 4134 1134 3806 
Q 844 3388 844 2259 
z
" transform="scale(0.015625)"/>
       </defs>
       <use xlink:href="#ArialMT-30"/>
      </g>
     </g>
    </g>
    <g id="ytick_2">
     <g id="line2d_25">
      <g>
       <use xlink:href="#m950f51ed56" x="27.54625" y="217.08" style="stroke: #000000; stroke-width: 0.8"/>
      </g>
     </g>
     <g id="text_5">
      <!-- 1 -->
      <g transform="translate(7.2 225.669375) scale(0.24 -0.24)">
       <defs>
        <path id="ArialMT-31" d="M 2384 0 
L 1822 0 
L 1822 3584 
Q 1619 3391 1289 3197 
Q 959 3003 697 2906 
L 697 3450 
Q 1169 3672 1522 3987 
Q 1875 4303 2022 4600 
L 2384 4600 
L 2384 0 
z
" transform="scale(0.015625)"/>
       </defs>
       <use xlink:href="#ArialMT-31"/>
      </g>
     </g>
    </g>
    <g id="ytick_3">
     <g id="line2d_26">
      <g>
       <use xlink:href="#m950f51ed56" x="27.54625" y="133.128" style="stroke: #000000; stroke-width: 0.8"/>
      </g>
     </g>
     <g id="text_6">
      <!-- 2 -->
      <g transform="translate(7.2 141.717375) scale(0.24 -0.24)">
       <defs>
        <path id="ArialMT-32" d="M 3222 541 
L 3222 0 
L 194 0 
Q 188 203 259 391 
Q 375 700 629 1000 
Q 884 1300 1366 1694 
Q 2113 2306 2375 2664 
Q 2638 3022 2638 3341 
Q 2638 3675 2398 3904 
Q 2159 4134 1775 4134 
Q 1369 4134 1125 3890 
Q 881 3647 878 3216 
L 300 3275 
Q 359 3922 746 4261 
Q 1134 4600 1788 4600 
Q 2447 4600 2831 4234 
Q 3216 3869 3216 3328 
Q 3216 3053 3103 2787 
Q 2991 2522 2730 2228 
Q 2469 1934 1863 1422 
Q 1356 997 1212 845 
Q 1069 694 975 541 
L 3222 541 
z
" transform="scale(0.015625)"/>
       </defs>
       <use xlink:href="#ArialMT-32"/>
      </g>
     </g>
    </g>
    <g id="ytick_4">
     <g id="line2d_27">
      <g>
       <use xlink:href="#m950f51ed56" x="27.54625" y="49.176" style="stroke: #000000; stroke-width: 0.8"/>
      </g>
     </g>
     <g id="text_7">
      <!-- 3 -->
      <g transform="translate(7.2 57.765375) scale(0.24 -0.24)">
       <defs>
        <path id="ArialMT-33" d="M 269 1209 
L 831 1284 
Q 928 806 1161 595 
Q 1394 384 1728 384 
Q 2125 384 2398 659 
Q 2672 934 2672 1341 
Q 2672 1728 2419 1979 
Q 2166 2231 1775 2231 
Q 1616 2231 1378 2169 
L 1441 2663 
Q 1497 2656 1531 2656 
Q 1891 2656 2178 2843 
Q 2466 3031 2466 3422 
Q 2466 3731 2256 3934 
Q 2047 4138 1716 4138 
Q 1388 4138 1169 3931 
Q 950 3725 888 3313 
L 325 3413 
Q 428 3978 793 4289 
Q 1159 4600 1703 4600 
Q 2078 4600 2393 4439 
Q 2709 4278 2876 4000 
Q 3044 3722 3044 3409 
Q 3044 3113 2884 2869 
Q 2725 2625 2413 2481 
Q 2819 2388 3044 2092 
Q 3269 1797 3269 1353 
Q 3269 753 2831 336 
Q 2394 -81 1725 -81 
Q 1122 -81 723 278 
Q 325 638 269 1209 
z
" transform="scale(0.015625)"/>
       </defs>
       <use xlink:href="#ArialMT-33"/>
      </g>
     </g>
    </g>
    <g id="ytick_5">
     <g id="line2d_28">
      <defs>
       <path id="md721572365" d="M 0 0 
L -2 0 
" style="stroke: #000000; stroke-width: 0.6"/>
      </defs>
      <g>
       <use xlink:href="#md721572365" x="27.54625" y="280.044" style="stroke: #000000; stroke-width: 0.6"/>
      </g>
     </g>
    </g>
    <g id="ytick_6">
     <g id="line2d_29">
      <g>
       <use xlink:href="#md721572365" x="27.54625" y="259.056" style="stroke: #000000; stroke-width: 0.6"/>
      </g>
     </g>
    </g>
    <g id="ytick_7">
     <g id="line2d_30">
      <g>
       <use xlink:href="#md721572365" x="27.54625" y="238.068" style="stroke: #000000; stroke-width: 0.6"/>
      </g>
     </g>
    </g>
    <g id="ytick_8">
     <g id="line2d_31">
      <g>
       <use xlink:href="#md721572365" x="27.54625" y="196.092" style="stroke: #000000; stroke-width: 0.6"/>
      </g>
     </g>
    </g>
    <g id="ytick_9">
     <g id="line2d_32">
      <g>
       <use xlink:href="#md721572365" x="27.54625" y="175.104" style="stroke: #000000; stroke-width: 0.6"/>
      </g>
     </g>
    </g>
    <g id="ytick_10">
     <g id="line2d_33">
      <g>
       <use xlink:href="#md721572365" x="27.54625" y="154.116" style="stroke: #000000; stroke-width: 0.6"/>
      </g>
     </g>
    </g>
    <g id="ytick_11">
     <g id="line2d_34">
      <g>
       <use xlink:href="#md721572365" x="27.54625" y="112.14" style="stroke: #000000; stroke-width: 0.6"/>
      </g>
     </g>
    </g>
    <g id="ytick_12">
     <g id="line2d_35">
      <g>
       <use xlink:href="#md721572365" x="27.54625" y="91.152" style="stroke: #000000; stroke-width: 0.6"/>
      </g>
     </g>
    </g>
    <g id="ytick_13">
     <g id="line2d_36">
      <g>
       <use xlink:href="#md721572365" x="27.54625" y="70.164" style="stroke: #000000; stroke-width: 0.6"/>
      </g>
     </g>
    </g>
    <g id="ytick_14">
     <g id="line2d_37">
      <g>
       <use xlink:href="#md721572365" x="27.54625" y="28.188" style="stroke: #000000; stroke-width: 0.6"/>
      </g>
     </g>
    </g>
   </g>
   <g id="line2d_38">
    <path d="M 45.300795 231.367076 
L 80.809886 196.911219 
L 116.318977 189.956698 
L 151.828068 161.83745 
L 187.337159 160.870545 
L 222.84625 150.828945 
L 258.355341 105.088354 
L 293.864432 95.280857 
" clip-path="url(#p5ca2cd7af4)" style="fill: none; stroke: #83bb03; stroke-width: 1.5; stroke-linecap: square"/>
   </g>
   <g id="line2d_39">
    <path d="M 45.300795 224.340818 
L 80.809886 233.725265 
L 116.318977 225.542465 
L 151.828068 223.5735 
L 187.337159 208.083654 
L 222.84625 198.723485 
L 258.355341 197.276376 
L 293.864432 213.239383 
L 329.373523 185.174764 
L 364.882614 193.913032 
L 400.391705 220.268722 
" clip-path="url(#p5ca2cd7af4)" style="fill: none; stroke: #0383bb; stroke-width: 1.5; stroke-linecap: square"/>
   </g>
   <g id="line2d_40">
    <path d="M 45.300795 254.976333 
L 80.809886 209.798163 
L 116.318977 187.907679 
L 151.828068 184.059879 
L 187.337159 182.304883 
L 222.84625 187.699798 
L 258.355341 165.093723 
L 293.864432 176.357006 
L 329.373523 189.908535 
L 364.882614 188.409393 
L 400.391705 196.072011 
" clip-path="url(#p5ca2cd7af4)" style="fill: none; stroke: #bb0383; stroke-width: 1.5; stroke-linecap: square"/>
   </g>
   <g id="patch_3">
    <path d="M 27.54625 301.032 
L 27.54625 7.2 
" style="fill: none; stroke: #000000; stroke-width: 0.8; stroke-linejoin: miter; stroke-linecap: square"/>
   </g>
   <g id="patch_4">
    <path d="M 418.14625 301.032 
L 418.14625 7.2 
" style="fill: none"/>
   </g>
   <g id="patch_5">
    <path d="M 27.54625 301.032 
L 418.14625 301.032 
" style="fill: none; stroke: #000000; stroke-width: 0.8; stroke-linejoin: miter; stroke-linecap: square"/>
   </g>
   <g id="patch_6">
    <path d="M 27.54625 7.2 
L 418.14625 7.2 
" style="fill: none"/>
   </g>
   <g id="legend_1">
    <g id="line2d_41">
     <path d="M 43.74625 29.984063 
L 61.74625 29.984063 
L 79.74625 29.984063 
" style="fill: none; stroke: #83bb03; stroke-width: 1.5; stroke-linecap: square"/>
    </g>
    <g id="text_8">
     <!--   -->
     <g transform="translate(94.14625 36.284063) scale(0.18 -0.18)">
      <defs>
       <path id="ArialMT-20" transform="scale(0.015625)"/>
      </defs>
      <use xlink:href="#ArialMT-20"/>
     </g>
    </g>
    <g id="line2d_42">
     <path d="M 43.74625 55.445625 
L 61.74625 55.445625 
L 79.74625 55.445625 
" style="fill: none; stroke: #0383bb; stroke-width: 1.5; stroke-linecap: square"/>
    </g>
    <g id="text_9">
     <!--    -->
     <g transform="translate(94.14625 61.745625) scale(0.18 -0.18)">
      <use xlink:href="#ArialMT-20"/>
      <use xlink:href="#ArialMT-20" transform="translate(27.783203 0)"/>
     </g>
    </g>
    <g id="line2d_43">
     <path d="M 43.74625 80.907188 
L 61.74625 80.907188 
L 79.74625 80.907188 
" style="fill: none; stroke: #bb0383; stroke-width: 1.5; stroke-linecap: square"/>
    </g>
    <g id="text_10">
     <!--     -->
     <g transform="translate(94.14625 87.207188) scale(0.18 -0.18)">
      <use xlink:href="#ArialMT-20"/>
      <use xlink:href="#ArialMT-20" transform="translate(27.783203 0)"/>
      <use xlink:href="#ArialMT-20" transform="translate(55.566406 0)"/>
     </g>
    </g>
   </g>
  </g>
 </g>
 <defs>
  <clipPath id="p5ca2cd7af4">
   <rect x="27.54625" y="7.2" width="390.6" height="293.832"/>
  </clipPath>
 </defs>
</svg>
